%TF.GenerationSoftware,KiCad,Pcbnew,(6.0.2)*%
%TF.CreationDate,2022-06-07T16:02:25+02:00*%
%TF.ProjectId,RFID_Reader,52464944-5f52-4656-9164-65722e6b6963,rev?*%
%TF.SameCoordinates,Original*%
%TF.FileFunction,Copper,L1,Top*%
%TF.FilePolarity,Positive*%
%FSLAX46Y46*%
G04 Gerber Fmt 4.6, Leading zero omitted, Abs format (unit mm)*
G04 Created by KiCad (PCBNEW (6.0.2)) date 2022-06-07 16:02:25*
%MOMM*%
%LPD*%
G01*
G04 APERTURE LIST*
G04 Aperture macros list*
%AMRoundRect*
0 Rectangle with rounded corners*
0 $1 Rounding radius*
0 $2 $3 $4 $5 $6 $7 $8 $9 X,Y pos of 4 corners*
0 Add a 4 corners polygon primitive as box body*
4,1,4,$2,$3,$4,$5,$6,$7,$8,$9,$2,$3,0*
0 Add four circle primitives for the rounded corners*
1,1,$1+$1,$2,$3*
1,1,$1+$1,$4,$5*
1,1,$1+$1,$6,$7*
1,1,$1+$1,$8,$9*
0 Add four rect primitives between the rounded corners*
20,1,$1+$1,$2,$3,$4,$5,0*
20,1,$1+$1,$4,$5,$6,$7,0*
20,1,$1+$1,$6,$7,$8,$9,0*
20,1,$1+$1,$8,$9,$2,$3,0*%
%AMHorizOval*
0 Thick line with rounded ends*
0 $1 width*
0 $2 $3 position (X,Y) of the first rounded end (center of the circle)*
0 $4 $5 position (X,Y) of the second rounded end (center of the circle)*
0 Add line between two ends*
20,1,$1,$2,$3,$4,$5,0*
0 Add two circle primitives to create the rounded ends*
1,1,$1,$2,$3*
1,1,$1,$4,$5*%
%AMRotRect*
0 Rectangle, with rotation*
0 The origin of the aperture is its center*
0 $1 length*
0 $2 width*
0 $3 Rotation angle, in degrees counterclockwise*
0 Add horizontal line*
21,1,$1,$2,0,0,$3*%
G04 Aperture macros list end*
%TA.AperFunction,ComponentPad*%
%ADD10C,5.600000*%
%TD*%
%TA.AperFunction,ComponentPad*%
%ADD11C,2.000000*%
%TD*%
%TA.AperFunction,ComponentPad*%
%ADD12RotRect,1.700000X1.700000X45.000000*%
%TD*%
%TA.AperFunction,ComponentPad*%
%ADD13HorizOval,1.700000X0.000000X0.000000X0.000000X0.000000X0*%
%TD*%
%TA.AperFunction,ComponentPad*%
%ADD14C,1.600000*%
%TD*%
%TA.AperFunction,ComponentPad*%
%ADD15O,1.600000X1.600000*%
%TD*%
%TA.AperFunction,ComponentPad*%
%ADD16R,1.700000X1.700000*%
%TD*%
%TA.AperFunction,ComponentPad*%
%ADD17O,1.700000X1.700000*%
%TD*%
%TA.AperFunction,ComponentPad*%
%ADD18R,3.500000X3.500000*%
%TD*%
%TA.AperFunction,ComponentPad*%
%ADD19RoundRect,0.750000X-1.000000X0.750000X-1.000000X-0.750000X1.000000X-0.750000X1.000000X0.750000X0*%
%TD*%
%TA.AperFunction,ComponentPad*%
%ADD20RoundRect,0.875000X-0.875000X0.875000X-0.875000X-0.875000X0.875000X-0.875000X0.875000X0.875000X0*%
%TD*%
%TA.AperFunction,ComponentPad*%
%ADD21R,2.000000X2.000000*%
%TD*%
%TA.AperFunction,ComponentPad*%
%ADD22O,1.600000X2.000000*%
%TD*%
%TA.AperFunction,Conductor*%
%ADD23C,0.250000*%
%TD*%
G04 APERTURE END LIST*
D10*
%TO.P,Hole4,1*%
%TO.N,N/C*%
X220000000Y-63000000D03*
%TD*%
D11*
%TO.P,SW1,1,1*%
%TO.N,Net-(JSW1-Pad1)*%
X216889088Y-107707107D03*
X212292894Y-103110913D03*
%TO.P,SW1,2,2*%
%TO.N,GND*%
X213707108Y-110889088D03*
X209110913Y-106292894D03*
%TD*%
D12*
%TO.P,J1,1,Pin_1*%
%TO.N,GND*%
X184312994Y-85812994D03*
D13*
%TO.P,J1,2,Pin_2*%
%TO.N,+3V3*%
X186109045Y-87609045D03*
%TO.P,J1,3,Pin_3*%
%TO.N,SDA*%
X187905096Y-89405096D03*
%TO.P,J1,4,Pin_4*%
%TO.N,SCL*%
X189701148Y-91201148D03*
%TD*%
D11*
%TO.P,SW3,1,1*%
%TO.N,GND*%
X183110913Y-107707107D03*
X187707107Y-103110913D03*
%TO.P,SW3,2,2*%
%TO.N,Net-(JSW3-Pad1)*%
X190889088Y-106292893D03*
X186292894Y-110889088D03*
%TD*%
D10*
%TO.P,Hole1,1*%
%TO.N,N/C*%
X180000000Y-103000000D03*
%TD*%
D14*
%TO.P,R2,1*%
%TO.N,+3V3*%
X173000000Y-90190000D03*
D15*
%TO.P,R2,2*%
%TO.N,Net-(JSW2-Pad1)*%
X173000000Y-97810000D03*
%TD*%
D14*
%TO.P,R1,1*%
%TO.N,+3V3*%
X208190000Y-98000000D03*
D15*
%TO.P,R1,2*%
%TO.N,Net-(JSW1-Pad1)*%
X215810000Y-98000000D03*
%TD*%
D11*
%TO.P,SW2,1,1*%
%TO.N,Net-(JSW2-Pad1)*%
X203250000Y-107750000D03*
X196750000Y-107750000D03*
%TO.P,SW2,2,2*%
%TO.N,GND*%
X196750000Y-112250000D03*
X203250000Y-112250000D03*
%TD*%
D14*
%TO.P,R3,1*%
%TO.N,+3V3*%
X176000000Y-90190000D03*
D15*
%TO.P,R3,2*%
%TO.N,Net-(JSW3-Pad1)*%
X176000000Y-97810000D03*
%TD*%
D10*
%TO.P,Hole2,1*%
%TO.N,N/C*%
X220000000Y-103000000D03*
%TD*%
%TO.P,Hole3,1*%
%TO.N,N/C*%
X180000000Y-63000000D03*
%TD*%
D16*
%TO.P,J3,1,Pin_1*%
%TO.N,A0*%
X171625000Y-86875000D03*
D17*
%TO.P,J3,2,Pin_2*%
%TO.N,D0*%
X171625000Y-84335000D03*
%TO.P,J3,3,Pin_3*%
%TO.N,D3*%
X171625000Y-81795000D03*
%TO.P,J3,4,Pin_4*%
%TO.N,D4*%
X171625000Y-79255000D03*
%TO.P,J3,5,Pin_5*%
%TO.N,D8*%
X171625000Y-76715000D03*
%TO.P,J3,6,Pin_6*%
%TO.N,GND*%
X171625000Y-74175000D03*
%TO.P,J3,7,Pin_7*%
%TO.N,+3V3*%
X171625000Y-71635000D03*
%TO.P,J3,8,Pin_8*%
%TO.N,+5V*%
X171625000Y-69095000D03*
%TD*%
D16*
%TO.P,JSW3,1,Pin_1*%
%TO.N,Net-(JSW3-Pad1)*%
X192500000Y-112500000D03*
D17*
%TO.P,JSW3,2,Pin_2*%
%TO.N,GND*%
X189960000Y-112500000D03*
%TD*%
D16*
%TO.P,JSW2,1,Pin_1*%
%TO.N,Net-(JSW2-Pad1)*%
X201275000Y-114375000D03*
D17*
%TO.P,JSW2,2,Pin_2*%
%TO.N,GND*%
X198735000Y-114375000D03*
%TD*%
D18*
%TO.P,J2,1*%
%TO.N,+5V*%
X200000000Y-62000000D03*
D19*
%TO.P,J2,2*%
%TO.N,GND*%
X200000000Y-56000000D03*
D20*
%TO.P,J2,3*%
%TO.N,N/C*%
X204700000Y-59000000D03*
%TD*%
D21*
%TO.P,U1,1,~{RST}*%
%TO.N,unconnected-(U1-Pad1)*%
X221890000Y-93945000D03*
D22*
%TO.P,U1,2,A0*%
%TO.N,A0*%
X219350000Y-93945000D03*
%TO.P,U1,3,D0*%
%TO.N,D0*%
X216810000Y-93945000D03*
%TO.P,U1,4,SCK/D5*%
%TO.N,Net-(JSW1-Pad1)*%
X214270000Y-93945000D03*
%TO.P,U1,5,MISO/D6*%
%TO.N,Net-(JSW2-Pad1)*%
X211730000Y-93945000D03*
%TO.P,U1,6,MOSI/D7*%
%TO.N,Net-(JSW3-Pad1)*%
X209190000Y-93945000D03*
%TO.P,U1,7,CS/D8*%
%TO.N,D8*%
X206650000Y-93945000D03*
%TO.P,U1,8,3V3*%
%TO.N,+3V3*%
X204110000Y-93945000D03*
%TO.P,U1,9,5V*%
%TO.N,+5V*%
X204110000Y-71085000D03*
%TO.P,U1,10,GND*%
%TO.N,GND*%
X206650000Y-71085000D03*
%TO.P,U1,11,D4*%
%TO.N,D4*%
X209190000Y-71085000D03*
%TO.P,U1,12,D3*%
%TO.N,D3*%
X211730000Y-71085000D03*
%TO.P,U1,13,SDA/D2*%
%TO.N,SDA*%
X214270000Y-71085000D03*
%TO.P,U1,14,SCL/D1*%
%TO.N,SCL*%
X216810000Y-71085000D03*
%TO.P,U1,15,RX*%
%TO.N,unconnected-(U1-Pad15)*%
X219350000Y-71085000D03*
%TO.P,U1,16,TX*%
%TO.N,unconnected-(U1-Pad16)*%
X221890000Y-71085000D03*
%TD*%
D16*
%TO.P,JSW1,1,Pin_1*%
%TO.N,Net-(JSW1-Pad1)*%
X210000000Y-112500000D03*
D17*
%TO.P,JSW1,2,Pin_2*%
%TO.N,GND*%
X207460000Y-112500000D03*
%TD*%
D23*
%TO.N,Net-(JSW3-Pad1)*%
X186292894Y-110889088D02*
X190889088Y-106292893D01*
X179228727Y-97810000D02*
X187711620Y-106292893D01*
X187711620Y-106292893D02*
X190889088Y-106292893D01*
X176000000Y-97810000D02*
X179228727Y-97810000D01*
X190889088Y-106292893D02*
X191889088Y-105292893D01*
X190889088Y-110889088D02*
X192500000Y-112500000D01*
X186292894Y-110889088D02*
X190889088Y-110889088D01*
%TO.N,Net-(JSW1-Pad1)*%
X215015946Y-107707107D02*
X210223053Y-112500000D01*
X216889088Y-107707107D02*
X215015946Y-107707107D01*
X210223053Y-112500000D02*
X210000000Y-112500000D01*
X212292894Y-103110913D02*
X216889088Y-107707107D01*
X215810000Y-99593807D02*
X212292894Y-103110913D01*
X215810000Y-98000000D02*
X215810000Y-99593807D01*
%TO.N,Net-(JSW2-Pad1)*%
X201275000Y-109725000D02*
X203250000Y-107750000D01*
X201275000Y-114375000D02*
X201275000Y-109725000D01*
X196750000Y-107750000D02*
X203250000Y-107750000D01*
%TO.N,+3V3*%
X173000000Y-90190000D02*
X176000000Y-90190000D01*
X171868630Y-90190000D02*
X173000000Y-90190000D01*
X204135000Y-93945000D02*
X204110000Y-93945000D01*
X171625000Y-71635000D02*
X170450489Y-72809511D01*
X186109045Y-89270055D02*
X186109045Y-87609045D01*
X185189100Y-90190000D02*
X176000000Y-90190000D01*
X170450489Y-88771859D02*
X171868630Y-90190000D01*
X190783990Y-93945000D02*
X186109045Y-89270055D01*
X208190000Y-98000000D02*
X204135000Y-93945000D01*
X186109045Y-89270055D02*
X185189100Y-90190000D01*
X204110000Y-93945000D02*
X190783990Y-93945000D01*
X170450489Y-72809511D02*
X170450489Y-88771859D01*
%TO.N,SDA*%
X195949904Y-89405096D02*
X214270000Y-71085000D01*
X187905096Y-89405096D02*
X195949904Y-89405096D01*
%TO.N,SCL*%
X189701148Y-91201148D02*
X196693852Y-91201148D01*
X196693852Y-91201148D02*
X216810000Y-71085000D01*
%TO.N,Net-(JSW1-Pad1)*%
X215810000Y-98000000D02*
X215810000Y-95485000D01*
X215810000Y-95485000D02*
X214270000Y-93945000D01*
%TO.N,Net-(JSW2-Pad1)*%
X211730000Y-93945000D02*
X211730000Y-99270000D01*
X211730000Y-99270000D02*
X203250000Y-107750000D01*
%TO.N,Net-(JSW3-Pad1)*%
X209682141Y-98098159D02*
X209682141Y-94437141D01*
X202487407Y-105292893D02*
X209682141Y-98098159D01*
X209682141Y-94437141D02*
X209190000Y-93945000D01*
X191889088Y-105292893D02*
X202487407Y-105292893D01*
%TO.N,+5V*%
X188905000Y-69095000D02*
X190895000Y-71085000D01*
X190895000Y-71085000D02*
X204110000Y-71085000D01*
X200000000Y-66975000D02*
X204110000Y-71085000D01*
X171625000Y-69095000D02*
X188905000Y-69095000D01*
X200000000Y-62000000D02*
X200000000Y-66975000D01*
%TD*%
%TA.AperFunction,Conductor*%
%TO.N,GND*%
G36*
X200616967Y-49576696D02*
G01*
X200956033Y-49580584D01*
X200960355Y-49580708D01*
X201349175Y-49598553D01*
X202104796Y-49633232D01*
X202109121Y-49633506D01*
X203250996Y-49725350D01*
X203255309Y-49725771D01*
X204393422Y-49856838D01*
X204397718Y-49857408D01*
X204671425Y-49898510D01*
X205530637Y-50027535D01*
X205534861Y-50028244D01*
X206244171Y-50159847D01*
X206661281Y-50237236D01*
X206665528Y-50238100D01*
X207361244Y-50392104D01*
X207784052Y-50485697D01*
X207788250Y-50486702D01*
X208102494Y-50567694D01*
X208897637Y-50772629D01*
X208901814Y-50773783D01*
X209255235Y-50877957D01*
X210000690Y-51097687D01*
X210004786Y-51098972D01*
X211091894Y-51460481D01*
X211095953Y-51461909D01*
X211442181Y-51590429D01*
X212169952Y-51860578D01*
X212173988Y-51862155D01*
X212319223Y-51921826D01*
X213233680Y-52297539D01*
X213237632Y-52299243D01*
X213574245Y-52451276D01*
X214281713Y-52770808D01*
X214285631Y-52772660D01*
X215312827Y-53279827D01*
X215316680Y-53281812D01*
X216325867Y-53824027D01*
X216329617Y-53826125D01*
X216896047Y-54156046D01*
X217319601Y-54402748D01*
X217323298Y-54404989D01*
X218072294Y-54876470D01*
X218292778Y-55015261D01*
X218296399Y-55017627D01*
X219244390Y-55660928D01*
X219247930Y-55663421D01*
X220081699Y-56272115D01*
X220173184Y-56338904D01*
X220176629Y-56341511D01*
X220473890Y-56574612D01*
X221078144Y-57048446D01*
X221081508Y-57051179D01*
X221958138Y-57788663D01*
X221961404Y-57791507D01*
X222812223Y-58558767D01*
X222815338Y-58561675D01*
X223331185Y-59060077D01*
X223453550Y-59178304D01*
X223488642Y-59240022D01*
X223492000Y-59268918D01*
X223492000Y-62302279D01*
X223471998Y-62370400D01*
X223418342Y-62416893D01*
X223348068Y-62426997D01*
X223283488Y-62397503D01*
X223245104Y-62337777D01*
X223241656Y-62322641D01*
X223241361Y-62320838D01*
X223236066Y-62288505D01*
X223140297Y-61943173D01*
X223137243Y-61935497D01*
X223009052Y-61613369D01*
X223007793Y-61610205D01*
X222859791Y-61330678D01*
X222841702Y-61296513D01*
X222841698Y-61296506D01*
X222840103Y-61293494D01*
X222639190Y-60996746D01*
X222407403Y-60723432D01*
X222147454Y-60476750D01*
X221956448Y-60331242D01*
X221865091Y-60261647D01*
X221865089Y-60261646D01*
X221862384Y-60259585D01*
X221859472Y-60257828D01*
X221859467Y-60257825D01*
X221558443Y-60076236D01*
X221558437Y-60076233D01*
X221555528Y-60074478D01*
X221230475Y-59923593D01*
X221060752Y-59866145D01*
X220894255Y-59809789D01*
X220894250Y-59809788D01*
X220891028Y-59808697D01*
X220630907Y-59751029D01*
X220544493Y-59731871D01*
X220544487Y-59731870D01*
X220541158Y-59731132D01*
X220537769Y-59730758D01*
X220537764Y-59730757D01*
X220188338Y-59692180D01*
X220188333Y-59692180D01*
X220184957Y-59691807D01*
X220181558Y-59691801D01*
X220181557Y-59691801D01*
X220012080Y-59691505D01*
X219826592Y-59691182D01*
X219713413Y-59703277D01*
X219473639Y-59728901D01*
X219473631Y-59728902D01*
X219470256Y-59729263D01*
X219120117Y-59805606D01*
X218780271Y-59919317D01*
X218777178Y-59920739D01*
X218777177Y-59920740D01*
X218672140Y-59969052D01*
X218454694Y-60069066D01*
X218451760Y-60070822D01*
X218451758Y-60070823D01*
X218171842Y-60238349D01*
X218147193Y-60253101D01*
X218144467Y-60255163D01*
X218144465Y-60255164D01*
X217865256Y-60466329D01*
X217861367Y-60469270D01*
X217600559Y-60715043D01*
X217367819Y-60987546D01*
X217365900Y-60990358D01*
X217365897Y-60990363D01*
X217351876Y-61010917D01*
X217165871Y-61283591D01*
X216997077Y-61599714D01*
X216863411Y-61932218D01*
X216862491Y-61935492D01*
X216862489Y-61935497D01*
X216782780Y-62219072D01*
X216766437Y-62277213D01*
X216707290Y-62630663D01*
X216686661Y-62988434D01*
X216704792Y-63346340D01*
X216705329Y-63349695D01*
X216705330Y-63349701D01*
X216710316Y-63380828D01*
X216761470Y-63700195D01*
X216856033Y-64045859D01*
X216947673Y-64278502D01*
X216962594Y-64316379D01*
X216987374Y-64379288D01*
X217153957Y-64696582D01*
X217155858Y-64699411D01*
X217155864Y-64699421D01*
X217339569Y-64972800D01*
X217353834Y-64994029D01*
X217584665Y-65268150D01*
X217843751Y-65515738D01*
X218128061Y-65733897D01*
X218160056Y-65753350D01*
X218431355Y-65918303D01*
X218431360Y-65918306D01*
X218434270Y-65920075D01*
X218437358Y-65921521D01*
X218437357Y-65921521D01*
X218755710Y-66070649D01*
X218755720Y-66070653D01*
X218758794Y-66072093D01*
X218762012Y-66073195D01*
X218762015Y-66073196D01*
X219094615Y-66187071D01*
X219094623Y-66187073D01*
X219097838Y-66188174D01*
X219447435Y-66266959D01*
X219499728Y-66272917D01*
X219800114Y-66307142D01*
X219800122Y-66307142D01*
X219803497Y-66307527D01*
X219806901Y-66307545D01*
X219806904Y-66307545D01*
X220001227Y-66308562D01*
X220161857Y-66309403D01*
X220165243Y-66309053D01*
X220165245Y-66309053D01*
X220514932Y-66272917D01*
X220514941Y-66272916D01*
X220518324Y-66272566D01*
X220521657Y-66271852D01*
X220521660Y-66271851D01*
X220694186Y-66234864D01*
X220868727Y-66197446D01*
X221208968Y-66084922D01*
X221535066Y-65936311D01*
X221629052Y-65880506D01*
X221840262Y-65755099D01*
X221840267Y-65755096D01*
X221843207Y-65753350D01*
X222129786Y-65538180D01*
X222391451Y-65293319D01*
X222625140Y-65021630D01*
X222731750Y-64866512D01*
X222826190Y-64729101D01*
X222826195Y-64729094D01*
X222828120Y-64726292D01*
X222829732Y-64723298D01*
X222829737Y-64723290D01*
X222996395Y-64413772D01*
X222998017Y-64410760D01*
X223132842Y-64078724D01*
X223135745Y-64068535D01*
X223192950Y-63867715D01*
X223231020Y-63734070D01*
X223241801Y-63670999D01*
X223272995Y-63607223D01*
X223333717Y-63570435D01*
X223404689Y-63572316D01*
X223463377Y-63612269D01*
X223491149Y-63677608D01*
X223492000Y-63692229D01*
X223492000Y-92522069D01*
X223471998Y-92590190D01*
X223418342Y-92636683D01*
X223348068Y-92646787D01*
X223283488Y-92617293D01*
X223265175Y-92597636D01*
X223253261Y-92581739D01*
X223136705Y-92494385D01*
X223000316Y-92443255D01*
X222938134Y-92436500D01*
X220841866Y-92436500D01*
X220779684Y-92443255D01*
X220643295Y-92494385D01*
X220526739Y-92581739D01*
X220439385Y-92698295D01*
X220436233Y-92706704D01*
X220436231Y-92706707D01*
X220430210Y-92722768D01*
X220387569Y-92779533D01*
X220321008Y-92804234D01*
X220251659Y-92789027D01*
X220223133Y-92767635D01*
X220194300Y-92738802D01*
X220189792Y-92735645D01*
X220189789Y-92735643D01*
X220044996Y-92634258D01*
X220006749Y-92607477D01*
X220001767Y-92605154D01*
X220001762Y-92605151D01*
X219804225Y-92513039D01*
X219804224Y-92513039D01*
X219799243Y-92510716D01*
X219793935Y-92509294D01*
X219793933Y-92509293D01*
X219583402Y-92452881D01*
X219583400Y-92452881D01*
X219578087Y-92451457D01*
X219350000Y-92431502D01*
X219121913Y-92451457D01*
X219116600Y-92452881D01*
X219116598Y-92452881D01*
X218906067Y-92509293D01*
X218906065Y-92509294D01*
X218900757Y-92510716D01*
X218895776Y-92513039D01*
X218895775Y-92513039D01*
X218698238Y-92605151D01*
X218698233Y-92605154D01*
X218693251Y-92607477D01*
X218655004Y-92634258D01*
X218510211Y-92735643D01*
X218510208Y-92735645D01*
X218505700Y-92738802D01*
X218343802Y-92900700D01*
X218212477Y-93088251D01*
X218210154Y-93093233D01*
X218210151Y-93093238D01*
X218194195Y-93127457D01*
X218147278Y-93180742D01*
X218079001Y-93200203D01*
X218011041Y-93179661D01*
X217965805Y-93127457D01*
X217949849Y-93093238D01*
X217949846Y-93093233D01*
X217947523Y-93088251D01*
X217816198Y-92900700D01*
X217654300Y-92738802D01*
X217649792Y-92735645D01*
X217649789Y-92735643D01*
X217504996Y-92634258D01*
X217466749Y-92607477D01*
X217461767Y-92605154D01*
X217461762Y-92605151D01*
X217264225Y-92513039D01*
X217264224Y-92513039D01*
X217259243Y-92510716D01*
X217253935Y-92509294D01*
X217253933Y-92509293D01*
X217043402Y-92452881D01*
X217043400Y-92452881D01*
X217038087Y-92451457D01*
X216810000Y-92431502D01*
X216581913Y-92451457D01*
X216576600Y-92452881D01*
X216576598Y-92452881D01*
X216366067Y-92509293D01*
X216366065Y-92509294D01*
X216360757Y-92510716D01*
X216355776Y-92513039D01*
X216355775Y-92513039D01*
X216158238Y-92605151D01*
X216158233Y-92605154D01*
X216153251Y-92607477D01*
X216115004Y-92634258D01*
X215970211Y-92735643D01*
X215970208Y-92735645D01*
X215965700Y-92738802D01*
X215803802Y-92900700D01*
X215672477Y-93088251D01*
X215670154Y-93093233D01*
X215670151Y-93093238D01*
X215654195Y-93127457D01*
X215607278Y-93180742D01*
X215539001Y-93200203D01*
X215471041Y-93179661D01*
X215425805Y-93127457D01*
X215409849Y-93093238D01*
X215409846Y-93093233D01*
X215407523Y-93088251D01*
X215276198Y-92900700D01*
X215114300Y-92738802D01*
X215109792Y-92735645D01*
X215109789Y-92735643D01*
X214964996Y-92634258D01*
X214926749Y-92607477D01*
X214921767Y-92605154D01*
X214921762Y-92605151D01*
X214724225Y-92513039D01*
X214724224Y-92513039D01*
X214719243Y-92510716D01*
X214713935Y-92509294D01*
X214713933Y-92509293D01*
X214503402Y-92452881D01*
X214503400Y-92452881D01*
X214498087Y-92451457D01*
X214270000Y-92431502D01*
X214041913Y-92451457D01*
X214036600Y-92452881D01*
X214036598Y-92452881D01*
X213826067Y-92509293D01*
X213826065Y-92509294D01*
X213820757Y-92510716D01*
X213815776Y-92513039D01*
X213815775Y-92513039D01*
X213618238Y-92605151D01*
X213618233Y-92605154D01*
X213613251Y-92607477D01*
X213575004Y-92634258D01*
X213430211Y-92735643D01*
X213430208Y-92735645D01*
X213425700Y-92738802D01*
X213263802Y-92900700D01*
X213132477Y-93088251D01*
X213130154Y-93093233D01*
X213130151Y-93093238D01*
X213114195Y-93127457D01*
X213067278Y-93180742D01*
X212999001Y-93200203D01*
X212931041Y-93179661D01*
X212885805Y-93127457D01*
X212869849Y-93093238D01*
X212869846Y-93093233D01*
X212867523Y-93088251D01*
X212736198Y-92900700D01*
X212574300Y-92738802D01*
X212569792Y-92735645D01*
X212569789Y-92735643D01*
X212424996Y-92634258D01*
X212386749Y-92607477D01*
X212381767Y-92605154D01*
X212381762Y-92605151D01*
X212184225Y-92513039D01*
X212184224Y-92513039D01*
X212179243Y-92510716D01*
X212173935Y-92509294D01*
X212173933Y-92509293D01*
X211963402Y-92452881D01*
X211963400Y-92452881D01*
X211958087Y-92451457D01*
X211730000Y-92431502D01*
X211501913Y-92451457D01*
X211496600Y-92452881D01*
X211496598Y-92452881D01*
X211286067Y-92509293D01*
X211286065Y-92509294D01*
X211280757Y-92510716D01*
X211275776Y-92513039D01*
X211275775Y-92513039D01*
X211078238Y-92605151D01*
X211078233Y-92605154D01*
X211073251Y-92607477D01*
X211035004Y-92634258D01*
X210890211Y-92735643D01*
X210890208Y-92735645D01*
X210885700Y-92738802D01*
X210723802Y-92900700D01*
X210592477Y-93088251D01*
X210590154Y-93093233D01*
X210590151Y-93093238D01*
X210574195Y-93127457D01*
X210527278Y-93180742D01*
X210459001Y-93200203D01*
X210391041Y-93179661D01*
X210345805Y-93127457D01*
X210329849Y-93093238D01*
X210329846Y-93093233D01*
X210327523Y-93088251D01*
X210196198Y-92900700D01*
X210034300Y-92738802D01*
X210029792Y-92735645D01*
X210029789Y-92735643D01*
X209884996Y-92634258D01*
X209846749Y-92607477D01*
X209841767Y-92605154D01*
X209841762Y-92605151D01*
X209644225Y-92513039D01*
X209644224Y-92513039D01*
X209639243Y-92510716D01*
X209633935Y-92509294D01*
X209633933Y-92509293D01*
X209423402Y-92452881D01*
X209423400Y-92452881D01*
X209418087Y-92451457D01*
X209190000Y-92431502D01*
X208961913Y-92451457D01*
X208956600Y-92452881D01*
X208956598Y-92452881D01*
X208746067Y-92509293D01*
X208746065Y-92509294D01*
X208740757Y-92510716D01*
X208735776Y-92513039D01*
X208735775Y-92513039D01*
X208538238Y-92605151D01*
X208538233Y-92605154D01*
X208533251Y-92607477D01*
X208495004Y-92634258D01*
X208350211Y-92735643D01*
X208350208Y-92735645D01*
X208345700Y-92738802D01*
X208183802Y-92900700D01*
X208052477Y-93088251D01*
X208050154Y-93093233D01*
X208050151Y-93093238D01*
X208034195Y-93127457D01*
X207987278Y-93180742D01*
X207919001Y-93200203D01*
X207851041Y-93179661D01*
X207805805Y-93127457D01*
X207789849Y-93093238D01*
X207789846Y-93093233D01*
X207787523Y-93088251D01*
X207656198Y-92900700D01*
X207494300Y-92738802D01*
X207489792Y-92735645D01*
X207489789Y-92735643D01*
X207344996Y-92634258D01*
X207306749Y-92607477D01*
X207301767Y-92605154D01*
X207301762Y-92605151D01*
X207104225Y-92513039D01*
X207104224Y-92513039D01*
X207099243Y-92510716D01*
X207093935Y-92509294D01*
X207093933Y-92509293D01*
X206883402Y-92452881D01*
X206883400Y-92452881D01*
X206878087Y-92451457D01*
X206650000Y-92431502D01*
X206421913Y-92451457D01*
X206416600Y-92452881D01*
X206416598Y-92452881D01*
X206206067Y-92509293D01*
X206206065Y-92509294D01*
X206200757Y-92510716D01*
X206195776Y-92513039D01*
X206195775Y-92513039D01*
X205998238Y-92605151D01*
X205998233Y-92605154D01*
X205993251Y-92607477D01*
X205955004Y-92634258D01*
X205810211Y-92735643D01*
X205810208Y-92735645D01*
X205805700Y-92738802D01*
X205643802Y-92900700D01*
X205512477Y-93088251D01*
X205510154Y-93093233D01*
X205510151Y-93093238D01*
X205494195Y-93127457D01*
X205447278Y-93180742D01*
X205379001Y-93200203D01*
X205311041Y-93179661D01*
X205265805Y-93127457D01*
X205249849Y-93093238D01*
X205249846Y-93093233D01*
X205247523Y-93088251D01*
X205116198Y-92900700D01*
X204954300Y-92738802D01*
X204949792Y-92735645D01*
X204949789Y-92735643D01*
X204804996Y-92634258D01*
X204766749Y-92607477D01*
X204761767Y-92605154D01*
X204761762Y-92605151D01*
X204564225Y-92513039D01*
X204564224Y-92513039D01*
X204559243Y-92510716D01*
X204553935Y-92509294D01*
X204553933Y-92509293D01*
X204343402Y-92452881D01*
X204343400Y-92452881D01*
X204338087Y-92451457D01*
X204110000Y-92431502D01*
X203881913Y-92451457D01*
X203876600Y-92452881D01*
X203876598Y-92452881D01*
X203666067Y-92509293D01*
X203666065Y-92509294D01*
X203660757Y-92510716D01*
X203655776Y-92513039D01*
X203655775Y-92513039D01*
X203458238Y-92605151D01*
X203458233Y-92605154D01*
X203453251Y-92607477D01*
X203415004Y-92634258D01*
X203270211Y-92735643D01*
X203270208Y-92735645D01*
X203265700Y-92738802D01*
X203103802Y-92900700D01*
X202972477Y-93088251D01*
X202970153Y-93093236D01*
X202970149Y-93093242D01*
X202902299Y-93238749D01*
X202855382Y-93292035D01*
X202788104Y-93311500D01*
X191098584Y-93311500D01*
X191030463Y-93291498D01*
X191009489Y-93274595D01*
X190327695Y-92592801D01*
X190293669Y-92530489D01*
X190298734Y-92459674D01*
X190341281Y-92402838D01*
X190361358Y-92390554D01*
X190394507Y-92374315D01*
X190394510Y-92374313D01*
X190399142Y-92372044D01*
X190581008Y-92242321D01*
X190739244Y-92084637D01*
X190869601Y-91903225D01*
X190871894Y-91898585D01*
X190873594Y-91895756D01*
X190925822Y-91847666D01*
X190981599Y-91834648D01*
X196615085Y-91834648D01*
X196626268Y-91835175D01*
X196633761Y-91836850D01*
X196641687Y-91836601D01*
X196641688Y-91836601D01*
X196701838Y-91834710D01*
X196705797Y-91834648D01*
X196733708Y-91834648D01*
X196737643Y-91834151D01*
X196737708Y-91834143D01*
X196749545Y-91833210D01*
X196781803Y-91832196D01*
X196785822Y-91832070D01*
X196793741Y-91831821D01*
X196813195Y-91826169D01*
X196832552Y-91822161D01*
X196844782Y-91820616D01*
X196844783Y-91820616D01*
X196852649Y-91819622D01*
X196860020Y-91816703D01*
X196860022Y-91816703D01*
X196893764Y-91803344D01*
X196904994Y-91799499D01*
X196939835Y-91789377D01*
X196939836Y-91789377D01*
X196947445Y-91787166D01*
X196954264Y-91783133D01*
X196954269Y-91783131D01*
X196964880Y-91776855D01*
X196982628Y-91768160D01*
X197001469Y-91760700D01*
X197037239Y-91734712D01*
X197047159Y-91728196D01*
X197078387Y-91709728D01*
X197078390Y-91709726D01*
X197085214Y-91705690D01*
X197099535Y-91691369D01*
X197114569Y-91678528D01*
X197124546Y-91671279D01*
X197130959Y-91666620D01*
X197159150Y-91632543D01*
X197167140Y-91623764D01*
X216239019Y-72551885D01*
X216301331Y-72517859D01*
X216360216Y-72521305D01*
X216360757Y-72519284D01*
X216576598Y-72577119D01*
X216576600Y-72577119D01*
X216581913Y-72578543D01*
X216810000Y-72598498D01*
X217038087Y-72578543D01*
X217043400Y-72577119D01*
X217043402Y-72577119D01*
X217253933Y-72520707D01*
X217253935Y-72520706D01*
X217259243Y-72519284D01*
X217265235Y-72516490D01*
X217461762Y-72424849D01*
X217461767Y-72424846D01*
X217466749Y-72422523D01*
X217608471Y-72323288D01*
X217649789Y-72294357D01*
X217649792Y-72294355D01*
X217654300Y-72291198D01*
X217816198Y-72129300D01*
X217947523Y-71941749D01*
X217949846Y-71936767D01*
X217949849Y-71936762D01*
X217965805Y-71902543D01*
X218012722Y-71849258D01*
X218080999Y-71829797D01*
X218148959Y-71850339D01*
X218194195Y-71902543D01*
X218210151Y-71936762D01*
X218210154Y-71936767D01*
X218212477Y-71941749D01*
X218343802Y-72129300D01*
X218505700Y-72291198D01*
X218510208Y-72294355D01*
X218510211Y-72294357D01*
X218551529Y-72323288D01*
X218693251Y-72422523D01*
X218698233Y-72424846D01*
X218698238Y-72424849D01*
X218894765Y-72516490D01*
X218900757Y-72519284D01*
X218906065Y-72520706D01*
X218906067Y-72520707D01*
X219116598Y-72577119D01*
X219116600Y-72577119D01*
X219121913Y-72578543D01*
X219350000Y-72598498D01*
X219578087Y-72578543D01*
X219583400Y-72577119D01*
X219583402Y-72577119D01*
X219793933Y-72520707D01*
X219793935Y-72520706D01*
X219799243Y-72519284D01*
X219805235Y-72516490D01*
X220001762Y-72424849D01*
X220001767Y-72424846D01*
X220006749Y-72422523D01*
X220148471Y-72323288D01*
X220189789Y-72294357D01*
X220189792Y-72294355D01*
X220194300Y-72291198D01*
X220356198Y-72129300D01*
X220487523Y-71941749D01*
X220489846Y-71936767D01*
X220489849Y-71936762D01*
X220505805Y-71902543D01*
X220552722Y-71849258D01*
X220620999Y-71829797D01*
X220688959Y-71850339D01*
X220734195Y-71902543D01*
X220750151Y-71936762D01*
X220750154Y-71936767D01*
X220752477Y-71941749D01*
X220883802Y-72129300D01*
X221045700Y-72291198D01*
X221050208Y-72294355D01*
X221050211Y-72294357D01*
X221091529Y-72323288D01*
X221233251Y-72422523D01*
X221238233Y-72424846D01*
X221238238Y-72424849D01*
X221434765Y-72516490D01*
X221440757Y-72519284D01*
X221446065Y-72520706D01*
X221446067Y-72520707D01*
X221656598Y-72577119D01*
X221656600Y-72577119D01*
X221661913Y-72578543D01*
X221890000Y-72598498D01*
X222118087Y-72578543D01*
X222123400Y-72577119D01*
X222123402Y-72577119D01*
X222333933Y-72520707D01*
X222333935Y-72520706D01*
X222339243Y-72519284D01*
X222345235Y-72516490D01*
X222541762Y-72424849D01*
X222541767Y-72424846D01*
X222546749Y-72422523D01*
X222688471Y-72323288D01*
X222729789Y-72294357D01*
X222729792Y-72294355D01*
X222734300Y-72291198D01*
X222896198Y-72129300D01*
X223027523Y-71941749D01*
X223029846Y-71936767D01*
X223029849Y-71936762D01*
X223121961Y-71739225D01*
X223121961Y-71739224D01*
X223124284Y-71734243D01*
X223128503Y-71718500D01*
X223182119Y-71518402D01*
X223182119Y-71518400D01*
X223183543Y-71513087D01*
X223198500Y-71342127D01*
X223198500Y-70827873D01*
X223183543Y-70656913D01*
X223135281Y-70476797D01*
X223125707Y-70441067D01*
X223125706Y-70441065D01*
X223124284Y-70435757D01*
X223096371Y-70375897D01*
X223029849Y-70233238D01*
X223029846Y-70233233D01*
X223027523Y-70228251D01*
X222896198Y-70040700D01*
X222734300Y-69878802D01*
X222729792Y-69875645D01*
X222729789Y-69875643D01*
X222606918Y-69789608D01*
X222546749Y-69747477D01*
X222541767Y-69745154D01*
X222541762Y-69745151D01*
X222344225Y-69653039D01*
X222344224Y-69653039D01*
X222339243Y-69650716D01*
X222333935Y-69649294D01*
X222333933Y-69649293D01*
X222123402Y-69592881D01*
X222123400Y-69592881D01*
X222118087Y-69591457D01*
X221890000Y-69571502D01*
X221661913Y-69591457D01*
X221656600Y-69592881D01*
X221656598Y-69592881D01*
X221446067Y-69649293D01*
X221446065Y-69649294D01*
X221440757Y-69650716D01*
X221435776Y-69653039D01*
X221435775Y-69653039D01*
X221238238Y-69745151D01*
X221238233Y-69745154D01*
X221233251Y-69747477D01*
X221173082Y-69789608D01*
X221050211Y-69875643D01*
X221050208Y-69875645D01*
X221045700Y-69878802D01*
X220883802Y-70040700D01*
X220752477Y-70228251D01*
X220750154Y-70233233D01*
X220750151Y-70233238D01*
X220734195Y-70267457D01*
X220687278Y-70320742D01*
X220619001Y-70340203D01*
X220551041Y-70319661D01*
X220505805Y-70267457D01*
X220489849Y-70233238D01*
X220489846Y-70233233D01*
X220487523Y-70228251D01*
X220356198Y-70040700D01*
X220194300Y-69878802D01*
X220189792Y-69875645D01*
X220189789Y-69875643D01*
X220066918Y-69789608D01*
X220006749Y-69747477D01*
X220001767Y-69745154D01*
X220001762Y-69745151D01*
X219804225Y-69653039D01*
X219804224Y-69653039D01*
X219799243Y-69650716D01*
X219793935Y-69649294D01*
X219793933Y-69649293D01*
X219583402Y-69592881D01*
X219583400Y-69592881D01*
X219578087Y-69591457D01*
X219350000Y-69571502D01*
X219121913Y-69591457D01*
X219116600Y-69592881D01*
X219116598Y-69592881D01*
X218906067Y-69649293D01*
X218906065Y-69649294D01*
X218900757Y-69650716D01*
X218895776Y-69653039D01*
X218895775Y-69653039D01*
X218698238Y-69745151D01*
X218698233Y-69745154D01*
X218693251Y-69747477D01*
X218633082Y-69789608D01*
X218510211Y-69875643D01*
X218510208Y-69875645D01*
X218505700Y-69878802D01*
X218343802Y-70040700D01*
X218212477Y-70228251D01*
X218210154Y-70233233D01*
X218210151Y-70233238D01*
X218194195Y-70267457D01*
X218147278Y-70320742D01*
X218079001Y-70340203D01*
X218011041Y-70319661D01*
X217965805Y-70267457D01*
X217949849Y-70233238D01*
X217949846Y-70233233D01*
X217947523Y-70228251D01*
X217816198Y-70040700D01*
X217654300Y-69878802D01*
X217649792Y-69875645D01*
X217649789Y-69875643D01*
X217526918Y-69789608D01*
X217466749Y-69747477D01*
X217461767Y-69745154D01*
X217461762Y-69745151D01*
X217264225Y-69653039D01*
X217264224Y-69653039D01*
X217259243Y-69650716D01*
X217253935Y-69649294D01*
X217253933Y-69649293D01*
X217043402Y-69592881D01*
X217043400Y-69592881D01*
X217038087Y-69591457D01*
X216810000Y-69571502D01*
X216581913Y-69591457D01*
X216576600Y-69592881D01*
X216576598Y-69592881D01*
X216366067Y-69649293D01*
X216366065Y-69649294D01*
X216360757Y-69650716D01*
X216355776Y-69653039D01*
X216355775Y-69653039D01*
X216158238Y-69745151D01*
X216158233Y-69745154D01*
X216153251Y-69747477D01*
X216093082Y-69789608D01*
X215970211Y-69875643D01*
X215970208Y-69875645D01*
X215965700Y-69878802D01*
X215803802Y-70040700D01*
X215672477Y-70228251D01*
X215670154Y-70233233D01*
X215670151Y-70233238D01*
X215654195Y-70267457D01*
X215607278Y-70320742D01*
X215539001Y-70340203D01*
X215471041Y-70319661D01*
X215425805Y-70267457D01*
X215409849Y-70233238D01*
X215409846Y-70233233D01*
X215407523Y-70228251D01*
X215276198Y-70040700D01*
X215114300Y-69878802D01*
X215109792Y-69875645D01*
X215109789Y-69875643D01*
X214986918Y-69789608D01*
X214926749Y-69747477D01*
X214921767Y-69745154D01*
X214921762Y-69745151D01*
X214724225Y-69653039D01*
X214724224Y-69653039D01*
X214719243Y-69650716D01*
X214713935Y-69649294D01*
X214713933Y-69649293D01*
X214503402Y-69592881D01*
X214503400Y-69592881D01*
X214498087Y-69591457D01*
X214270000Y-69571502D01*
X214041913Y-69591457D01*
X214036600Y-69592881D01*
X214036598Y-69592881D01*
X213826067Y-69649293D01*
X213826065Y-69649294D01*
X213820757Y-69650716D01*
X213815776Y-69653039D01*
X213815775Y-69653039D01*
X213618238Y-69745151D01*
X213618233Y-69745154D01*
X213613251Y-69747477D01*
X213553082Y-69789608D01*
X213430211Y-69875643D01*
X213430208Y-69875645D01*
X213425700Y-69878802D01*
X213263802Y-70040700D01*
X213132477Y-70228251D01*
X213130154Y-70233233D01*
X213130151Y-70233238D01*
X213114195Y-70267457D01*
X213067278Y-70320742D01*
X212999001Y-70340203D01*
X212931041Y-70319661D01*
X212885805Y-70267457D01*
X212869849Y-70233238D01*
X212869846Y-70233233D01*
X212867523Y-70228251D01*
X212736198Y-70040700D01*
X212574300Y-69878802D01*
X212569792Y-69875645D01*
X212569789Y-69875643D01*
X212446918Y-69789608D01*
X212386749Y-69747477D01*
X212381767Y-69745154D01*
X212381762Y-69745151D01*
X212184225Y-69653039D01*
X212184224Y-69653039D01*
X212179243Y-69650716D01*
X212173935Y-69649294D01*
X212173933Y-69649293D01*
X211963402Y-69592881D01*
X211963400Y-69592881D01*
X211958087Y-69591457D01*
X211730000Y-69571502D01*
X211501913Y-69591457D01*
X211496600Y-69592881D01*
X211496598Y-69592881D01*
X211286067Y-69649293D01*
X211286065Y-69649294D01*
X211280757Y-69650716D01*
X211275776Y-69653039D01*
X211275775Y-69653039D01*
X211078238Y-69745151D01*
X211078233Y-69745154D01*
X211073251Y-69747477D01*
X211013082Y-69789608D01*
X210890211Y-69875643D01*
X210890208Y-69875645D01*
X210885700Y-69878802D01*
X210723802Y-70040700D01*
X210592477Y-70228251D01*
X210590154Y-70233233D01*
X210590151Y-70233238D01*
X210574195Y-70267457D01*
X210527278Y-70320742D01*
X210459001Y-70340203D01*
X210391041Y-70319661D01*
X210345805Y-70267457D01*
X210329849Y-70233238D01*
X210329846Y-70233233D01*
X210327523Y-70228251D01*
X210196198Y-70040700D01*
X210034300Y-69878802D01*
X210029792Y-69875645D01*
X210029789Y-69875643D01*
X209906918Y-69789608D01*
X209846749Y-69747477D01*
X209841767Y-69745154D01*
X209841762Y-69745151D01*
X209644225Y-69653039D01*
X209644224Y-69653039D01*
X209639243Y-69650716D01*
X209633935Y-69649294D01*
X209633933Y-69649293D01*
X209423402Y-69592881D01*
X209423400Y-69592881D01*
X209418087Y-69591457D01*
X209190000Y-69571502D01*
X208961913Y-69591457D01*
X208956600Y-69592881D01*
X208956598Y-69592881D01*
X208746067Y-69649293D01*
X208746065Y-69649294D01*
X208740757Y-69650716D01*
X208735776Y-69653039D01*
X208735775Y-69653039D01*
X208538238Y-69745151D01*
X208538233Y-69745154D01*
X208533251Y-69747477D01*
X208473082Y-69789608D01*
X208350211Y-69875643D01*
X208350208Y-69875645D01*
X208345700Y-69878802D01*
X208183802Y-70040700D01*
X208052477Y-70228251D01*
X208050154Y-70233233D01*
X208050151Y-70233238D01*
X208033919Y-70268049D01*
X207987002Y-70321334D01*
X207918725Y-70340795D01*
X207850765Y-70320253D01*
X207805529Y-70268049D01*
X207789414Y-70233489D01*
X207783931Y-70223993D01*
X207658972Y-70045533D01*
X207651916Y-70037125D01*
X207497875Y-69883084D01*
X207489467Y-69876028D01*
X207311007Y-69751069D01*
X207301511Y-69745586D01*
X207104053Y-69653510D01*
X207093761Y-69649764D01*
X206921497Y-69603606D01*
X206907401Y-69603942D01*
X206904000Y-69611884D01*
X206904000Y-72552967D01*
X206907973Y-72566498D01*
X206916522Y-72567727D01*
X207093761Y-72520236D01*
X207104053Y-72516490D01*
X207301511Y-72424414D01*
X207311007Y-72418931D01*
X207489467Y-72293972D01*
X207497875Y-72286916D01*
X207651916Y-72132875D01*
X207658972Y-72124467D01*
X207783931Y-71946007D01*
X207789414Y-71936511D01*
X207805529Y-71901951D01*
X207852446Y-71848666D01*
X207920723Y-71829205D01*
X207988683Y-71849747D01*
X208033919Y-71901951D01*
X208050151Y-71936762D01*
X208050154Y-71936767D01*
X208052477Y-71941749D01*
X208183802Y-72129300D01*
X208345700Y-72291198D01*
X208350208Y-72294355D01*
X208350211Y-72294357D01*
X208391529Y-72323288D01*
X208533251Y-72422523D01*
X208538233Y-72424846D01*
X208538238Y-72424849D01*
X208734765Y-72516490D01*
X208740757Y-72519284D01*
X208746065Y-72520706D01*
X208746067Y-72520707D01*
X208956598Y-72577119D01*
X208956600Y-72577119D01*
X208961913Y-72578543D01*
X209190000Y-72598498D01*
X209418087Y-72578543D01*
X209423400Y-72577119D01*
X209423402Y-72577119D01*
X209633933Y-72520707D01*
X209633935Y-72520706D01*
X209639243Y-72519284D01*
X209645235Y-72516490D01*
X209841762Y-72424849D01*
X209841767Y-72424846D01*
X209846749Y-72422523D01*
X209988471Y-72323288D01*
X210029789Y-72294357D01*
X210029792Y-72294355D01*
X210034300Y-72291198D01*
X210196198Y-72129300D01*
X210327523Y-71941749D01*
X210329846Y-71936767D01*
X210329849Y-71936762D01*
X210345805Y-71902543D01*
X210392722Y-71849258D01*
X210460999Y-71829797D01*
X210528959Y-71850339D01*
X210574195Y-71902543D01*
X210590151Y-71936762D01*
X210590154Y-71936767D01*
X210592477Y-71941749D01*
X210723802Y-72129300D01*
X210885700Y-72291198D01*
X210890208Y-72294355D01*
X210890211Y-72294357D01*
X210931529Y-72323288D01*
X211073251Y-72422523D01*
X211078233Y-72424846D01*
X211078238Y-72424849D01*
X211274765Y-72516490D01*
X211280757Y-72519284D01*
X211286065Y-72520706D01*
X211286067Y-72520707D01*
X211496598Y-72577119D01*
X211496600Y-72577119D01*
X211501913Y-72578543D01*
X211507389Y-72579022D01*
X211507394Y-72579023D01*
X211542878Y-72582127D01*
X211580912Y-72585455D01*
X211647029Y-72611317D01*
X211688669Y-72668820D01*
X211692610Y-72739707D01*
X211659025Y-72800070D01*
X195724404Y-88734691D01*
X195662092Y-88768717D01*
X195635309Y-88771596D01*
X189181901Y-88771596D01*
X189113780Y-88751594D01*
X189076109Y-88714036D01*
X188987918Y-88577713D01*
X188987916Y-88577710D01*
X188985110Y-88573373D01*
X188834766Y-88408147D01*
X188830715Y-88404948D01*
X188830711Y-88404944D01*
X188663510Y-88272896D01*
X188663506Y-88272894D01*
X188659455Y-88269694D01*
X188463885Y-88161734D01*
X188459016Y-88160010D01*
X188459012Y-88160008D01*
X188258183Y-88088891D01*
X188258179Y-88088890D01*
X188253308Y-88087165D01*
X188248215Y-88086258D01*
X188248212Y-88086257D01*
X188038469Y-88048896D01*
X188038463Y-88048895D01*
X188033380Y-88047990D01*
X187959548Y-88047088D01*
X187815177Y-88045324D01*
X187815175Y-88045324D01*
X187810007Y-88045261D01*
X187678191Y-88065432D01*
X187594302Y-88078268D01*
X187594298Y-88078269D01*
X187589187Y-88079051D01*
X187584269Y-88080659D01*
X187583738Y-88080785D01*
X187512836Y-88077114D01*
X187455175Y-88035693D01*
X187429060Y-87969674D01*
X187433979Y-87921590D01*
X187441415Y-87897114D01*
X187470574Y-87675635D01*
X187472201Y-87609045D01*
X187453897Y-87386406D01*
X187399476Y-87169747D01*
X187310399Y-86964885D01*
X187189059Y-86777322D01*
X187038715Y-86612096D01*
X187034664Y-86608897D01*
X187034660Y-86608893D01*
X186867459Y-86476845D01*
X186867455Y-86476843D01*
X186863404Y-86473643D01*
X186667834Y-86365683D01*
X186662965Y-86363959D01*
X186662961Y-86363957D01*
X186462132Y-86292840D01*
X186462128Y-86292839D01*
X186457257Y-86291114D01*
X186452164Y-86290207D01*
X186452161Y-86290206D01*
X186242418Y-86252845D01*
X186242412Y-86252844D01*
X186237329Y-86251939D01*
X186068682Y-86249879D01*
X186000812Y-86229046D01*
X185954978Y-86174826D01*
X185945733Y-86104434D01*
X185955521Y-86071738D01*
X186003955Y-85965211D01*
X186008943Y-85948153D01*
X186027026Y-85821883D01*
X186027026Y-85804105D01*
X186008943Y-85677835D01*
X186003956Y-85660780D01*
X185950710Y-85543671D01*
X185942493Y-85530327D01*
X185910430Y-85490450D01*
X185905874Y-85485372D01*
X185465662Y-85045160D01*
X185451718Y-85037546D01*
X185449885Y-85037677D01*
X185443270Y-85041928D01*
X183545161Y-86940037D01*
X183537547Y-86953981D01*
X183537678Y-86955814D01*
X183541929Y-86962429D01*
X183985368Y-87405868D01*
X183990452Y-87410430D01*
X184030325Y-87442490D01*
X184043675Y-87450712D01*
X184160780Y-87503956D01*
X184177835Y-87508943D01*
X184304105Y-87527026D01*
X184321883Y-87527026D01*
X184448153Y-87508943D01*
X184465209Y-87503956D01*
X184568631Y-87456933D01*
X184638922Y-87446947D01*
X184703454Y-87476548D01*
X184741737Y-87536338D01*
X184746559Y-87573280D01*
X184746296Y-87575740D01*
X184759155Y-87798760D01*
X184760292Y-87803806D01*
X184760293Y-87803812D01*
X184780164Y-87891984D01*
X184808267Y-88016684D01*
X184892311Y-88223661D01*
X184899828Y-88235928D01*
X185005364Y-88408147D01*
X185009032Y-88414133D01*
X185155295Y-88582983D01*
X185287922Y-88693092D01*
X185310418Y-88711768D01*
X185327171Y-88725677D01*
X185331638Y-88728287D01*
X185413115Y-88775898D01*
X185461839Y-88827536D01*
X185475545Y-88884686D01*
X185475545Y-88955460D01*
X185455543Y-89023581D01*
X185438640Y-89044556D01*
X184963599Y-89519596D01*
X184901287Y-89553621D01*
X184874504Y-89556500D01*
X177219394Y-89556500D01*
X177151273Y-89536498D01*
X177116181Y-89502771D01*
X177009357Y-89350211D01*
X177009355Y-89350208D01*
X177006198Y-89345700D01*
X176844300Y-89183802D01*
X176839792Y-89180645D01*
X176839789Y-89180643D01*
X176746392Y-89115246D01*
X176656749Y-89052477D01*
X176651767Y-89050154D01*
X176651762Y-89050151D01*
X176454225Y-88958039D01*
X176454224Y-88958039D01*
X176449243Y-88955716D01*
X176443935Y-88954294D01*
X176443933Y-88954293D01*
X176233402Y-88897881D01*
X176233400Y-88897881D01*
X176228087Y-88896457D01*
X176000000Y-88876502D01*
X175771913Y-88896457D01*
X175766600Y-88897881D01*
X175766598Y-88897881D01*
X175556067Y-88954293D01*
X175556065Y-88954294D01*
X175550757Y-88955716D01*
X175545776Y-88958039D01*
X175545775Y-88958039D01*
X175348238Y-89050151D01*
X175348233Y-89050154D01*
X175343251Y-89052477D01*
X175253608Y-89115246D01*
X175160211Y-89180643D01*
X175160208Y-89180645D01*
X175155700Y-89183802D01*
X174993802Y-89345700D01*
X174990645Y-89350208D01*
X174990643Y-89350211D01*
X174883819Y-89502771D01*
X174828362Y-89547099D01*
X174780606Y-89556500D01*
X174219394Y-89556500D01*
X174151273Y-89536498D01*
X174116181Y-89502771D01*
X174009357Y-89350211D01*
X174009355Y-89350208D01*
X174006198Y-89345700D01*
X173844300Y-89183802D01*
X173839792Y-89180645D01*
X173839789Y-89180643D01*
X173746392Y-89115246D01*
X173656749Y-89052477D01*
X173651767Y-89050154D01*
X173651762Y-89050151D01*
X173454225Y-88958039D01*
X173454224Y-88958039D01*
X173449243Y-88955716D01*
X173443935Y-88954294D01*
X173443933Y-88954293D01*
X173233402Y-88897881D01*
X173233400Y-88897881D01*
X173228087Y-88896457D01*
X173000000Y-88876502D01*
X172771913Y-88896457D01*
X172766600Y-88897881D01*
X172766598Y-88897881D01*
X172556067Y-88954293D01*
X172556065Y-88954294D01*
X172550757Y-88955716D01*
X172545776Y-88958039D01*
X172545775Y-88958039D01*
X172348238Y-89050151D01*
X172348233Y-89050154D01*
X172343251Y-89052477D01*
X172253608Y-89115246D01*
X172160211Y-89180643D01*
X172160208Y-89180645D01*
X172155700Y-89183802D01*
X172046111Y-89293391D01*
X171983803Y-89327414D01*
X171912987Y-89322350D01*
X171867924Y-89293389D01*
X171120894Y-88546359D01*
X171086868Y-88484047D01*
X171083989Y-88457264D01*
X171083989Y-88359500D01*
X171103991Y-88291379D01*
X171157647Y-88244886D01*
X171209989Y-88233500D01*
X172523134Y-88233500D01*
X172585316Y-88226745D01*
X172721705Y-88175615D01*
X172838261Y-88088261D01*
X172925615Y-87971705D01*
X172976745Y-87835316D01*
X172983500Y-87773134D01*
X172983500Y-85976866D01*
X172976745Y-85914684D01*
X172941955Y-85821883D01*
X182598962Y-85821883D01*
X182617045Y-85948153D01*
X182622032Y-85965208D01*
X182675278Y-86082317D01*
X182683495Y-86095661D01*
X182715558Y-86135538D01*
X182720114Y-86140616D01*
X183160326Y-86580828D01*
X183174270Y-86588442D01*
X183176103Y-86588311D01*
X183182718Y-86584060D01*
X183940972Y-85825806D01*
X183948586Y-85811862D01*
X183948455Y-85810029D01*
X183944204Y-85803414D01*
X183185951Y-85045161D01*
X183172007Y-85037547D01*
X183170174Y-85037678D01*
X183163559Y-85041929D01*
X182720120Y-85485368D01*
X182715558Y-85490452D01*
X182683498Y-85530325D01*
X182675276Y-85543675D01*
X182622032Y-85660780D01*
X182617045Y-85677835D01*
X182598962Y-85804105D01*
X182598962Y-85821883D01*
X172941955Y-85821883D01*
X172925615Y-85778295D01*
X172838261Y-85661739D01*
X172721705Y-85574385D01*
X172709132Y-85569672D01*
X172603203Y-85529960D01*
X172546439Y-85487318D01*
X172521739Y-85420756D01*
X172536947Y-85351408D01*
X172558493Y-85322727D01*
X172659435Y-85222137D01*
X172663096Y-85218489D01*
X172793453Y-85037077D01*
X172892430Y-84836811D01*
X172941814Y-84674270D01*
X183537546Y-84674270D01*
X183537677Y-84676103D01*
X183541928Y-84682718D01*
X184300182Y-85440972D01*
X184314126Y-85448586D01*
X184315959Y-85448455D01*
X184322574Y-85444204D01*
X185080827Y-84685951D01*
X185088441Y-84672007D01*
X185088310Y-84670174D01*
X185084059Y-84663559D01*
X184640620Y-84220120D01*
X184635536Y-84215558D01*
X184595663Y-84183498D01*
X184582313Y-84175276D01*
X184465208Y-84122032D01*
X184448153Y-84117045D01*
X184321883Y-84098962D01*
X184304105Y-84098962D01*
X184177835Y-84117045D01*
X184160780Y-84122032D01*
X184043671Y-84175278D01*
X184030327Y-84183495D01*
X183990450Y-84215558D01*
X183985372Y-84220114D01*
X183545160Y-84660326D01*
X183537546Y-84674270D01*
X172941814Y-84674270D01*
X172955865Y-84628023D01*
X172955865Y-84628021D01*
X172957370Y-84623069D01*
X172986529Y-84401590D01*
X172988156Y-84335000D01*
X172969852Y-84112361D01*
X172915431Y-83895702D01*
X172826354Y-83690840D01*
X172705014Y-83503277D01*
X172554670Y-83338051D01*
X172550619Y-83334852D01*
X172550615Y-83334848D01*
X172383414Y-83202800D01*
X172383410Y-83202798D01*
X172379359Y-83199598D01*
X172338053Y-83176796D01*
X172288084Y-83126364D01*
X172273312Y-83056921D01*
X172298428Y-82990516D01*
X172325780Y-82963909D01*
X172369603Y-82932650D01*
X172504860Y-82836173D01*
X172663096Y-82678489D01*
X172793453Y-82497077D01*
X172892430Y-82296811D01*
X172957370Y-82083069D01*
X172986529Y-81861590D01*
X172988156Y-81795000D01*
X172969852Y-81572361D01*
X172915431Y-81355702D01*
X172826354Y-81150840D01*
X172705014Y-80963277D01*
X172554670Y-80798051D01*
X172550619Y-80794852D01*
X172550615Y-80794848D01*
X172383414Y-80662800D01*
X172383410Y-80662798D01*
X172379359Y-80659598D01*
X172338053Y-80636796D01*
X172288084Y-80586364D01*
X172273312Y-80516921D01*
X172298428Y-80450516D01*
X172325780Y-80423909D01*
X172369603Y-80392650D01*
X172504860Y-80296173D01*
X172663096Y-80138489D01*
X172671787Y-80126395D01*
X172790435Y-79961277D01*
X172793453Y-79957077D01*
X172892430Y-79756811D01*
X172957370Y-79543069D01*
X172986529Y-79321590D01*
X172988156Y-79255000D01*
X172969852Y-79032361D01*
X172915431Y-78815702D01*
X172826354Y-78610840D01*
X172705014Y-78423277D01*
X172554670Y-78258051D01*
X172550619Y-78254852D01*
X172550615Y-78254848D01*
X172383414Y-78122800D01*
X172383410Y-78122798D01*
X172379359Y-78119598D01*
X172338053Y-78096796D01*
X172288084Y-78046364D01*
X172273312Y-77976921D01*
X172298428Y-77910516D01*
X172325780Y-77883909D01*
X172379427Y-77845643D01*
X172504860Y-77756173D01*
X172663096Y-77598489D01*
X172793453Y-77417077D01*
X172892430Y-77216811D01*
X172957370Y-77003069D01*
X172986529Y-76781590D01*
X172988156Y-76715000D01*
X172969852Y-76492361D01*
X172915431Y-76275702D01*
X172826354Y-76070840D01*
X172705014Y-75883277D01*
X172554670Y-75718051D01*
X172550619Y-75714852D01*
X172550615Y-75714848D01*
X172383414Y-75582800D01*
X172383410Y-75582798D01*
X172379359Y-75579598D01*
X172337569Y-75556529D01*
X172287598Y-75506097D01*
X172272826Y-75436654D01*
X172297942Y-75370248D01*
X172325294Y-75343641D01*
X172500328Y-75218792D01*
X172508200Y-75212139D01*
X172659052Y-75061812D01*
X172665730Y-75053965D01*
X172790003Y-74881020D01*
X172795313Y-74872183D01*
X172889670Y-74681267D01*
X172893469Y-74671672D01*
X172955377Y-74467910D01*
X172957555Y-74457837D01*
X172958986Y-74446962D01*
X172956775Y-74432778D01*
X172943617Y-74429000D01*
X171497000Y-74429000D01*
X171428879Y-74408998D01*
X171382386Y-74355342D01*
X171371000Y-74303000D01*
X171371000Y-74047000D01*
X171391002Y-73978879D01*
X171444658Y-73932386D01*
X171497000Y-73921000D01*
X172943344Y-73921000D01*
X172956875Y-73917027D01*
X172958180Y-73907947D01*
X172916214Y-73740875D01*
X172912894Y-73731124D01*
X172827972Y-73535814D01*
X172823105Y-73526739D01*
X172707426Y-73347926D01*
X172701136Y-73339757D01*
X172557806Y-73182240D01*
X172550273Y-73175215D01*
X172383139Y-73043222D01*
X172374556Y-73037520D01*
X172337602Y-73017120D01*
X172287631Y-72966687D01*
X172272859Y-72897245D01*
X172297975Y-72830839D01*
X172325327Y-72804232D01*
X172374095Y-72769446D01*
X172504860Y-72676173D01*
X172541964Y-72639199D01*
X172659435Y-72522137D01*
X172663096Y-72518489D01*
X172699043Y-72468464D01*
X172790435Y-72341277D01*
X172793453Y-72337077D01*
X172804934Y-72313848D01*
X172890136Y-72141453D01*
X172890137Y-72141451D01*
X172892430Y-72136811D01*
X172957370Y-71923069D01*
X172986529Y-71701590D01*
X172987040Y-71680666D01*
X172988074Y-71638365D01*
X172988074Y-71638361D01*
X172988156Y-71635000D01*
X172969852Y-71412361D01*
X172915431Y-71195702D01*
X172826354Y-70990840D01*
X172786906Y-70929862D01*
X172707822Y-70807617D01*
X172707820Y-70807614D01*
X172705014Y-70803277D01*
X172554670Y-70638051D01*
X172550619Y-70634852D01*
X172550615Y-70634848D01*
X172383414Y-70502800D01*
X172383410Y-70502798D01*
X172379359Y-70499598D01*
X172338053Y-70476796D01*
X172288084Y-70426364D01*
X172273312Y-70356921D01*
X172298428Y-70290516D01*
X172325780Y-70263909D01*
X172382091Y-70223743D01*
X172504860Y-70136173D01*
X172521871Y-70119222D01*
X172659435Y-69982137D01*
X172663096Y-69978489D01*
X172722594Y-69895689D01*
X172790435Y-69801277D01*
X172793453Y-69797077D01*
X172795746Y-69792437D01*
X172797446Y-69789608D01*
X172849674Y-69741518D01*
X172905451Y-69728500D01*
X188590406Y-69728500D01*
X188658527Y-69748502D01*
X188679501Y-69765405D01*
X189548943Y-70634848D01*
X190391348Y-71477253D01*
X190398888Y-71485539D01*
X190403000Y-71492018D01*
X190408777Y-71497443D01*
X190452651Y-71538643D01*
X190455493Y-71541398D01*
X190475230Y-71561135D01*
X190478427Y-71563615D01*
X190487447Y-71571318D01*
X190519679Y-71601586D01*
X190526625Y-71605405D01*
X190526628Y-71605407D01*
X190537434Y-71611348D01*
X190553953Y-71622199D01*
X190569959Y-71634614D01*
X190577228Y-71637759D01*
X190577232Y-71637762D01*
X190610537Y-71652174D01*
X190621187Y-71657391D01*
X190659940Y-71678695D01*
X190667615Y-71680666D01*
X190667616Y-71680666D01*
X190679562Y-71683733D01*
X190698267Y-71690137D01*
X190716855Y-71698181D01*
X190724678Y-71699420D01*
X190724688Y-71699423D01*
X190760524Y-71705099D01*
X190772144Y-71707505D01*
X190807289Y-71716528D01*
X190814970Y-71718500D01*
X190835224Y-71718500D01*
X190854934Y-71720051D01*
X190874943Y-71723220D01*
X190882835Y-71722474D01*
X190918961Y-71719059D01*
X190930819Y-71718500D01*
X202788104Y-71718500D01*
X202856225Y-71738502D01*
X202902299Y-71791251D01*
X202970149Y-71936758D01*
X202970153Y-71936764D01*
X202972477Y-71941749D01*
X203103802Y-72129300D01*
X203265700Y-72291198D01*
X203270208Y-72294355D01*
X203270211Y-72294357D01*
X203311529Y-72323288D01*
X203453251Y-72422523D01*
X203458233Y-72424846D01*
X203458238Y-72424849D01*
X203654765Y-72516490D01*
X203660757Y-72519284D01*
X203666065Y-72520706D01*
X203666067Y-72520707D01*
X203876598Y-72577119D01*
X203876600Y-72577119D01*
X203881913Y-72578543D01*
X204110000Y-72598498D01*
X204338087Y-72578543D01*
X204343400Y-72577119D01*
X204343402Y-72577119D01*
X204553933Y-72520707D01*
X204553935Y-72520706D01*
X204559243Y-72519284D01*
X204565235Y-72516490D01*
X204761762Y-72424849D01*
X204761767Y-72424846D01*
X204766749Y-72422523D01*
X204908471Y-72323288D01*
X204949789Y-72294357D01*
X204949792Y-72294355D01*
X204954300Y-72291198D01*
X205116198Y-72129300D01*
X205247523Y-71941749D01*
X205249846Y-71936767D01*
X205249849Y-71936762D01*
X205266081Y-71901951D01*
X205312998Y-71848666D01*
X205381275Y-71829205D01*
X205449235Y-71849747D01*
X205494471Y-71901951D01*
X205510586Y-71936511D01*
X205516069Y-71946007D01*
X205641028Y-72124467D01*
X205648084Y-72132875D01*
X205802125Y-72286916D01*
X205810533Y-72293972D01*
X205988993Y-72418931D01*
X205998489Y-72424414D01*
X206195947Y-72516490D01*
X206206239Y-72520236D01*
X206378503Y-72566394D01*
X206392599Y-72566058D01*
X206396000Y-72558116D01*
X206396000Y-69617033D01*
X206392027Y-69603502D01*
X206383478Y-69602273D01*
X206206239Y-69649764D01*
X206195947Y-69653510D01*
X205998489Y-69745586D01*
X205988993Y-69751069D01*
X205810533Y-69876028D01*
X205802125Y-69883084D01*
X205648084Y-70037125D01*
X205641028Y-70045533D01*
X205516069Y-70223993D01*
X205510586Y-70233489D01*
X205494471Y-70268049D01*
X205447554Y-70321334D01*
X205379277Y-70340795D01*
X205311317Y-70320253D01*
X205266081Y-70268049D01*
X205249849Y-70233238D01*
X205249846Y-70233233D01*
X205247523Y-70228251D01*
X205116198Y-70040700D01*
X204954300Y-69878802D01*
X204949792Y-69875645D01*
X204949789Y-69875643D01*
X204826918Y-69789608D01*
X204766749Y-69747477D01*
X204761767Y-69745154D01*
X204761762Y-69745151D01*
X204564225Y-69653039D01*
X204564224Y-69653039D01*
X204559243Y-69650716D01*
X204553935Y-69649294D01*
X204553933Y-69649293D01*
X204343402Y-69592881D01*
X204343400Y-69592881D01*
X204338087Y-69591457D01*
X204110000Y-69571502D01*
X203881913Y-69591457D01*
X203876600Y-69592881D01*
X203876598Y-69592881D01*
X203660757Y-69650716D01*
X203660185Y-69648582D01*
X203598151Y-69651406D01*
X203539019Y-69618115D01*
X200670405Y-66749500D01*
X200636379Y-66687188D01*
X200633500Y-66660405D01*
X200633500Y-64384500D01*
X200653502Y-64316379D01*
X200707158Y-64269886D01*
X200759500Y-64258500D01*
X201798134Y-64258500D01*
X201860316Y-64251745D01*
X201996705Y-64200615D01*
X202113261Y-64113261D01*
X202200615Y-63996705D01*
X202251745Y-63860316D01*
X202258500Y-63798134D01*
X202258500Y-60333573D01*
X202278502Y-60265452D01*
X202332158Y-60218959D01*
X202402432Y-60208855D01*
X202467012Y-60238349D01*
X202502327Y-60288932D01*
X202572804Y-60474952D01*
X202691791Y-60677356D01*
X202843181Y-60856819D01*
X203022644Y-61008209D01*
X203225048Y-61127196D01*
X203444607Y-61210380D01*
X203675043Y-61255381D01*
X203679401Y-61255617D01*
X203730948Y-61258409D01*
X203730963Y-61258409D01*
X203732636Y-61258500D01*
X205667364Y-61258500D01*
X205669037Y-61258409D01*
X205669052Y-61258409D01*
X205720599Y-61255617D01*
X205724957Y-61255381D01*
X205955393Y-61210380D01*
X206174952Y-61127196D01*
X206377356Y-61008209D01*
X206556819Y-60856819D01*
X206708209Y-60677356D01*
X206827196Y-60474952D01*
X206910380Y-60255393D01*
X206913709Y-60238349D01*
X206954544Y-60029243D01*
X206955381Y-60024957D01*
X206958500Y-59967364D01*
X206958500Y-58032636D01*
X206957155Y-58007791D01*
X206955617Y-57979401D01*
X206955381Y-57975043D01*
X206910380Y-57744607D01*
X206827196Y-57525048D01*
X206708209Y-57322644D01*
X206556819Y-57143181D01*
X206377356Y-56991791D01*
X206174952Y-56872804D01*
X205955393Y-56789620D01*
X205948445Y-56788263D01*
X205729243Y-56745456D01*
X205724957Y-56744619D01*
X205719227Y-56744309D01*
X205669052Y-56741591D01*
X205669037Y-56741591D01*
X205667364Y-56741500D01*
X203732636Y-56741500D01*
X203730963Y-56741591D01*
X203730948Y-56741591D01*
X203680773Y-56744309D01*
X203675043Y-56744619D01*
X203670757Y-56745456D01*
X203451556Y-56788263D01*
X203444607Y-56789620D01*
X203225048Y-56872804D01*
X203022644Y-56991791D01*
X202843181Y-57143181D01*
X202691791Y-57322644D01*
X202572804Y-57525048D01*
X202489620Y-57744607D01*
X202444619Y-57975043D01*
X202444383Y-57979401D01*
X202442846Y-58007791D01*
X202441500Y-58032636D01*
X202441500Y-59953408D01*
X202421498Y-60021529D01*
X202367842Y-60068022D01*
X202297568Y-60078126D01*
X202232988Y-60048632D01*
X202204981Y-60013918D01*
X202203764Y-60011696D01*
X202200615Y-60003295D01*
X202113261Y-59886739D01*
X201996705Y-59799385D01*
X201860316Y-59748255D01*
X201798134Y-59741500D01*
X198201866Y-59741500D01*
X198139684Y-59748255D01*
X198003295Y-59799385D01*
X197886739Y-59886739D01*
X197799385Y-60003295D01*
X197748255Y-60139684D01*
X197741500Y-60201866D01*
X197741500Y-63798134D01*
X197748255Y-63860316D01*
X197799385Y-63996705D01*
X197886739Y-64113261D01*
X198003295Y-64200615D01*
X198139684Y-64251745D01*
X198201866Y-64258500D01*
X199240500Y-64258500D01*
X199308621Y-64278502D01*
X199355114Y-64332158D01*
X199366500Y-64384500D01*
X199366500Y-66896233D01*
X199365973Y-66907416D01*
X199364298Y-66914909D01*
X199364547Y-66922835D01*
X199364547Y-66922836D01*
X199366438Y-66982986D01*
X199366500Y-66986945D01*
X199366500Y-67014856D01*
X199366997Y-67018790D01*
X199366997Y-67018791D01*
X199367005Y-67018856D01*
X199367938Y-67030693D01*
X199369327Y-67074889D01*
X199374978Y-67094339D01*
X199378987Y-67113700D01*
X199381526Y-67133797D01*
X199384445Y-67141168D01*
X199384445Y-67141170D01*
X199397804Y-67174912D01*
X199401649Y-67186142D01*
X199413982Y-67228593D01*
X199418015Y-67235412D01*
X199418017Y-67235417D01*
X199424293Y-67246028D01*
X199432988Y-67263776D01*
X199440448Y-67282617D01*
X199445110Y-67289033D01*
X199445110Y-67289034D01*
X199466436Y-67318387D01*
X199472952Y-67328307D01*
X199495458Y-67366362D01*
X199509779Y-67380683D01*
X199522619Y-67395716D01*
X199534528Y-67412107D01*
X199540634Y-67417158D01*
X199568605Y-67440298D01*
X199577384Y-67448288D01*
X202365500Y-70236405D01*
X202399526Y-70298717D01*
X202394461Y-70369533D01*
X202351914Y-70426368D01*
X202285394Y-70451179D01*
X202276405Y-70451500D01*
X191209594Y-70451500D01*
X191141473Y-70431498D01*
X191120499Y-70414595D01*
X190277886Y-69571981D01*
X189408652Y-68702747D01*
X189401112Y-68694461D01*
X189397000Y-68687982D01*
X189347348Y-68641356D01*
X189344507Y-68638602D01*
X189324770Y-68618865D01*
X189321573Y-68616385D01*
X189312551Y-68608680D01*
X189286100Y-68583841D01*
X189280321Y-68578414D01*
X189273375Y-68574595D01*
X189273372Y-68574593D01*
X189262566Y-68568652D01*
X189246047Y-68557801D01*
X189245583Y-68557441D01*
X189230041Y-68545386D01*
X189222772Y-68542241D01*
X189222768Y-68542238D01*
X189189463Y-68527826D01*
X189178813Y-68522609D01*
X189140060Y-68501305D01*
X189120437Y-68496267D01*
X189101734Y-68489863D01*
X189090420Y-68484967D01*
X189090419Y-68484967D01*
X189083145Y-68481819D01*
X189075322Y-68480580D01*
X189075312Y-68480577D01*
X189039476Y-68474901D01*
X189027856Y-68472495D01*
X188992711Y-68463472D01*
X188992710Y-68463472D01*
X188985030Y-68461500D01*
X188964776Y-68461500D01*
X188945065Y-68459949D01*
X188932886Y-68458020D01*
X188925057Y-68456780D01*
X188917165Y-68457526D01*
X188881039Y-68460941D01*
X188869181Y-68461500D01*
X172901805Y-68461500D01*
X172833684Y-68441498D01*
X172796013Y-68403940D01*
X172707822Y-68267617D01*
X172707820Y-68267614D01*
X172705014Y-68263277D01*
X172554670Y-68098051D01*
X172550619Y-68094852D01*
X172550615Y-68094848D01*
X172383414Y-67962800D01*
X172383410Y-67962798D01*
X172379359Y-67959598D01*
X172183789Y-67851638D01*
X172178920Y-67849914D01*
X172178916Y-67849912D01*
X171978087Y-67778795D01*
X171978083Y-67778794D01*
X171973212Y-67777069D01*
X171968119Y-67776162D01*
X171968116Y-67776161D01*
X171758373Y-67738800D01*
X171758367Y-67738799D01*
X171753284Y-67737894D01*
X171679452Y-67736992D01*
X171535081Y-67735228D01*
X171535079Y-67735228D01*
X171529911Y-67735165D01*
X171309091Y-67768955D01*
X171096756Y-67838357D01*
X170898607Y-67941507D01*
X170894474Y-67944610D01*
X170894471Y-67944612D01*
X170724100Y-68072530D01*
X170719965Y-68075635D01*
X170565629Y-68237138D01*
X170439743Y-68421680D01*
X170401011Y-68505121D01*
X170364471Y-68583841D01*
X170345688Y-68624305D01*
X170285989Y-68839570D01*
X170262251Y-69061695D01*
X170275110Y-69284715D01*
X170276247Y-69289761D01*
X170276248Y-69289767D01*
X170300304Y-69396508D01*
X170324222Y-69502639D01*
X170408266Y-69709616D01*
X170524987Y-69900088D01*
X170671250Y-70068938D01*
X170843126Y-70211632D01*
X170880530Y-70233489D01*
X170916445Y-70254476D01*
X170965169Y-70306114D01*
X170978240Y-70375897D01*
X170951509Y-70441669D01*
X170911055Y-70475027D01*
X170898607Y-70481507D01*
X170894474Y-70484610D01*
X170894471Y-70484612D01*
X170870247Y-70502800D01*
X170719965Y-70615635D01*
X170565629Y-70777138D01*
X170439743Y-70961680D01*
X170345688Y-71164305D01*
X170285989Y-71379570D01*
X170262251Y-71601695D01*
X170262548Y-71606848D01*
X170262548Y-71606851D01*
X170274812Y-71819547D01*
X170275110Y-71824715D01*
X170276247Y-71829761D01*
X170276248Y-71829767D01*
X170308453Y-71972668D01*
X170303917Y-72043520D01*
X170274631Y-72089464D01*
X170058236Y-72305859D01*
X170049950Y-72313399D01*
X170043471Y-72317511D01*
X170038046Y-72323288D01*
X169996846Y-72367162D01*
X169994091Y-72370004D01*
X169974354Y-72389741D01*
X169971874Y-72392938D01*
X169964171Y-72401958D01*
X169933903Y-72434190D01*
X169930084Y-72441136D01*
X169930082Y-72441139D01*
X169924141Y-72451945D01*
X169913290Y-72468464D01*
X169900875Y-72484470D01*
X169897730Y-72491739D01*
X169897727Y-72491743D01*
X169883315Y-72525048D01*
X169878098Y-72535698D01*
X169856794Y-72574451D01*
X169854823Y-72582126D01*
X169854823Y-72582127D01*
X169851756Y-72594073D01*
X169845352Y-72612777D01*
X169837308Y-72631366D01*
X169836069Y-72639189D01*
X169836066Y-72639199D01*
X169830390Y-72675035D01*
X169827984Y-72686655D01*
X169816989Y-72729481D01*
X169816989Y-72749735D01*
X169815438Y-72769445D01*
X169812269Y-72789454D01*
X169813015Y-72797346D01*
X169816430Y-72833472D01*
X169816989Y-72845330D01*
X169816989Y-88693092D01*
X169816462Y-88704275D01*
X169814787Y-88711768D01*
X169815036Y-88719694D01*
X169815036Y-88719695D01*
X169816927Y-88779845D01*
X169816989Y-88783804D01*
X169816989Y-88811715D01*
X169817486Y-88815649D01*
X169817486Y-88815650D01*
X169817494Y-88815715D01*
X169818427Y-88827552D01*
X169819816Y-88871748D01*
X169823575Y-88884686D01*
X169825467Y-88891198D01*
X169829476Y-88910559D01*
X169832015Y-88930656D01*
X169834934Y-88938027D01*
X169834934Y-88938029D01*
X169848293Y-88971771D01*
X169852138Y-88983001D01*
X169864471Y-89025452D01*
X169868504Y-89032271D01*
X169868506Y-89032276D01*
X169874782Y-89042887D01*
X169883477Y-89060635D01*
X169890937Y-89079476D01*
X169895599Y-89085892D01*
X169895599Y-89085893D01*
X169916925Y-89115246D01*
X169923441Y-89125166D01*
X169945947Y-89163221D01*
X169960268Y-89177542D01*
X169973108Y-89192575D01*
X169985017Y-89208966D01*
X169991123Y-89214017D01*
X170019094Y-89237157D01*
X170027873Y-89245147D01*
X171364973Y-90582247D01*
X171372517Y-90590537D01*
X171376630Y-90597018D01*
X171382407Y-90602443D01*
X171426297Y-90643658D01*
X171429139Y-90646413D01*
X171448860Y-90666134D01*
X171452055Y-90668612D01*
X171461077Y-90676318D01*
X171493309Y-90706586D01*
X171500258Y-90710406D01*
X171511062Y-90716346D01*
X171527586Y-90727199D01*
X171543589Y-90739613D01*
X171584173Y-90757176D01*
X171594803Y-90762383D01*
X171633570Y-90783695D01*
X171641247Y-90785666D01*
X171641252Y-90785668D01*
X171653188Y-90788732D01*
X171671896Y-90795137D01*
X171690485Y-90803181D01*
X171698313Y-90804421D01*
X171698320Y-90804423D01*
X171734154Y-90810099D01*
X171745774Y-90812505D01*
X171777589Y-90820673D01*
X171788600Y-90823500D01*
X171795884Y-90823500D01*
X171860697Y-90851765D01*
X171883042Y-90876119D01*
X171993802Y-91034300D01*
X172155700Y-91196198D01*
X172160208Y-91199355D01*
X172160211Y-91199357D01*
X172238389Y-91254098D01*
X172343251Y-91327523D01*
X172348233Y-91329846D01*
X172348238Y-91329849D01*
X172545775Y-91421961D01*
X172550757Y-91424284D01*
X172556065Y-91425706D01*
X172556067Y-91425707D01*
X172766598Y-91482119D01*
X172766600Y-91482119D01*
X172771913Y-91483543D01*
X173000000Y-91503498D01*
X173228087Y-91483543D01*
X173233400Y-91482119D01*
X173233402Y-91482119D01*
X173443933Y-91425707D01*
X173443935Y-91425706D01*
X173449243Y-91424284D01*
X173454225Y-91421961D01*
X173651762Y-91329849D01*
X173651767Y-91329846D01*
X173656749Y-91327523D01*
X173761611Y-91254098D01*
X173839789Y-91199357D01*
X173839792Y-91199355D01*
X173844300Y-91196198D01*
X174006198Y-91034300D01*
X174116181Y-90877229D01*
X174171638Y-90832901D01*
X174219394Y-90823500D01*
X174780606Y-90823500D01*
X174848727Y-90843502D01*
X174883819Y-90877229D01*
X174993802Y-91034300D01*
X175155700Y-91196198D01*
X175160208Y-91199355D01*
X175160211Y-91199357D01*
X175238389Y-91254098D01*
X175343251Y-91327523D01*
X175348233Y-91329846D01*
X175348238Y-91329849D01*
X175545775Y-91421961D01*
X175550757Y-91424284D01*
X175556065Y-91425706D01*
X175556067Y-91425707D01*
X175766598Y-91482119D01*
X175766600Y-91482119D01*
X175771913Y-91483543D01*
X176000000Y-91503498D01*
X176228087Y-91483543D01*
X176233400Y-91482119D01*
X176233402Y-91482119D01*
X176443933Y-91425707D01*
X176443935Y-91425706D01*
X176449243Y-91424284D01*
X176454225Y-91421961D01*
X176651762Y-91329849D01*
X176651767Y-91329846D01*
X176656749Y-91327523D01*
X176761611Y-91254098D01*
X176839789Y-91199357D01*
X176839792Y-91199355D01*
X176844300Y-91196198D01*
X177006198Y-91034300D01*
X177116181Y-90877229D01*
X177171638Y-90832901D01*
X177219394Y-90823500D01*
X185110333Y-90823500D01*
X185121516Y-90824027D01*
X185129009Y-90825702D01*
X185136935Y-90825453D01*
X185136936Y-90825453D01*
X185197086Y-90823562D01*
X185201045Y-90823500D01*
X185228956Y-90823500D01*
X185232891Y-90823003D01*
X185232956Y-90822995D01*
X185244793Y-90822062D01*
X185277051Y-90821048D01*
X185281070Y-90820922D01*
X185288989Y-90820673D01*
X185308443Y-90815021D01*
X185327800Y-90811013D01*
X185340030Y-90809468D01*
X185340031Y-90809468D01*
X185347897Y-90808474D01*
X185355268Y-90805555D01*
X185355270Y-90805555D01*
X185389012Y-90792196D01*
X185400242Y-90788351D01*
X185435083Y-90778229D01*
X185435084Y-90778229D01*
X185442693Y-90776018D01*
X185449512Y-90771985D01*
X185449517Y-90771983D01*
X185460128Y-90765707D01*
X185477876Y-90757012D01*
X185496717Y-90749552D01*
X185517087Y-90734753D01*
X185532487Y-90723564D01*
X185542407Y-90717048D01*
X185573635Y-90698580D01*
X185573638Y-90698578D01*
X185580462Y-90694542D01*
X185594783Y-90680221D01*
X185609817Y-90667380D01*
X185611532Y-90666134D01*
X185626207Y-90655472D01*
X185654398Y-90621395D01*
X185662388Y-90612616D01*
X186019950Y-90255054D01*
X186082262Y-90221028D01*
X186153077Y-90226093D01*
X186198140Y-90255054D01*
X190280333Y-94337247D01*
X190287877Y-94345537D01*
X190291990Y-94352018D01*
X190297767Y-94357443D01*
X190341657Y-94398658D01*
X190344499Y-94401413D01*
X190364221Y-94421135D01*
X190367345Y-94423558D01*
X190367349Y-94423562D01*
X190367414Y-94423612D01*
X190376435Y-94431317D01*
X190408669Y-94461586D01*
X190415617Y-94465405D01*
X190415619Y-94465407D01*
X190426422Y-94471346D01*
X190442949Y-94482202D01*
X190452688Y-94489757D01*
X190452690Y-94489758D01*
X190458950Y-94494614D01*
X190499530Y-94512174D01*
X190510178Y-94517391D01*
X190548930Y-94538695D01*
X190556606Y-94540666D01*
X190556609Y-94540667D01*
X190568552Y-94543733D01*
X190587257Y-94550137D01*
X190605845Y-94558181D01*
X190613668Y-94559420D01*
X190613678Y-94559423D01*
X190649514Y-94565099D01*
X190661134Y-94567505D01*
X190696279Y-94576528D01*
X190703960Y-94578500D01*
X190724214Y-94578500D01*
X190743924Y-94580051D01*
X190763933Y-94583220D01*
X190771825Y-94582474D01*
X190807951Y-94579059D01*
X190819809Y-94578500D01*
X202788104Y-94578500D01*
X202856225Y-94598502D01*
X202902299Y-94651251D01*
X202970149Y-94796758D01*
X202970153Y-94796764D01*
X202972477Y-94801749D01*
X203103802Y-94989300D01*
X203265700Y-95151198D01*
X203270208Y-95154355D01*
X203270211Y-95154357D01*
X203311536Y-95183293D01*
X203453251Y-95282523D01*
X203458233Y-95284846D01*
X203458238Y-95284849D01*
X203582917Y-95342987D01*
X203660757Y-95379284D01*
X203666065Y-95380706D01*
X203666067Y-95380707D01*
X203876598Y-95437119D01*
X203876600Y-95437119D01*
X203881913Y-95438543D01*
X204110000Y-95458498D01*
X204338087Y-95438543D01*
X204343400Y-95437119D01*
X204343402Y-95437119D01*
X204437575Y-95411885D01*
X204559243Y-95379284D01*
X204564228Y-95376959D01*
X204567117Y-95375908D01*
X204637970Y-95371403D01*
X204699309Y-95405213D01*
X206880848Y-97586752D01*
X206914874Y-97649064D01*
X206913459Y-97708459D01*
X206897882Y-97766591D01*
X206897881Y-97766598D01*
X206896457Y-97771913D01*
X206876502Y-98000000D01*
X206896457Y-98228087D01*
X206897881Y-98233400D01*
X206897881Y-98233402D01*
X206937868Y-98382632D01*
X206955716Y-98449243D01*
X206958039Y-98454224D01*
X206958039Y-98454225D01*
X207050151Y-98651762D01*
X207050154Y-98651767D01*
X207052477Y-98656749D01*
X207055634Y-98661257D01*
X207166337Y-98819357D01*
X207183802Y-98844300D01*
X207345700Y-99006198D01*
X207350208Y-99009355D01*
X207350211Y-99009357D01*
X207533251Y-99137523D01*
X207532251Y-99138951D01*
X207575817Y-99184638D01*
X207589256Y-99254351D01*
X207562872Y-99320263D01*
X207552921Y-99331474D01*
X202261907Y-104622488D01*
X202199595Y-104656514D01*
X202172812Y-104659393D01*
X191967856Y-104659393D01*
X191956673Y-104658866D01*
X191949180Y-104657191D01*
X191941254Y-104657440D01*
X191941253Y-104657440D01*
X191881090Y-104659331D01*
X191877132Y-104659393D01*
X191849232Y-104659393D01*
X191845242Y-104659897D01*
X191833408Y-104660829D01*
X191789199Y-104662219D01*
X191781583Y-104664432D01*
X191781581Y-104664432D01*
X191769740Y-104667872D01*
X191750381Y-104671881D01*
X191749071Y-104672047D01*
X191730291Y-104674419D01*
X191722925Y-104677335D01*
X191722919Y-104677337D01*
X191689186Y-104690693D01*
X191677956Y-104694538D01*
X191643105Y-104704663D01*
X191635495Y-104706874D01*
X191628672Y-104710909D01*
X191618054Y-104717188D01*
X191600301Y-104725885D01*
X191592656Y-104728912D01*
X191581471Y-104733341D01*
X191575056Y-104738002D01*
X191545700Y-104759330D01*
X191535783Y-104765844D01*
X191497726Y-104788351D01*
X191483405Y-104802672D01*
X191468372Y-104815512D01*
X191451981Y-104827421D01*
X191450646Y-104825584D01*
X191397572Y-104852431D01*
X191345265Y-104851047D01*
X191130612Y-104799513D01*
X191130606Y-104799512D01*
X191125799Y-104798358D01*
X190889088Y-104779728D01*
X190652377Y-104798358D01*
X190647570Y-104799512D01*
X190647564Y-104799513D01*
X190501697Y-104834533D01*
X190421494Y-104853788D01*
X190416923Y-104855681D01*
X190416921Y-104855682D01*
X190206699Y-104942758D01*
X190206695Y-104942760D01*
X190202125Y-104944653D01*
X190197905Y-104947239D01*
X190003886Y-105066134D01*
X190003880Y-105066138D01*
X189999672Y-105068717D01*
X189819119Y-105222924D01*
X189664912Y-105403477D01*
X189662333Y-105407685D01*
X189662329Y-105407691D01*
X189544955Y-105599228D01*
X189492307Y-105646859D01*
X189437522Y-105659393D01*
X188026215Y-105659393D01*
X187958094Y-105639391D01*
X187937120Y-105622488D01*
X187046570Y-104731938D01*
X187012544Y-104669626D01*
X187017609Y-104598811D01*
X187060156Y-104541975D01*
X187126676Y-104517164D01*
X187183883Y-104526434D01*
X187235095Y-104547647D01*
X187244480Y-104550696D01*
X187465661Y-104603798D01*
X187475408Y-104605341D01*
X187702177Y-104623188D01*
X187712037Y-104623188D01*
X187938806Y-104605341D01*
X187948553Y-104603798D01*
X188169734Y-104550696D01*
X188179119Y-104547647D01*
X188389270Y-104460600D01*
X188398065Y-104456118D01*
X188565552Y-104353481D01*
X188575014Y-104343023D01*
X188571231Y-104334247D01*
X187349029Y-103112045D01*
X188071515Y-103112045D01*
X188071646Y-103113878D01*
X188075897Y-103120493D01*
X188927397Y-103971993D01*
X188939777Y-103978753D01*
X188947427Y-103973026D01*
X189052312Y-103801871D01*
X189056794Y-103793076D01*
X189143841Y-103582925D01*
X189146890Y-103573540D01*
X189199992Y-103352359D01*
X189201535Y-103342612D01*
X189219382Y-103115843D01*
X189219382Y-103105983D01*
X189201535Y-102879214D01*
X189199992Y-102869467D01*
X189146890Y-102648286D01*
X189143841Y-102638901D01*
X189056794Y-102428750D01*
X189052312Y-102419955D01*
X188949675Y-102252468D01*
X188939217Y-102243006D01*
X188930441Y-102246789D01*
X188079129Y-103098101D01*
X188071515Y-103112045D01*
X187349029Y-103112045D01*
X186486817Y-102249833D01*
X186474437Y-102243073D01*
X186466787Y-102248800D01*
X186361902Y-102419955D01*
X186357420Y-102428750D01*
X186270373Y-102638901D01*
X186267324Y-102648286D01*
X186214222Y-102869467D01*
X186212679Y-102879214D01*
X186194832Y-103105983D01*
X186194832Y-103115843D01*
X186212679Y-103342612D01*
X186214222Y-103352359D01*
X186267324Y-103573540D01*
X186270373Y-103582925D01*
X186291586Y-103634137D01*
X186299175Y-103704727D01*
X186267396Y-103768214D01*
X186206338Y-103804441D01*
X186135386Y-103801907D01*
X186086082Y-103771450D01*
X184193435Y-101878803D01*
X186839200Y-101878803D01*
X186842983Y-101887579D01*
X187694295Y-102738891D01*
X187708239Y-102746505D01*
X187710072Y-102746374D01*
X187716687Y-102742123D01*
X188568187Y-101890623D01*
X188574947Y-101878243D01*
X188569220Y-101870593D01*
X188398065Y-101765708D01*
X188389270Y-101761226D01*
X188179119Y-101674179D01*
X188169734Y-101671130D01*
X187948553Y-101618028D01*
X187938806Y-101616485D01*
X187712037Y-101598638D01*
X187702177Y-101598638D01*
X187475408Y-101616485D01*
X187465661Y-101618028D01*
X187244480Y-101671130D01*
X187235095Y-101674179D01*
X187024944Y-101761226D01*
X187016149Y-101765708D01*
X186848662Y-101868345D01*
X186839200Y-101878803D01*
X184193435Y-101878803D01*
X179732379Y-97417747D01*
X179724839Y-97409461D01*
X179720727Y-97402982D01*
X179671075Y-97356356D01*
X179668234Y-97353602D01*
X179648497Y-97333865D01*
X179645300Y-97331385D01*
X179636278Y-97323680D01*
X179609827Y-97298841D01*
X179604048Y-97293414D01*
X179597102Y-97289595D01*
X179597099Y-97289593D01*
X179586293Y-97283652D01*
X179569774Y-97272801D01*
X179569310Y-97272441D01*
X179553768Y-97260386D01*
X179546499Y-97257241D01*
X179546495Y-97257238D01*
X179513190Y-97242826D01*
X179502540Y-97237609D01*
X179463787Y-97216305D01*
X179444164Y-97211267D01*
X179425461Y-97204863D01*
X179414147Y-97199967D01*
X179414146Y-97199967D01*
X179406872Y-97196819D01*
X179399049Y-97195580D01*
X179399039Y-97195577D01*
X179363203Y-97189901D01*
X179351583Y-97187495D01*
X179316438Y-97178472D01*
X179316437Y-97178472D01*
X179308757Y-97176500D01*
X179288503Y-97176500D01*
X179268792Y-97174949D01*
X179256613Y-97173020D01*
X179248784Y-97171780D01*
X179240892Y-97172526D01*
X179204766Y-97175941D01*
X179192908Y-97176500D01*
X177219394Y-97176500D01*
X177151273Y-97156498D01*
X177116181Y-97122771D01*
X177009357Y-96970211D01*
X177009355Y-96970208D01*
X177006198Y-96965700D01*
X176844300Y-96803802D01*
X176839792Y-96800645D01*
X176839789Y-96800643D01*
X176756449Y-96742288D01*
X176656749Y-96672477D01*
X176651767Y-96670154D01*
X176651762Y-96670151D01*
X176454225Y-96578039D01*
X176454224Y-96578039D01*
X176449243Y-96575716D01*
X176443935Y-96574294D01*
X176443933Y-96574293D01*
X176233402Y-96517881D01*
X176233400Y-96517881D01*
X176228087Y-96516457D01*
X176000000Y-96496502D01*
X175771913Y-96516457D01*
X175766600Y-96517881D01*
X175766598Y-96517881D01*
X175556067Y-96574293D01*
X175556065Y-96574294D01*
X175550757Y-96575716D01*
X175545776Y-96578039D01*
X175545775Y-96578039D01*
X175348238Y-96670151D01*
X175348233Y-96670154D01*
X175343251Y-96672477D01*
X175243551Y-96742288D01*
X175160211Y-96800643D01*
X175160208Y-96800645D01*
X175155700Y-96803802D01*
X174993802Y-96965700D01*
X174990645Y-96970208D01*
X174990643Y-96970211D01*
X174971396Y-96997699D01*
X174862477Y-97153251D01*
X174860154Y-97158233D01*
X174860151Y-97158238D01*
X174779409Y-97331392D01*
X174765716Y-97360757D01*
X174706457Y-97581913D01*
X174686502Y-97810000D01*
X174706457Y-98038087D01*
X174707881Y-98043400D01*
X174707881Y-98043402D01*
X174757016Y-98226773D01*
X174765716Y-98259243D01*
X174768039Y-98264224D01*
X174768039Y-98264225D01*
X174860151Y-98461762D01*
X174860154Y-98461767D01*
X174862477Y-98466749D01*
X174993802Y-98654300D01*
X175155700Y-98816198D01*
X175160208Y-98819355D01*
X175160211Y-98819357D01*
X175201399Y-98848197D01*
X175343251Y-98947523D01*
X175348233Y-98949846D01*
X175348238Y-98949849D01*
X175475855Y-99009357D01*
X175550757Y-99044284D01*
X175556065Y-99045706D01*
X175556067Y-99045707D01*
X175766598Y-99102119D01*
X175766600Y-99102119D01*
X175771913Y-99103543D01*
X176000000Y-99123498D01*
X176228087Y-99103543D01*
X176233400Y-99102119D01*
X176233402Y-99102119D01*
X176443933Y-99045707D01*
X176443935Y-99045706D01*
X176449243Y-99044284D01*
X176524145Y-99009357D01*
X176651762Y-98949849D01*
X176651767Y-98949846D01*
X176656749Y-98947523D01*
X176798601Y-98848197D01*
X176839789Y-98819357D01*
X176839792Y-98819355D01*
X176844300Y-98816198D01*
X177006198Y-98654300D01*
X177048542Y-98593827D01*
X177116181Y-98497229D01*
X177171638Y-98452901D01*
X177219394Y-98443500D01*
X178914133Y-98443500D01*
X178982254Y-98463502D01*
X179003228Y-98480405D01*
X179999055Y-99476232D01*
X180033081Y-99538544D01*
X180028016Y-99609359D01*
X179985469Y-99666195D01*
X179918949Y-99691006D01*
X179909740Y-99691327D01*
X179898208Y-99691307D01*
X179826592Y-99691182D01*
X179713413Y-99703277D01*
X179473639Y-99728901D01*
X179473631Y-99728902D01*
X179470256Y-99729263D01*
X179120117Y-99805606D01*
X178780271Y-99919317D01*
X178777178Y-99920739D01*
X178777177Y-99920740D01*
X178671974Y-99969128D01*
X178454694Y-100069066D01*
X178451760Y-100070822D01*
X178451758Y-100070823D01*
X178407253Y-100097459D01*
X178147193Y-100253101D01*
X178144467Y-100255163D01*
X178144465Y-100255164D01*
X178107377Y-100283214D01*
X177861367Y-100469270D01*
X177600559Y-100715043D01*
X177367819Y-100987546D01*
X177365900Y-100990358D01*
X177365897Y-100990363D01*
X177272624Y-101127097D01*
X177165871Y-101283591D01*
X176997077Y-101599714D01*
X176863411Y-101932218D01*
X176862491Y-101935492D01*
X176862489Y-101935497D01*
X176770461Y-102262898D01*
X176766437Y-102277213D01*
X176765875Y-102280570D01*
X176765875Y-102280571D01*
X176714119Y-102589857D01*
X176707290Y-102630663D01*
X176686661Y-102988434D01*
X176686833Y-102991829D01*
X176686833Y-102991830D01*
X176688072Y-103016281D01*
X176704792Y-103346340D01*
X176705329Y-103349695D01*
X176705330Y-103349701D01*
X176740987Y-103572316D01*
X176761470Y-103700195D01*
X176856033Y-104045859D01*
X176987374Y-104379288D01*
X177018151Y-104437909D01*
X177152013Y-104692879D01*
X177153957Y-104696582D01*
X177155858Y-104699411D01*
X177155864Y-104699421D01*
X177322392Y-104947239D01*
X177353834Y-104994029D01*
X177584665Y-105268150D01*
X177843751Y-105515738D01*
X178128061Y-105733897D01*
X178187889Y-105770273D01*
X178431355Y-105918303D01*
X178431360Y-105918306D01*
X178434270Y-105920075D01*
X178447890Y-105926455D01*
X178755710Y-106070649D01*
X178755720Y-106070653D01*
X178758794Y-106072093D01*
X178762012Y-106073195D01*
X178762015Y-106073196D01*
X179094615Y-106187071D01*
X179094623Y-106187073D01*
X179097838Y-106188174D01*
X179447435Y-106266959D01*
X179499728Y-106272917D01*
X179800114Y-106307142D01*
X179800122Y-106307142D01*
X179803497Y-106307527D01*
X179806901Y-106307545D01*
X179806904Y-106307545D01*
X180001227Y-106308562D01*
X180161857Y-106309403D01*
X180165243Y-106309053D01*
X180165245Y-106309053D01*
X180514932Y-106272917D01*
X180514941Y-106272916D01*
X180518324Y-106272566D01*
X180521657Y-106271852D01*
X180521660Y-106271851D01*
X180792783Y-106213727D01*
X180868727Y-106197446D01*
X181208968Y-106084922D01*
X181535066Y-105936311D01*
X181663758Y-105859899D01*
X181840262Y-105755099D01*
X181840267Y-105755096D01*
X181843207Y-105753350D01*
X181893607Y-105715509D01*
X182033157Y-105610731D01*
X182129786Y-105538180D01*
X182391451Y-105293319D01*
X182625140Y-105021630D01*
X182777797Y-104799513D01*
X182826190Y-104729101D01*
X182826195Y-104729094D01*
X182828120Y-104726292D01*
X182829732Y-104723298D01*
X182829737Y-104723290D01*
X182996395Y-104413772D01*
X182998017Y-104410760D01*
X183092885Y-104177126D01*
X183131562Y-104081877D01*
X183131564Y-104081872D01*
X183132842Y-104078724D01*
X183143142Y-104042568D01*
X183214147Y-103793302D01*
X183231020Y-103734070D01*
X183251840Y-103612269D01*
X183290829Y-103384175D01*
X183290829Y-103384173D01*
X183291401Y-103380828D01*
X183293138Y-103352437D01*
X183309613Y-103083053D01*
X183333736Y-103016281D01*
X183390130Y-102973150D01*
X183460890Y-102967355D01*
X183524473Y-103001650D01*
X187207963Y-106685140D01*
X187215507Y-106693430D01*
X187219620Y-106699911D01*
X187225397Y-106705336D01*
X187269287Y-106746551D01*
X187272129Y-106749306D01*
X187291850Y-106769027D01*
X187295045Y-106771505D01*
X187304067Y-106779211D01*
X187336299Y-106809479D01*
X187343248Y-106813299D01*
X187354052Y-106819239D01*
X187370576Y-106830092D01*
X187386579Y-106842506D01*
X187427163Y-106860069D01*
X187437793Y-106865276D01*
X187476560Y-106886588D01*
X187484237Y-106888559D01*
X187484242Y-106888561D01*
X187496178Y-106891625D01*
X187514886Y-106898030D01*
X187533475Y-106906074D01*
X187541300Y-106907313D01*
X187541302Y-106907314D01*
X187577139Y-106912990D01*
X187588760Y-106915397D01*
X187623909Y-106924421D01*
X187631590Y-106926393D01*
X187651851Y-106926393D01*
X187671560Y-106927944D01*
X187691563Y-106931112D01*
X187699455Y-106930366D01*
X187704682Y-106929872D01*
X187735574Y-106926952D01*
X187747431Y-106926393D01*
X189055494Y-106926393D01*
X189123615Y-106946395D01*
X189170108Y-107000051D01*
X189180212Y-107070325D01*
X189150718Y-107134905D01*
X189144589Y-107141488D01*
X186871353Y-109414724D01*
X186809041Y-109448750D01*
X186752845Y-109448148D01*
X186699998Y-109435461D01*
X186534418Y-109395708D01*
X186534412Y-109395707D01*
X186529605Y-109394553D01*
X186292894Y-109375923D01*
X186056183Y-109394553D01*
X186051376Y-109395707D01*
X186051370Y-109395708D01*
X185922089Y-109426746D01*
X185825300Y-109449983D01*
X185820729Y-109451876D01*
X185820727Y-109451877D01*
X185610505Y-109538953D01*
X185610501Y-109538955D01*
X185605931Y-109540848D01*
X185601711Y-109543434D01*
X185407692Y-109662329D01*
X185407686Y-109662333D01*
X185403478Y-109664912D01*
X185222925Y-109819119D01*
X185068718Y-109999672D01*
X185066139Y-110003880D01*
X185066135Y-110003886D01*
X184947240Y-110197905D01*
X184944654Y-110202125D01*
X184942761Y-110206695D01*
X184942759Y-110206699D01*
X184859862Y-110406833D01*
X184853789Y-110421494D01*
X184798359Y-110652377D01*
X184779729Y-110889088D01*
X184798359Y-111125799D01*
X184799513Y-111130606D01*
X184799514Y-111130612D01*
X184816025Y-111199385D01*
X184853789Y-111356682D01*
X184855682Y-111361253D01*
X184855683Y-111361255D01*
X184942666Y-111571251D01*
X184944654Y-111576051D01*
X184947240Y-111580271D01*
X185066135Y-111774290D01*
X185066139Y-111774296D01*
X185068718Y-111778504D01*
X185222925Y-111959057D01*
X185403478Y-112113264D01*
X185407686Y-112115843D01*
X185407692Y-112115847D01*
X185583451Y-112223552D01*
X185605931Y-112237328D01*
X185610501Y-112239221D01*
X185610505Y-112239223D01*
X185820727Y-112326299D01*
X185825300Y-112328193D01*
X185905503Y-112347448D01*
X186051370Y-112382468D01*
X186051376Y-112382469D01*
X186056183Y-112383623D01*
X186292894Y-112402253D01*
X186529605Y-112383623D01*
X186534412Y-112382469D01*
X186534418Y-112382468D01*
X186680285Y-112347448D01*
X186760488Y-112328193D01*
X186765061Y-112326299D01*
X186975283Y-112239223D01*
X186975287Y-112239221D01*
X186979857Y-112237328D01*
X187002337Y-112223552D01*
X187178096Y-112115847D01*
X187178102Y-112115843D01*
X187182310Y-112113264D01*
X187362863Y-111959057D01*
X187517070Y-111778504D01*
X187519649Y-111774296D01*
X187519653Y-111774290D01*
X187637027Y-111582753D01*
X187689675Y-111535122D01*
X187744460Y-111522588D01*
X188744311Y-111522588D01*
X188812432Y-111542590D01*
X188858925Y-111596246D01*
X188869029Y-111666520D01*
X188848399Y-111719593D01*
X188778095Y-111822655D01*
X188773000Y-111831623D01*
X188683338Y-112024783D01*
X188679775Y-112034470D01*
X188624389Y-112234183D01*
X188625912Y-112242607D01*
X188638292Y-112246000D01*
X190088000Y-112246000D01*
X190156121Y-112266002D01*
X190202614Y-112319658D01*
X190214000Y-112372000D01*
X190214000Y-113818517D01*
X190218064Y-113832359D01*
X190231478Y-113834393D01*
X190238184Y-113833534D01*
X190248262Y-113831392D01*
X190452255Y-113770191D01*
X190461842Y-113766433D01*
X190653095Y-113672739D01*
X190661945Y-113667464D01*
X190835328Y-113543792D01*
X190843193Y-113537145D01*
X190947897Y-113432805D01*
X191010268Y-113398889D01*
X191081075Y-113404077D01*
X191137837Y-113446723D01*
X191154819Y-113477826D01*
X191181079Y-113547874D01*
X191199385Y-113596705D01*
X191286739Y-113713261D01*
X191403295Y-113800615D01*
X191539684Y-113851745D01*
X191601866Y-113858500D01*
X193398134Y-113858500D01*
X193460316Y-113851745D01*
X193596705Y-113800615D01*
X193713261Y-113713261D01*
X193800615Y-113596705D01*
X193843365Y-113482670D01*
X195882160Y-113482670D01*
X195887887Y-113490320D01*
X196059042Y-113595205D01*
X196067837Y-113599687D01*
X196277988Y-113686734D01*
X196287373Y-113689783D01*
X196508554Y-113742885D01*
X196518301Y-113744428D01*
X196745070Y-113762275D01*
X196754930Y-113762275D01*
X196981699Y-113744428D01*
X196991446Y-113742885D01*
X197212627Y-113689783D01*
X197222012Y-113686734D01*
X197338454Y-113638502D01*
X197409044Y-113630913D01*
X197472531Y-113662692D01*
X197508758Y-113723750D01*
X197506224Y-113794702D01*
X197500960Y-113807961D01*
X197458339Y-113899783D01*
X197454775Y-113909470D01*
X197399389Y-114109183D01*
X197400912Y-114117607D01*
X197413292Y-114121000D01*
X198462885Y-114121000D01*
X198478124Y-114116525D01*
X198479329Y-114115135D01*
X198481000Y-114107452D01*
X198481000Y-113058102D01*
X198477082Y-113044758D01*
X198462806Y-113042771D01*
X198424324Y-113048660D01*
X198414288Y-113051051D01*
X198253857Y-113103488D01*
X198182893Y-113105639D01*
X198122031Y-113069083D01*
X198090595Y-113005425D01*
X198098303Y-112935505D01*
X198186734Y-112722013D01*
X198189783Y-112712627D01*
X198242885Y-112491446D01*
X198244428Y-112481699D01*
X198262275Y-112254930D01*
X198262275Y-112245070D01*
X198244428Y-112018301D01*
X198242885Y-112008554D01*
X198189783Y-111787373D01*
X198186734Y-111777988D01*
X198099687Y-111567837D01*
X198095205Y-111559042D01*
X197992568Y-111391555D01*
X197982110Y-111382093D01*
X197973334Y-111385876D01*
X195888920Y-113470290D01*
X195882160Y-113482670D01*
X193843365Y-113482670D01*
X193851745Y-113460316D01*
X193858500Y-113398134D01*
X193858500Y-112254930D01*
X195237725Y-112254930D01*
X195255572Y-112481699D01*
X195257115Y-112491446D01*
X195310217Y-112712627D01*
X195313266Y-112722012D01*
X195400313Y-112932163D01*
X195404795Y-112940958D01*
X195507432Y-113108445D01*
X195517890Y-113117907D01*
X195526666Y-113114124D01*
X196377978Y-112262812D01*
X196385592Y-112248868D01*
X196385461Y-112247035D01*
X196381210Y-112240420D01*
X195529710Y-111388920D01*
X195517330Y-111382160D01*
X195509680Y-111387887D01*
X195404795Y-111559042D01*
X195400313Y-111567837D01*
X195313266Y-111777988D01*
X195310217Y-111787373D01*
X195257115Y-112008554D01*
X195255572Y-112018301D01*
X195237725Y-112245070D01*
X195237725Y-112254930D01*
X193858500Y-112254930D01*
X193858500Y-111601866D01*
X193851745Y-111539684D01*
X193800615Y-111403295D01*
X193713261Y-111286739D01*
X193596705Y-111199385D01*
X193460316Y-111148255D01*
X193398134Y-111141500D01*
X192089595Y-111141500D01*
X192021474Y-111121498D01*
X192000500Y-111104595D01*
X191913795Y-111017890D01*
X195882093Y-111017890D01*
X195885876Y-111026666D01*
X196737188Y-111877978D01*
X196751132Y-111885592D01*
X196752965Y-111885461D01*
X196759580Y-111881210D01*
X197611080Y-111029710D01*
X197617840Y-111017330D01*
X197612113Y-111009680D01*
X197440958Y-110904795D01*
X197432163Y-110900313D01*
X197222012Y-110813266D01*
X197212627Y-110810217D01*
X196991446Y-110757115D01*
X196981699Y-110755572D01*
X196754930Y-110737725D01*
X196745070Y-110737725D01*
X196518301Y-110755572D01*
X196508554Y-110757115D01*
X196287373Y-110810217D01*
X196277988Y-110813266D01*
X196067837Y-110900313D01*
X196059042Y-110904795D01*
X195891555Y-111007432D01*
X195882093Y-111017890D01*
X191913795Y-111017890D01*
X191392740Y-110496835D01*
X191385200Y-110488549D01*
X191381088Y-110482070D01*
X191331436Y-110435444D01*
X191328595Y-110432690D01*
X191308858Y-110412953D01*
X191305661Y-110410473D01*
X191296639Y-110402768D01*
X191270188Y-110377929D01*
X191264409Y-110372502D01*
X191257463Y-110368683D01*
X191257460Y-110368681D01*
X191246654Y-110362740D01*
X191230135Y-110351889D01*
X191229671Y-110351529D01*
X191214129Y-110339474D01*
X191206860Y-110336329D01*
X191206856Y-110336326D01*
X191173551Y-110321914D01*
X191162901Y-110316697D01*
X191124148Y-110295393D01*
X191104525Y-110290355D01*
X191085822Y-110283951D01*
X191074508Y-110279055D01*
X191074507Y-110279055D01*
X191067233Y-110275907D01*
X191059410Y-110274668D01*
X191059400Y-110274665D01*
X191023564Y-110268989D01*
X191011944Y-110266583D01*
X190976799Y-110257560D01*
X190976798Y-110257560D01*
X190969118Y-110255588D01*
X190948864Y-110255588D01*
X190929153Y-110254037D01*
X190916974Y-110252108D01*
X190909145Y-110250868D01*
X190901253Y-110251614D01*
X190865127Y-110255029D01*
X190853269Y-110255588D01*
X188126488Y-110255588D01*
X188058367Y-110235586D01*
X188011874Y-110181930D01*
X188001770Y-110111656D01*
X188031264Y-110047076D01*
X188037393Y-110040493D01*
X190310628Y-107767257D01*
X190372940Y-107733232D01*
X190429137Y-107733833D01*
X190647564Y-107786273D01*
X190647570Y-107786274D01*
X190652377Y-107787428D01*
X190889088Y-107806058D01*
X191125799Y-107787428D01*
X191130606Y-107786274D01*
X191130612Y-107786273D01*
X191302233Y-107745070D01*
X191356682Y-107731998D01*
X191362404Y-107729628D01*
X191571477Y-107643028D01*
X191571481Y-107643026D01*
X191576051Y-107641133D01*
X191748490Y-107535462D01*
X191774290Y-107519652D01*
X191774296Y-107519648D01*
X191778504Y-107517069D01*
X191959057Y-107362862D01*
X192113264Y-107182309D01*
X192115843Y-107178101D01*
X192115847Y-107178095D01*
X192234742Y-106984076D01*
X192237328Y-106979856D01*
X192257519Y-106931112D01*
X192326299Y-106765060D01*
X192326300Y-106765058D01*
X192328193Y-106760487D01*
X192351138Y-106664916D01*
X192382468Y-106534417D01*
X192382469Y-106534411D01*
X192383623Y-106529604D01*
X192402253Y-106292893D01*
X192395940Y-106212679D01*
X192384103Y-106062279D01*
X192398699Y-105992799D01*
X192448541Y-105942239D01*
X192509715Y-105926393D01*
X202408640Y-105926393D01*
X202419823Y-105926920D01*
X202427316Y-105928595D01*
X202435242Y-105928346D01*
X202435243Y-105928346D01*
X202495393Y-105926455D01*
X202499352Y-105926393D01*
X202527263Y-105926393D01*
X202531198Y-105925896D01*
X202531263Y-105925888D01*
X202543100Y-105924955D01*
X202575358Y-105923941D01*
X202579377Y-105923815D01*
X202587296Y-105923566D01*
X202606750Y-105917914D01*
X202626107Y-105913906D01*
X202638337Y-105912361D01*
X202638338Y-105912361D01*
X202646204Y-105911367D01*
X202653575Y-105908448D01*
X202653577Y-105908448D01*
X202687319Y-105895089D01*
X202698549Y-105891244D01*
X202733390Y-105881122D01*
X202733391Y-105881122D01*
X202741000Y-105878911D01*
X202747819Y-105874878D01*
X202747824Y-105874876D01*
X202758435Y-105868600D01*
X202776183Y-105859905D01*
X202795024Y-105852445D01*
X202830794Y-105826457D01*
X202840714Y-105819941D01*
X202871942Y-105801473D01*
X202871945Y-105801471D01*
X202878769Y-105797435D01*
X202893090Y-105783114D01*
X202908124Y-105770273D01*
X202918101Y-105763024D01*
X202924514Y-105758365D01*
X202952705Y-105724288D01*
X202960695Y-105715509D01*
X210074388Y-98601816D01*
X210082678Y-98594272D01*
X210089159Y-98590159D01*
X210135800Y-98540491D01*
X210138554Y-98537650D01*
X210158275Y-98517929D01*
X210160753Y-98514734D01*
X210168459Y-98505712D01*
X210193299Y-98479260D01*
X210198727Y-98473480D01*
X210208487Y-98455727D01*
X210219340Y-98439204D01*
X210226894Y-98429465D01*
X210231754Y-98423200D01*
X210249317Y-98382616D01*
X210254524Y-98371986D01*
X210275836Y-98333219D01*
X210277807Y-98325542D01*
X210277809Y-98325537D01*
X210280873Y-98313601D01*
X210287279Y-98294889D01*
X210292175Y-98283576D01*
X210295322Y-98276304D01*
X210298025Y-98259243D01*
X210302238Y-98232640D01*
X210304645Y-98221019D01*
X210313669Y-98185870D01*
X210313669Y-98185869D01*
X210315641Y-98178189D01*
X210315641Y-98157928D01*
X210317192Y-98138217D01*
X210319120Y-98126044D01*
X210320360Y-98118216D01*
X210316200Y-98074205D01*
X210315641Y-98062348D01*
X210315641Y-94855132D01*
X210329705Y-94802767D01*
X210327523Y-94801749D01*
X210345805Y-94762543D01*
X210392722Y-94709258D01*
X210460999Y-94689797D01*
X210528959Y-94710339D01*
X210574195Y-94762543D01*
X210590151Y-94796762D01*
X210590154Y-94796767D01*
X210592477Y-94801749D01*
X210723802Y-94989300D01*
X210885700Y-95151198D01*
X210890208Y-95154355D01*
X210890211Y-95154357D01*
X211042771Y-95261181D01*
X211087099Y-95316638D01*
X211096500Y-95364394D01*
X211096500Y-98955406D01*
X211076498Y-99023527D01*
X211059595Y-99044501D01*
X203828459Y-106275636D01*
X203766147Y-106309662D01*
X203709951Y-106309060D01*
X203654964Y-106295859D01*
X203491524Y-106256620D01*
X203491518Y-106256619D01*
X203486711Y-106255465D01*
X203250000Y-106236835D01*
X203013289Y-106255465D01*
X203008482Y-106256619D01*
X203008476Y-106256620D01*
X202869736Y-106289929D01*
X202782406Y-106310895D01*
X202777835Y-106312788D01*
X202777833Y-106312789D01*
X202567611Y-106399865D01*
X202567607Y-106399867D01*
X202563037Y-106401760D01*
X202558817Y-106404346D01*
X202364798Y-106523241D01*
X202364792Y-106523245D01*
X202360584Y-106525824D01*
X202180031Y-106680031D01*
X202176823Y-106683787D01*
X202163052Y-106699911D01*
X202025824Y-106860584D01*
X202023245Y-106864792D01*
X202023241Y-106864798D01*
X201905867Y-107056335D01*
X201853219Y-107103966D01*
X201798434Y-107116500D01*
X198201566Y-107116500D01*
X198133445Y-107096498D01*
X198094133Y-107056335D01*
X197976759Y-106864798D01*
X197976755Y-106864792D01*
X197974176Y-106860584D01*
X197836948Y-106699911D01*
X197823177Y-106683787D01*
X197819969Y-106680031D01*
X197639416Y-106525824D01*
X197635208Y-106523245D01*
X197635202Y-106523241D01*
X197441183Y-106404346D01*
X197436963Y-106401760D01*
X197432393Y-106399867D01*
X197432389Y-106399865D01*
X197222167Y-106312789D01*
X197222165Y-106312788D01*
X197217594Y-106310895D01*
X197130264Y-106289929D01*
X196991524Y-106256620D01*
X196991518Y-106256619D01*
X196986711Y-106255465D01*
X196750000Y-106236835D01*
X196513289Y-106255465D01*
X196508482Y-106256619D01*
X196508476Y-106256620D01*
X196369736Y-106289929D01*
X196282406Y-106310895D01*
X196277835Y-106312788D01*
X196277833Y-106312789D01*
X196067611Y-106399865D01*
X196067607Y-106399867D01*
X196063037Y-106401760D01*
X196058817Y-106404346D01*
X195864798Y-106523241D01*
X195864792Y-106523245D01*
X195860584Y-106525824D01*
X195680031Y-106680031D01*
X195676823Y-106683787D01*
X195663052Y-106699911D01*
X195525824Y-106860584D01*
X195523245Y-106864792D01*
X195523241Y-106864798D01*
X195404346Y-107058817D01*
X195401760Y-107063037D01*
X195399867Y-107067607D01*
X195399865Y-107067611D01*
X195326604Y-107244480D01*
X195310895Y-107282406D01*
X195309740Y-107287218D01*
X195265763Y-107470396D01*
X195255465Y-107513289D01*
X195236835Y-107750000D01*
X195255465Y-107986711D01*
X195256619Y-107991518D01*
X195256620Y-107991524D01*
X195291640Y-108137391D01*
X195310895Y-108217594D01*
X195312788Y-108222165D01*
X195312789Y-108222167D01*
X195384807Y-108396034D01*
X195401760Y-108436963D01*
X195404346Y-108441183D01*
X195523241Y-108635202D01*
X195523245Y-108635208D01*
X195525824Y-108639416D01*
X195680031Y-108819969D01*
X195860584Y-108974176D01*
X195864792Y-108976755D01*
X195864798Y-108976759D01*
X196058817Y-109095654D01*
X196063037Y-109098240D01*
X196067607Y-109100133D01*
X196067611Y-109100135D01*
X196277833Y-109187211D01*
X196282406Y-109189105D01*
X196336243Y-109202030D01*
X196508476Y-109243380D01*
X196508482Y-109243381D01*
X196513289Y-109244535D01*
X196750000Y-109263165D01*
X196986711Y-109244535D01*
X196991518Y-109243381D01*
X196991524Y-109243380D01*
X197163757Y-109202030D01*
X197217594Y-109189105D01*
X197222167Y-109187211D01*
X197432389Y-109100135D01*
X197432393Y-109100133D01*
X197436963Y-109098240D01*
X197441183Y-109095654D01*
X197635202Y-108976759D01*
X197635208Y-108976755D01*
X197639416Y-108974176D01*
X197819969Y-108819969D01*
X197974176Y-108639416D01*
X197976755Y-108635208D01*
X197976759Y-108635202D01*
X198094133Y-108443665D01*
X198146781Y-108396034D01*
X198201566Y-108383500D01*
X201416405Y-108383500D01*
X201484526Y-108403502D01*
X201531019Y-108457158D01*
X201541123Y-108527432D01*
X201511629Y-108592012D01*
X201505500Y-108598595D01*
X200882747Y-109221348D01*
X200874461Y-109228888D01*
X200867982Y-109233000D01*
X200862557Y-109238777D01*
X200821357Y-109282651D01*
X200818602Y-109285493D01*
X200798865Y-109305230D01*
X200796385Y-109308427D01*
X200788682Y-109317447D01*
X200758414Y-109349679D01*
X200754595Y-109356625D01*
X200754593Y-109356628D01*
X200748652Y-109367434D01*
X200737801Y-109383953D01*
X200725386Y-109399959D01*
X200722241Y-109407228D01*
X200722238Y-109407232D01*
X200707826Y-109440537D01*
X200702609Y-109451187D01*
X200681305Y-109489940D01*
X200679334Y-109497615D01*
X200679334Y-109497616D01*
X200676267Y-109509562D01*
X200669863Y-109528266D01*
X200665045Y-109539401D01*
X200661819Y-109546855D01*
X200660580Y-109554678D01*
X200660577Y-109554688D01*
X200654901Y-109590524D01*
X200652495Y-109602144D01*
X200641500Y-109644970D01*
X200641500Y-109665224D01*
X200639949Y-109684934D01*
X200636780Y-109704943D01*
X200637526Y-109712835D01*
X200640941Y-109748961D01*
X200641500Y-109760819D01*
X200641500Y-112890500D01*
X200621498Y-112958621D01*
X200567842Y-113005114D01*
X200515500Y-113016500D01*
X200376866Y-113016500D01*
X200314684Y-113023255D01*
X200178295Y-113074385D01*
X200061739Y-113161739D01*
X199974385Y-113278295D01*
X199971233Y-113286704D01*
X199971232Y-113286705D01*
X199929722Y-113397433D01*
X199887081Y-113454198D01*
X199820519Y-113478898D01*
X199751170Y-113463691D01*
X199718546Y-113438004D01*
X199667799Y-113382234D01*
X199660273Y-113375215D01*
X199493139Y-113243222D01*
X199484552Y-113237517D01*
X199298117Y-113134599D01*
X199288705Y-113130369D01*
X199087959Y-113059280D01*
X199077988Y-113056646D01*
X199006837Y-113043972D01*
X198993540Y-113045432D01*
X198989000Y-113059989D01*
X198989000Y-115693517D01*
X198993064Y-115707359D01*
X199006478Y-115709393D01*
X199013184Y-115708534D01*
X199023262Y-115706392D01*
X199227255Y-115645191D01*
X199236842Y-115641433D01*
X199428095Y-115547739D01*
X199436945Y-115542464D01*
X199610328Y-115418792D01*
X199618193Y-115412145D01*
X199722897Y-115307805D01*
X199785268Y-115273889D01*
X199856075Y-115279077D01*
X199912837Y-115321723D01*
X199929819Y-115352826D01*
X199974385Y-115471705D01*
X200061739Y-115588261D01*
X200178295Y-115675615D01*
X200314684Y-115726745D01*
X200376866Y-115733500D01*
X202173134Y-115733500D01*
X202235316Y-115726745D01*
X202371705Y-115675615D01*
X202488261Y-115588261D01*
X202575615Y-115471705D01*
X202626745Y-115335316D01*
X202633500Y-115273134D01*
X202633500Y-113812672D01*
X202653502Y-113744551D01*
X202707158Y-113698058D01*
X202777432Y-113687954D01*
X202788914Y-113690153D01*
X203008554Y-113742885D01*
X203018301Y-113744428D01*
X203245070Y-113762275D01*
X203254930Y-113762275D01*
X203481699Y-113744428D01*
X203491446Y-113742885D01*
X203712627Y-113689783D01*
X203722012Y-113686734D01*
X203932163Y-113599687D01*
X203940958Y-113595205D01*
X204108445Y-113492568D01*
X204117907Y-113482110D01*
X204114124Y-113473334D01*
X202891922Y-112251132D01*
X203614408Y-112251132D01*
X203614539Y-112252965D01*
X203618790Y-112259580D01*
X204470290Y-113111080D01*
X204482670Y-113117840D01*
X204490320Y-113112113D01*
X204595205Y-112940958D01*
X204599687Y-112932163D01*
X204667699Y-112767966D01*
X206128257Y-112767966D01*
X206158565Y-112902446D01*
X206161645Y-112912275D01*
X206241770Y-113109603D01*
X206246413Y-113118794D01*
X206357694Y-113300388D01*
X206363777Y-113308699D01*
X206503213Y-113469667D01*
X206510580Y-113476883D01*
X206674434Y-113612916D01*
X206682881Y-113618831D01*
X206866756Y-113726279D01*
X206876042Y-113730729D01*
X207075001Y-113806703D01*
X207084899Y-113809579D01*
X207188250Y-113830606D01*
X207202299Y-113829410D01*
X207206000Y-113819065D01*
X207206000Y-112772115D01*
X207201525Y-112756876D01*
X207200135Y-112755671D01*
X207192452Y-112754000D01*
X206143225Y-112754000D01*
X206129694Y-112757973D01*
X206128257Y-112767966D01*
X204667699Y-112767966D01*
X204686734Y-112722012D01*
X204689783Y-112712627D01*
X204742885Y-112491446D01*
X204744428Y-112481699D01*
X204762275Y-112254930D01*
X204762275Y-112245070D01*
X204761418Y-112234183D01*
X206124389Y-112234183D01*
X206125912Y-112242607D01*
X206138292Y-112246000D01*
X207187885Y-112246000D01*
X207203124Y-112241525D01*
X207204329Y-112240135D01*
X207206000Y-112232452D01*
X207206000Y-111183102D01*
X207202082Y-111169758D01*
X207187806Y-111167771D01*
X207149324Y-111173660D01*
X207139288Y-111176051D01*
X206936868Y-111242212D01*
X206927359Y-111246209D01*
X206738463Y-111344542D01*
X206729738Y-111350036D01*
X206559433Y-111477905D01*
X206551726Y-111484748D01*
X206404590Y-111638717D01*
X206398104Y-111646727D01*
X206278098Y-111822649D01*
X206273000Y-111831623D01*
X206183338Y-112024783D01*
X206179775Y-112034470D01*
X206124389Y-112234183D01*
X204761418Y-112234183D01*
X204744428Y-112018301D01*
X204742885Y-112008554D01*
X204689783Y-111787373D01*
X204686734Y-111777988D01*
X204599687Y-111567837D01*
X204595205Y-111559042D01*
X204492568Y-111391555D01*
X204482110Y-111382093D01*
X204473334Y-111385876D01*
X203622022Y-112237188D01*
X203614408Y-112251132D01*
X202891922Y-112251132D01*
X202029710Y-111388920D01*
X201991376Y-111367987D01*
X201974119Y-111364234D01*
X201923915Y-111314034D01*
X201908500Y-111253644D01*
X201908500Y-111017890D01*
X202382093Y-111017890D01*
X202385876Y-111026666D01*
X203237188Y-111877978D01*
X203251132Y-111885592D01*
X203252965Y-111885461D01*
X203259580Y-111881210D01*
X204111080Y-111029710D01*
X204117840Y-111017330D01*
X204112113Y-111009680D01*
X203940958Y-110904795D01*
X203932163Y-110900313D01*
X203722012Y-110813266D01*
X203712627Y-110810217D01*
X203491446Y-110757115D01*
X203481699Y-110755572D01*
X203254930Y-110737725D01*
X203245070Y-110737725D01*
X203018301Y-110755572D01*
X203008554Y-110757115D01*
X202787373Y-110810217D01*
X202777988Y-110813266D01*
X202567837Y-110900313D01*
X202559042Y-110904795D01*
X202391555Y-111007432D01*
X202382093Y-111017890D01*
X201908500Y-111017890D01*
X201908500Y-110039594D01*
X201928502Y-109971473D01*
X201945405Y-109950499D01*
X202671540Y-109224364D01*
X202733852Y-109190338D01*
X202790049Y-109190940D01*
X203008476Y-109243380D01*
X203008482Y-109243381D01*
X203013289Y-109244535D01*
X203250000Y-109263165D01*
X203486711Y-109244535D01*
X203491518Y-109243381D01*
X203491524Y-109243380D01*
X203663757Y-109202030D01*
X203717594Y-109189105D01*
X203722167Y-109187211D01*
X203932389Y-109100135D01*
X203932393Y-109100133D01*
X203936963Y-109098240D01*
X203941183Y-109095654D01*
X204135202Y-108976759D01*
X204135208Y-108976755D01*
X204139416Y-108974176D01*
X204319969Y-108819969D01*
X204474176Y-108639416D01*
X204476755Y-108635208D01*
X204476759Y-108635202D01*
X204595654Y-108441183D01*
X204598240Y-108436963D01*
X204615194Y-108396034D01*
X204687211Y-108222167D01*
X204687212Y-108222165D01*
X204689105Y-108217594D01*
X204708360Y-108137391D01*
X204743380Y-107991524D01*
X204743381Y-107991518D01*
X204744535Y-107986711D01*
X204763165Y-107750000D01*
X204745501Y-107525564D01*
X208243073Y-107525564D01*
X208248800Y-107533214D01*
X208419955Y-107638099D01*
X208428750Y-107642581D01*
X208638901Y-107729628D01*
X208648286Y-107732677D01*
X208869467Y-107785779D01*
X208879214Y-107787322D01*
X209105983Y-107805169D01*
X209115843Y-107805169D01*
X209342612Y-107787322D01*
X209352359Y-107785779D01*
X209573540Y-107732677D01*
X209582925Y-107729628D01*
X209793076Y-107642581D01*
X209801871Y-107638099D01*
X209969358Y-107535462D01*
X209978820Y-107525004D01*
X209975037Y-107516228D01*
X209123725Y-106664916D01*
X209109781Y-106657302D01*
X209107948Y-106657433D01*
X209101333Y-106661684D01*
X208249833Y-107513184D01*
X208243073Y-107525564D01*
X204745501Y-107525564D01*
X204744535Y-107513289D01*
X204734238Y-107470396D01*
X204690940Y-107290049D01*
X204694487Y-107219141D01*
X204724364Y-107171540D01*
X205598080Y-106297824D01*
X207598638Y-106297824D01*
X207616485Y-106524593D01*
X207618028Y-106534340D01*
X207671130Y-106755521D01*
X207674179Y-106764906D01*
X207761226Y-106975057D01*
X207765708Y-106983852D01*
X207868345Y-107151339D01*
X207878803Y-107160801D01*
X207887579Y-107157018D01*
X208738891Y-106305706D01*
X208745269Y-106294026D01*
X209475321Y-106294026D01*
X209475452Y-106295859D01*
X209479703Y-106302474D01*
X210331203Y-107153974D01*
X210343583Y-107160734D01*
X210351233Y-107155007D01*
X210456118Y-106983852D01*
X210460600Y-106975057D01*
X210547647Y-106764906D01*
X210550696Y-106755521D01*
X210603798Y-106534340D01*
X210605341Y-106524593D01*
X210623188Y-106297824D01*
X210623188Y-106287964D01*
X210605341Y-106061195D01*
X210603798Y-106051448D01*
X210550696Y-105830267D01*
X210547647Y-105820882D01*
X210460600Y-105610731D01*
X210456118Y-105601936D01*
X210353481Y-105434449D01*
X210343023Y-105424987D01*
X210334247Y-105428770D01*
X209482935Y-106280082D01*
X209475321Y-106294026D01*
X208745269Y-106294026D01*
X208746505Y-106291762D01*
X208746374Y-106289929D01*
X208742123Y-106283314D01*
X207890623Y-105431814D01*
X207878243Y-105425054D01*
X207870593Y-105430781D01*
X207765708Y-105601936D01*
X207761226Y-105610731D01*
X207674179Y-105820882D01*
X207671130Y-105830267D01*
X207618028Y-106051448D01*
X207616485Y-106061195D01*
X207598638Y-106287964D01*
X207598638Y-106297824D01*
X205598080Y-106297824D01*
X206835120Y-105060784D01*
X208243006Y-105060784D01*
X208246789Y-105069560D01*
X209098101Y-105920872D01*
X209112045Y-105928486D01*
X209113878Y-105928355D01*
X209120493Y-105924104D01*
X209971993Y-105072604D01*
X209978753Y-105060224D01*
X209973026Y-105052574D01*
X209801871Y-104947689D01*
X209793076Y-104943207D01*
X209582925Y-104856160D01*
X209573540Y-104853111D01*
X209352359Y-104800009D01*
X209342612Y-104798466D01*
X209115843Y-104780619D01*
X209105983Y-104780619D01*
X208879214Y-104798466D01*
X208869467Y-104800009D01*
X208648286Y-104853111D01*
X208638901Y-104856160D01*
X208428750Y-104943207D01*
X208419955Y-104947689D01*
X208252468Y-105050326D01*
X208243006Y-105060784D01*
X206835120Y-105060784D01*
X212122253Y-99773652D01*
X212130539Y-99766112D01*
X212137018Y-99762000D01*
X212183644Y-99712348D01*
X212186398Y-99709507D01*
X212206135Y-99689770D01*
X212208615Y-99686573D01*
X212216320Y-99677551D01*
X212226984Y-99666195D01*
X212246586Y-99645321D01*
X212250405Y-99638375D01*
X212250407Y-99638372D01*
X212256348Y-99627566D01*
X212267199Y-99611047D01*
X212274758Y-99601301D01*
X212279614Y-99595041D01*
X212282759Y-99587772D01*
X212282762Y-99587768D01*
X212297174Y-99554463D01*
X212302391Y-99543813D01*
X212323695Y-99505060D01*
X212328733Y-99485437D01*
X212335137Y-99466734D01*
X212340033Y-99455420D01*
X212340033Y-99455419D01*
X212343181Y-99448145D01*
X212344420Y-99440322D01*
X212344423Y-99440312D01*
X212350099Y-99404476D01*
X212352505Y-99392856D01*
X212361528Y-99357711D01*
X212361528Y-99357710D01*
X212363500Y-99350030D01*
X212363500Y-99329776D01*
X212365051Y-99310065D01*
X212366980Y-99297886D01*
X212368220Y-99290057D01*
X212364059Y-99246038D01*
X212363500Y-99234181D01*
X212363500Y-95364394D01*
X212383502Y-95296273D01*
X212417229Y-95261181D01*
X212569789Y-95154357D01*
X212569792Y-95154355D01*
X212574300Y-95151198D01*
X212736198Y-94989300D01*
X212867523Y-94801749D01*
X212869846Y-94796767D01*
X212869849Y-94796762D01*
X212885805Y-94762543D01*
X212932722Y-94709258D01*
X213000999Y-94689797D01*
X213068959Y-94710339D01*
X213114195Y-94762543D01*
X213130151Y-94796762D01*
X213130154Y-94796767D01*
X213132477Y-94801749D01*
X213263802Y-94989300D01*
X213425700Y-95151198D01*
X213430208Y-95154355D01*
X213430211Y-95154357D01*
X213471536Y-95183293D01*
X213613251Y-95282523D01*
X213618233Y-95284846D01*
X213618238Y-95284849D01*
X213742917Y-95342987D01*
X213820757Y-95379284D01*
X213826065Y-95380706D01*
X213826067Y-95380707D01*
X214036598Y-95437119D01*
X214036600Y-95437119D01*
X214041913Y-95438543D01*
X214270000Y-95458498D01*
X214498087Y-95438543D01*
X214503400Y-95437119D01*
X214503402Y-95437119D01*
X214719243Y-95379284D01*
X214719883Y-95381672D01*
X214780637Y-95378304D01*
X214840981Y-95411885D01*
X214992907Y-95563812D01*
X215139596Y-95710501D01*
X215173621Y-95772813D01*
X215176500Y-95799596D01*
X215176500Y-96780606D01*
X215156498Y-96848727D01*
X215122771Y-96883819D01*
X214970211Y-96990643D01*
X214970208Y-96990645D01*
X214965700Y-96993802D01*
X214803802Y-97155700D01*
X214800645Y-97160208D01*
X214800643Y-97160211D01*
X214766620Y-97208801D01*
X214672477Y-97343251D01*
X214670154Y-97348233D01*
X214670151Y-97348238D01*
X214640651Y-97411502D01*
X214575716Y-97550757D01*
X214574294Y-97556065D01*
X214574293Y-97556067D01*
X214517883Y-97766591D01*
X214516457Y-97771913D01*
X214496502Y-98000000D01*
X214516457Y-98228087D01*
X214517881Y-98233400D01*
X214517881Y-98233402D01*
X214557868Y-98382632D01*
X214575716Y-98449243D01*
X214578039Y-98454224D01*
X214578039Y-98454225D01*
X214670151Y-98651762D01*
X214670154Y-98651767D01*
X214672477Y-98656749D01*
X214675634Y-98661257D01*
X214786337Y-98819357D01*
X214803802Y-98844300D01*
X214965700Y-99006198D01*
X214970208Y-99009355D01*
X214970211Y-99009357D01*
X215122771Y-99116181D01*
X215167099Y-99171638D01*
X215176500Y-99219394D01*
X215176500Y-99279213D01*
X215156498Y-99347334D01*
X215139595Y-99368308D01*
X212871353Y-101636549D01*
X212809041Y-101670575D01*
X212752845Y-101669973D01*
X212699998Y-101657286D01*
X212534418Y-101617533D01*
X212534412Y-101617532D01*
X212529605Y-101616378D01*
X212292894Y-101597748D01*
X212056183Y-101616378D01*
X212051376Y-101617532D01*
X212051370Y-101617533D01*
X211905503Y-101652553D01*
X211825300Y-101671808D01*
X211820729Y-101673701D01*
X211820727Y-101673702D01*
X211610505Y-101760778D01*
X211610501Y-101760780D01*
X211605931Y-101762673D01*
X211601711Y-101765259D01*
X211407692Y-101884154D01*
X211407686Y-101884158D01*
X211403478Y-101886737D01*
X211222925Y-102040944D01*
X211068718Y-102221497D01*
X211066139Y-102225705D01*
X211066135Y-102225711D01*
X210960861Y-102397503D01*
X210944654Y-102423950D01*
X210942761Y-102428520D01*
X210942759Y-102428524D01*
X210860425Y-102627298D01*
X210853789Y-102643319D01*
X210852634Y-102648131D01*
X210800284Y-102866185D01*
X210798359Y-102874202D01*
X210779729Y-103110913D01*
X210798359Y-103347624D01*
X210799513Y-103352431D01*
X210799514Y-103352437D01*
X210807134Y-103384175D01*
X210853789Y-103578507D01*
X210855682Y-103583078D01*
X210855683Y-103583080D01*
X210942666Y-103793076D01*
X210944654Y-103797876D01*
X210947240Y-103802096D01*
X211066135Y-103996115D01*
X211066139Y-103996121D01*
X211068718Y-104000329D01*
X211222925Y-104180882D01*
X211403478Y-104335089D01*
X211407686Y-104337668D01*
X211407692Y-104337672D01*
X211526961Y-104410760D01*
X211605931Y-104459153D01*
X211610501Y-104461046D01*
X211610505Y-104461048D01*
X211820727Y-104548124D01*
X211825300Y-104550018D01*
X211905503Y-104569273D01*
X212051370Y-104604293D01*
X212051376Y-104604294D01*
X212056183Y-104605448D01*
X212292894Y-104624078D01*
X212529605Y-104605448D01*
X212534412Y-104604294D01*
X212534418Y-104604293D01*
X212752845Y-104551853D01*
X212823753Y-104555400D01*
X212871354Y-104585277D01*
X215143019Y-106856943D01*
X215177045Y-106919255D01*
X215171980Y-106990071D01*
X215129433Y-107046906D01*
X215057883Y-107071976D01*
X215014094Y-107073352D01*
X215007959Y-107073545D01*
X215004001Y-107073607D01*
X214976090Y-107073607D01*
X214972156Y-107074104D01*
X214972155Y-107074104D01*
X214972090Y-107074112D01*
X214960253Y-107075045D01*
X214928436Y-107076045D01*
X214923975Y-107076185D01*
X214916056Y-107076434D01*
X214898400Y-107081563D01*
X214896604Y-107082085D01*
X214877252Y-107086093D01*
X214870181Y-107086987D01*
X214857149Y-107088633D01*
X214849780Y-107091550D01*
X214849778Y-107091551D01*
X214816043Y-107104907D01*
X214804815Y-107108752D01*
X214762353Y-107121089D01*
X214755531Y-107125123D01*
X214755525Y-107125126D01*
X214744914Y-107131401D01*
X214727164Y-107140097D01*
X214715702Y-107144635D01*
X214715697Y-107144638D01*
X214708329Y-107147555D01*
X214701914Y-107152216D01*
X214672571Y-107173534D01*
X214662653Y-107180050D01*
X214652478Y-107186068D01*
X214624583Y-107202565D01*
X214610259Y-107216889D01*
X214595227Y-107229728D01*
X214578839Y-107241635D01*
X214550658Y-107275700D01*
X214542668Y-107284480D01*
X210722553Y-111104595D01*
X210660241Y-111138621D01*
X210633458Y-111141500D01*
X209101866Y-111141500D01*
X209039684Y-111148255D01*
X208903295Y-111199385D01*
X208786739Y-111286739D01*
X208699385Y-111403295D01*
X208696233Y-111411703D01*
X208696232Y-111411705D01*
X208654722Y-111522433D01*
X208612081Y-111579198D01*
X208545519Y-111603898D01*
X208476170Y-111588691D01*
X208443546Y-111563004D01*
X208392799Y-111507234D01*
X208385273Y-111500215D01*
X208218139Y-111368222D01*
X208209552Y-111362517D01*
X208023117Y-111259599D01*
X208013705Y-111255369D01*
X207812959Y-111184280D01*
X207802988Y-111181646D01*
X207731837Y-111168972D01*
X207718540Y-111170432D01*
X207714000Y-111184989D01*
X207714000Y-113818517D01*
X207718064Y-113832359D01*
X207731478Y-113834393D01*
X207738184Y-113833534D01*
X207748262Y-113831392D01*
X207952255Y-113770191D01*
X207961842Y-113766433D01*
X208153095Y-113672739D01*
X208161945Y-113667464D01*
X208335328Y-113543792D01*
X208343193Y-113537145D01*
X208447897Y-113432805D01*
X208510268Y-113398889D01*
X208581075Y-113404077D01*
X208637837Y-113446723D01*
X208654819Y-113477826D01*
X208681079Y-113547874D01*
X208699385Y-113596705D01*
X208786739Y-113713261D01*
X208903295Y-113800615D01*
X209039684Y-113851745D01*
X209101866Y-113858500D01*
X210898134Y-113858500D01*
X210960316Y-113851745D01*
X211096705Y-113800615D01*
X211213261Y-113713261D01*
X211300615Y-113596705D01*
X211351745Y-113460316D01*
X211358500Y-113398134D01*
X211358500Y-112312647D01*
X211378502Y-112244526D01*
X211395405Y-112223552D01*
X211497199Y-112121758D01*
X212839268Y-112121758D01*
X212844995Y-112129408D01*
X213016150Y-112234293D01*
X213024945Y-112238775D01*
X213235096Y-112325822D01*
X213244481Y-112328871D01*
X213465662Y-112381973D01*
X213475409Y-112383516D01*
X213702178Y-112401363D01*
X213712038Y-112401363D01*
X213938807Y-112383516D01*
X213948554Y-112381973D01*
X214169735Y-112328871D01*
X214179120Y-112325822D01*
X214389271Y-112238775D01*
X214398066Y-112234293D01*
X214565553Y-112131656D01*
X214575015Y-112121198D01*
X214571232Y-112112422D01*
X213719920Y-111261110D01*
X213705976Y-111253496D01*
X213704143Y-111253627D01*
X213697528Y-111257878D01*
X212846028Y-112109378D01*
X212839268Y-112121758D01*
X211497199Y-112121758D01*
X212133367Y-111485590D01*
X212195679Y-111451564D01*
X212266494Y-111456629D01*
X212323330Y-111499176D01*
X212338871Y-111526467D01*
X212357421Y-111571251D01*
X212361903Y-111580046D01*
X212464540Y-111747533D01*
X212474998Y-111756995D01*
X212483774Y-111753212D01*
X213346766Y-110890220D01*
X214071516Y-110890220D01*
X214071647Y-110892053D01*
X214075898Y-110898668D01*
X214927398Y-111750168D01*
X214939778Y-111756928D01*
X214947428Y-111751201D01*
X215052313Y-111580046D01*
X215056795Y-111571251D01*
X215143842Y-111361100D01*
X215146891Y-111351715D01*
X215199993Y-111130534D01*
X215201536Y-111120787D01*
X215219383Y-110894018D01*
X215219383Y-110884158D01*
X215201536Y-110657389D01*
X215199993Y-110647642D01*
X215146891Y-110426461D01*
X215143842Y-110417076D01*
X215056795Y-110206925D01*
X215052313Y-110198130D01*
X214949676Y-110030643D01*
X214939218Y-110021181D01*
X214930442Y-110024964D01*
X214079130Y-110876276D01*
X214071516Y-110890220D01*
X213346766Y-110890220D01*
X214568188Y-109668798D01*
X214574948Y-109656418D01*
X214569221Y-109648768D01*
X214398066Y-109543883D01*
X214389271Y-109539401D01*
X214344487Y-109520851D01*
X214289206Y-109476303D01*
X214266785Y-109408939D01*
X214284343Y-109340148D01*
X214303610Y-109315347D01*
X215241445Y-108377512D01*
X215303757Y-108343486D01*
X215330540Y-108340607D01*
X215437522Y-108340607D01*
X215505643Y-108360609D01*
X215544955Y-108400772D01*
X215662329Y-108592309D01*
X215662333Y-108592315D01*
X215664912Y-108596523D01*
X215819119Y-108777076D01*
X215999672Y-108931283D01*
X216003880Y-108933862D01*
X216003886Y-108933866D01*
X216197172Y-109052312D01*
X216202125Y-109055347D01*
X216206695Y-109057240D01*
X216206699Y-109057242D01*
X216416921Y-109144318D01*
X216421494Y-109146212D01*
X216501697Y-109165467D01*
X216647564Y-109200487D01*
X216647570Y-109200488D01*
X216652377Y-109201642D01*
X216889088Y-109220272D01*
X217125799Y-109201642D01*
X217130606Y-109200488D01*
X217130612Y-109200487D01*
X217276479Y-109165467D01*
X217356682Y-109146212D01*
X217361255Y-109144318D01*
X217571477Y-109057242D01*
X217571481Y-109057240D01*
X217576051Y-109055347D01*
X217581004Y-109052312D01*
X217774290Y-108933866D01*
X217774296Y-108933862D01*
X217778504Y-108931283D01*
X217959057Y-108777076D01*
X218113264Y-108596523D01*
X218115843Y-108592315D01*
X218115847Y-108592309D01*
X218234742Y-108398290D01*
X218237328Y-108394070D01*
X218239317Y-108389270D01*
X218326299Y-108179274D01*
X218326300Y-108179272D01*
X218328193Y-108174701D01*
X218372170Y-107991524D01*
X218382468Y-107948631D01*
X218382469Y-107948625D01*
X218383623Y-107943818D01*
X218402253Y-107707107D01*
X218383623Y-107470396D01*
X218375918Y-107438300D01*
X218347448Y-107319716D01*
X218328193Y-107239513D01*
X218306056Y-107186068D01*
X218239223Y-107024718D01*
X218239221Y-107024714D01*
X218237328Y-107020144D01*
X218218899Y-106990071D01*
X218115847Y-106821905D01*
X218115843Y-106821899D01*
X218113264Y-106817691D01*
X217959057Y-106637138D01*
X217778504Y-106482931D01*
X217774296Y-106480352D01*
X217774290Y-106480348D01*
X217580271Y-106361453D01*
X217576051Y-106358867D01*
X217571481Y-106356974D01*
X217571477Y-106356972D01*
X217361255Y-106269896D01*
X217361253Y-106269895D01*
X217356682Y-106268002D01*
X217276479Y-106248747D01*
X217130612Y-106213727D01*
X217130606Y-106213726D01*
X217125799Y-106212572D01*
X216889088Y-106193942D01*
X216652377Y-106212572D01*
X216647570Y-106213726D01*
X216647564Y-106213727D01*
X216429137Y-106266167D01*
X216358229Y-106262620D01*
X216310628Y-106232743D01*
X213767258Y-103689372D01*
X213733232Y-103627060D01*
X213733834Y-103570863D01*
X213786274Y-103352437D01*
X213786275Y-103352431D01*
X213787429Y-103347624D01*
X213806059Y-103110913D01*
X213787429Y-102874202D01*
X213785505Y-102866185D01*
X213733834Y-102650962D01*
X213737381Y-102580054D01*
X213767258Y-102532453D01*
X216202253Y-100097459D01*
X216210539Y-100089919D01*
X216217018Y-100085807D01*
X216263644Y-100036155D01*
X216266398Y-100033314D01*
X216286135Y-100013577D01*
X216288615Y-100010380D01*
X216296320Y-100001358D01*
X216304693Y-99992442D01*
X216326586Y-99969128D01*
X216330405Y-99962182D01*
X216330407Y-99962179D01*
X216336348Y-99951373D01*
X216347199Y-99934854D01*
X216354758Y-99925108D01*
X216359614Y-99918848D01*
X216362759Y-99911579D01*
X216362762Y-99911575D01*
X216377174Y-99878270D01*
X216382391Y-99867620D01*
X216403695Y-99828867D01*
X216408733Y-99809244D01*
X216415137Y-99790541D01*
X216420033Y-99779227D01*
X216420033Y-99779226D01*
X216423181Y-99771952D01*
X216424420Y-99764129D01*
X216424423Y-99764119D01*
X216430099Y-99728283D01*
X216432505Y-99716663D01*
X216441528Y-99681518D01*
X216441528Y-99681517D01*
X216443500Y-99673837D01*
X216443500Y-99653583D01*
X216445051Y-99633872D01*
X216446980Y-99621693D01*
X216448220Y-99613864D01*
X216444059Y-99569845D01*
X216443500Y-99557988D01*
X216443500Y-99219394D01*
X216463502Y-99151273D01*
X216497229Y-99116181D01*
X216649789Y-99009357D01*
X216649792Y-99009355D01*
X216654300Y-99006198D01*
X216816198Y-98844300D01*
X216833664Y-98819357D01*
X216944366Y-98661257D01*
X216947523Y-98656749D01*
X216949846Y-98651767D01*
X216949849Y-98651762D01*
X217041961Y-98454225D01*
X217041961Y-98454224D01*
X217044284Y-98449243D01*
X217062133Y-98382632D01*
X217102119Y-98233402D01*
X217102119Y-98233400D01*
X217103543Y-98228087D01*
X217123498Y-98000000D01*
X217103543Y-97771913D01*
X217102117Y-97766591D01*
X217045707Y-97556067D01*
X217045706Y-97556065D01*
X217044284Y-97550757D01*
X216979349Y-97411502D01*
X216949849Y-97348238D01*
X216949846Y-97348233D01*
X216947523Y-97343251D01*
X216853380Y-97208801D01*
X216819357Y-97160211D01*
X216819355Y-97160208D01*
X216816198Y-97155700D01*
X216654300Y-96993802D01*
X216649792Y-96990645D01*
X216649789Y-96990643D01*
X216497229Y-96883819D01*
X216452901Y-96828362D01*
X216443500Y-96780606D01*
X216443500Y-95563812D01*
X216463502Y-95495691D01*
X216517158Y-95449198D01*
X216581702Y-95440954D01*
X216581913Y-95438543D01*
X216810000Y-95458498D01*
X217038087Y-95438543D01*
X217043400Y-95437119D01*
X217043402Y-95437119D01*
X217253933Y-95380707D01*
X217253935Y-95380706D01*
X217259243Y-95379284D01*
X217337083Y-95342987D01*
X217461762Y-95284849D01*
X217461767Y-95284846D01*
X217466749Y-95282523D01*
X217608464Y-95183293D01*
X217649789Y-95154357D01*
X217649792Y-95154355D01*
X217654300Y-95151198D01*
X217816198Y-94989300D01*
X217947523Y-94801749D01*
X217949846Y-94796767D01*
X217949849Y-94796762D01*
X217965805Y-94762543D01*
X218012722Y-94709258D01*
X218080999Y-94689797D01*
X218148959Y-94710339D01*
X218194195Y-94762543D01*
X218210151Y-94796762D01*
X218210154Y-94796767D01*
X218212477Y-94801749D01*
X218343802Y-94989300D01*
X218505700Y-95151198D01*
X218510208Y-95154355D01*
X218510211Y-95154357D01*
X218551536Y-95183293D01*
X218693251Y-95282523D01*
X218698233Y-95284846D01*
X218698238Y-95284849D01*
X218822917Y-95342987D01*
X218900757Y-95379284D01*
X218906065Y-95380706D01*
X218906067Y-95380707D01*
X219116598Y-95437119D01*
X219116600Y-95437119D01*
X219121913Y-95438543D01*
X219350000Y-95458498D01*
X219578087Y-95438543D01*
X219583400Y-95437119D01*
X219583402Y-95437119D01*
X219793933Y-95380707D01*
X219793935Y-95380706D01*
X219799243Y-95379284D01*
X219877083Y-95342987D01*
X220001762Y-95284849D01*
X220001767Y-95284846D01*
X220006749Y-95282523D01*
X220148464Y-95183293D01*
X220189789Y-95154357D01*
X220189792Y-95154355D01*
X220194300Y-95151198D01*
X220223133Y-95122365D01*
X220285445Y-95088339D01*
X220356260Y-95093404D01*
X220413096Y-95135951D01*
X220430210Y-95167232D01*
X220439385Y-95191705D01*
X220526739Y-95308261D01*
X220643295Y-95395615D01*
X220779684Y-95446745D01*
X220841866Y-95453500D01*
X222938134Y-95453500D01*
X223000316Y-95446745D01*
X223136705Y-95395615D01*
X223253261Y-95308261D01*
X223265175Y-95292364D01*
X223322035Y-95249850D01*
X223392853Y-95244826D01*
X223455146Y-95278886D01*
X223489136Y-95341218D01*
X223492000Y-95367931D01*
X223492000Y-102302279D01*
X223471998Y-102370400D01*
X223418342Y-102416893D01*
X223348068Y-102426997D01*
X223283488Y-102397503D01*
X223245104Y-102337777D01*
X223241656Y-102322641D01*
X223241361Y-102320838D01*
X223236066Y-102288505D01*
X223140297Y-101943173D01*
X223137243Y-101935497D01*
X223031578Y-101669973D01*
X223007793Y-101610205D01*
X222977768Y-101553498D01*
X222841702Y-101296513D01*
X222841698Y-101296506D01*
X222840103Y-101293494D01*
X222639190Y-100996746D01*
X222407403Y-100723432D01*
X222147454Y-100476750D01*
X221862384Y-100259585D01*
X221859472Y-100257828D01*
X221859467Y-100257825D01*
X221558443Y-100076236D01*
X221558437Y-100076233D01*
X221555528Y-100074478D01*
X221230475Y-99923593D01*
X221060751Y-99866145D01*
X220894255Y-99809789D01*
X220894250Y-99809788D01*
X220891028Y-99808697D01*
X220680393Y-99762000D01*
X220544493Y-99731871D01*
X220544487Y-99731870D01*
X220541158Y-99731132D01*
X220537769Y-99730758D01*
X220537764Y-99730757D01*
X220188338Y-99692180D01*
X220188333Y-99692180D01*
X220184957Y-99691807D01*
X220181558Y-99691801D01*
X220181557Y-99691801D01*
X220012080Y-99691505D01*
X219826592Y-99691182D01*
X219713413Y-99703277D01*
X219473639Y-99728901D01*
X219473631Y-99728902D01*
X219470256Y-99729263D01*
X219120117Y-99805606D01*
X218780271Y-99919317D01*
X218777178Y-99920739D01*
X218777177Y-99920740D01*
X218671974Y-99969128D01*
X218454694Y-100069066D01*
X218451760Y-100070822D01*
X218451758Y-100070823D01*
X218407253Y-100097459D01*
X218147193Y-100253101D01*
X218144467Y-100255163D01*
X218144465Y-100255164D01*
X218107377Y-100283214D01*
X217861367Y-100469270D01*
X217600559Y-100715043D01*
X217367819Y-100987546D01*
X217365900Y-100990358D01*
X217365897Y-100990363D01*
X217272624Y-101127097D01*
X217165871Y-101283591D01*
X216997077Y-101599714D01*
X216863411Y-101932218D01*
X216862491Y-101935492D01*
X216862489Y-101935497D01*
X216770461Y-102262898D01*
X216766437Y-102277213D01*
X216765875Y-102280570D01*
X216765875Y-102280571D01*
X216714119Y-102589857D01*
X216707290Y-102630663D01*
X216686661Y-102988434D01*
X216686833Y-102991829D01*
X216686833Y-102991830D01*
X216688072Y-103016281D01*
X216704792Y-103346340D01*
X216705329Y-103349695D01*
X216705330Y-103349701D01*
X216740987Y-103572316D01*
X216761470Y-103700195D01*
X216856033Y-104045859D01*
X216987374Y-104379288D01*
X217018151Y-104437909D01*
X217152013Y-104692879D01*
X217153957Y-104696582D01*
X217155858Y-104699411D01*
X217155864Y-104699421D01*
X217322392Y-104947239D01*
X217353834Y-104994029D01*
X217584665Y-105268150D01*
X217843751Y-105515738D01*
X218128061Y-105733897D01*
X218187889Y-105770273D01*
X218431355Y-105918303D01*
X218431360Y-105918306D01*
X218434270Y-105920075D01*
X218447890Y-105926455D01*
X218755710Y-106070649D01*
X218755720Y-106070653D01*
X218758794Y-106072093D01*
X218762012Y-106073195D01*
X218762015Y-106073196D01*
X219094615Y-106187071D01*
X219094623Y-106187073D01*
X219097838Y-106188174D01*
X219447435Y-106266959D01*
X219499728Y-106272917D01*
X219800114Y-106307142D01*
X219800122Y-106307142D01*
X219803497Y-106307527D01*
X219806901Y-106307545D01*
X219806904Y-106307545D01*
X220001227Y-106308562D01*
X220161857Y-106309403D01*
X220165243Y-106309053D01*
X220165245Y-106309053D01*
X220514932Y-106272917D01*
X220514941Y-106272916D01*
X220518324Y-106272566D01*
X220521657Y-106271852D01*
X220521660Y-106271851D01*
X220792783Y-106213727D01*
X220868727Y-106197446D01*
X221208968Y-106084922D01*
X221535066Y-105936311D01*
X221663758Y-105859899D01*
X221840262Y-105755099D01*
X221840267Y-105755096D01*
X221843207Y-105753350D01*
X221893607Y-105715509D01*
X222033157Y-105610731D01*
X222129786Y-105538180D01*
X222391451Y-105293319D01*
X222625140Y-105021630D01*
X222777797Y-104799513D01*
X222826190Y-104729101D01*
X222826195Y-104729094D01*
X222828120Y-104726292D01*
X222829732Y-104723298D01*
X222829737Y-104723290D01*
X222996395Y-104413772D01*
X222998017Y-104410760D01*
X223092885Y-104177126D01*
X223131562Y-104081877D01*
X223131564Y-104081872D01*
X223132842Y-104078724D01*
X223143142Y-104042568D01*
X223214147Y-103793302D01*
X223231020Y-103734070D01*
X223241801Y-103670999D01*
X223272995Y-103607223D01*
X223333717Y-103570435D01*
X223404689Y-103572316D01*
X223463377Y-103612269D01*
X223491149Y-103677608D01*
X223492000Y-103692229D01*
X223492000Y-106731082D01*
X223471998Y-106799203D01*
X223453551Y-106821695D01*
X222815338Y-107438325D01*
X222812223Y-107441233D01*
X221998876Y-108174701D01*
X221961406Y-108208491D01*
X221958138Y-108211337D01*
X221081508Y-108948821D01*
X221078144Y-108951554D01*
X220630697Y-109302426D01*
X220179271Y-109656418D01*
X220176640Y-109658481D01*
X220173195Y-109661087D01*
X219556022Y-110111656D01*
X219247933Y-110336577D01*
X219244394Y-110339069D01*
X218426602Y-110894018D01*
X218296406Y-110982368D01*
X218292786Y-110984734D01*
X217348420Y-111579198D01*
X217323307Y-111595006D01*
X217319610Y-111597247D01*
X216329617Y-112173875D01*
X216325867Y-112175973D01*
X215939582Y-112383516D01*
X215316680Y-112718188D01*
X215312827Y-112720173D01*
X214285631Y-113227340D01*
X214281713Y-113229192D01*
X213871020Y-113414684D01*
X213237632Y-113700757D01*
X213233680Y-113702461D01*
X212912568Y-113834393D01*
X212173988Y-114137845D01*
X212169952Y-114139422D01*
X211887493Y-114244271D01*
X211095953Y-114538091D01*
X211091894Y-114539519D01*
X210004786Y-114901028D01*
X210000690Y-114902313D01*
X209620088Y-115014499D01*
X208901814Y-115226217D01*
X208897637Y-115227371D01*
X208180720Y-115412145D01*
X207788250Y-115513298D01*
X207784052Y-115514303D01*
X207482381Y-115581081D01*
X206665528Y-115761900D01*
X206661281Y-115762764D01*
X206244171Y-115840153D01*
X205534861Y-115971756D01*
X205530637Y-115972465D01*
X204747982Y-116089994D01*
X204397718Y-116142592D01*
X204393422Y-116143162D01*
X203255309Y-116274229D01*
X203250996Y-116274650D01*
X202109121Y-116366494D01*
X202104796Y-116366768D01*
X201349175Y-116401447D01*
X200960355Y-116419292D01*
X200956033Y-116419416D01*
X200616967Y-116423304D01*
X199810498Y-116432551D01*
X199806164Y-116432526D01*
X199424497Y-116423772D01*
X198660832Y-116406257D01*
X198656551Y-116406085D01*
X197512777Y-116340443D01*
X197508493Y-116340122D01*
X196367681Y-116235187D01*
X196363399Y-116234718D01*
X195226876Y-116090613D01*
X195222587Y-116089994D01*
X194091676Y-115906885D01*
X194087469Y-115906129D01*
X193183161Y-115727598D01*
X192963537Y-115684239D01*
X192959300Y-115683327D01*
X191843657Y-115422915D01*
X191839454Y-115421857D01*
X190733474Y-115123244D01*
X190729310Y-115122043D01*
X190009988Y-114901022D01*
X189634201Y-114785556D01*
X189630109Y-114784221D01*
X189221058Y-114642966D01*
X197403257Y-114642966D01*
X197433565Y-114777446D01*
X197436645Y-114787275D01*
X197516770Y-114984603D01*
X197521413Y-114993794D01*
X197632694Y-115175388D01*
X197638777Y-115183699D01*
X197778213Y-115344667D01*
X197785580Y-115351883D01*
X197949434Y-115487916D01*
X197957881Y-115493831D01*
X198141756Y-115601279D01*
X198151042Y-115605729D01*
X198350001Y-115681703D01*
X198359899Y-115684579D01*
X198463250Y-115705606D01*
X198477299Y-115704410D01*
X198481000Y-115694065D01*
X198481000Y-114647115D01*
X198476525Y-114631876D01*
X198475135Y-114630671D01*
X198467452Y-114629000D01*
X197418225Y-114629000D01*
X197404694Y-114632973D01*
X197403257Y-114642966D01*
X189221058Y-114642966D01*
X189192120Y-114632973D01*
X188547228Y-114410275D01*
X188543157Y-114408790D01*
X187473804Y-113997835D01*
X187469786Y-113996211D01*
X187265365Y-113909470D01*
X186415174Y-113548713D01*
X186411264Y-113546974D01*
X185525449Y-113134599D01*
X185372637Y-113063460D01*
X185368740Y-113061563D01*
X184790887Y-112767966D01*
X188628257Y-112767966D01*
X188658565Y-112902446D01*
X188661645Y-112912275D01*
X188741770Y-113109603D01*
X188746413Y-113118794D01*
X188857694Y-113300388D01*
X188863777Y-113308699D01*
X189003213Y-113469667D01*
X189010580Y-113476883D01*
X189174434Y-113612916D01*
X189182881Y-113618831D01*
X189366756Y-113726279D01*
X189376042Y-113730729D01*
X189575001Y-113806703D01*
X189584899Y-113809579D01*
X189688250Y-113830606D01*
X189702299Y-113829410D01*
X189706000Y-113819065D01*
X189706000Y-112772115D01*
X189701525Y-112756876D01*
X189700135Y-112755671D01*
X189692452Y-112754000D01*
X188643225Y-112754000D01*
X188629694Y-112757973D01*
X188628257Y-112767966D01*
X184790887Y-112767966D01*
X184347415Y-112542646D01*
X184343586Y-112540617D01*
X183340697Y-111986876D01*
X183336939Y-111984716D01*
X182758265Y-111638717D01*
X182353687Y-111396813D01*
X182350032Y-111394542D01*
X181780221Y-111026666D01*
X181387548Y-110773152D01*
X181383948Y-110770739D01*
X180443427Y-110116633D01*
X180439913Y-110114098D01*
X179522455Y-109428043D01*
X179519029Y-109425388D01*
X178914166Y-108939777D01*
X182243073Y-108939777D01*
X182248800Y-108947427D01*
X182419955Y-109052312D01*
X182428750Y-109056794D01*
X182638901Y-109143841D01*
X182648286Y-109146890D01*
X182869467Y-109199992D01*
X182879214Y-109201535D01*
X183105983Y-109219382D01*
X183115843Y-109219382D01*
X183342612Y-109201535D01*
X183352359Y-109199992D01*
X183573540Y-109146890D01*
X183582925Y-109143841D01*
X183793076Y-109056794D01*
X183801871Y-109052312D01*
X183969358Y-108949675D01*
X183978820Y-108939217D01*
X183975037Y-108930441D01*
X183123725Y-108079129D01*
X183109781Y-108071515D01*
X183107948Y-108071646D01*
X183101333Y-108075897D01*
X182249833Y-108927397D01*
X182243073Y-108939777D01*
X178914166Y-108939777D01*
X178625696Y-108708180D01*
X178622364Y-108705409D01*
X177754233Y-107957909D01*
X177750998Y-107955025D01*
X177487681Y-107712037D01*
X181598638Y-107712037D01*
X181616485Y-107938806D01*
X181618028Y-107948553D01*
X181671130Y-108169734D01*
X181674179Y-108179119D01*
X181761226Y-108389270D01*
X181765708Y-108398065D01*
X181868345Y-108565552D01*
X181878803Y-108575014D01*
X181887579Y-108571231D01*
X182738891Y-107719919D01*
X182745269Y-107708239D01*
X183475321Y-107708239D01*
X183475452Y-107710072D01*
X183479703Y-107716687D01*
X184331203Y-108568187D01*
X184343583Y-108574947D01*
X184351233Y-108569220D01*
X184456118Y-108398065D01*
X184460600Y-108389270D01*
X184547647Y-108179119D01*
X184550696Y-108169734D01*
X184603798Y-107948553D01*
X184605341Y-107938806D01*
X184623188Y-107712037D01*
X184623188Y-107702177D01*
X184605341Y-107475408D01*
X184603798Y-107465661D01*
X184550696Y-107244480D01*
X184547647Y-107235095D01*
X184460600Y-107024944D01*
X184456118Y-107016149D01*
X184353481Y-106848662D01*
X184343023Y-106839200D01*
X184334247Y-106842983D01*
X183482935Y-107694295D01*
X183475321Y-107708239D01*
X182745269Y-107708239D01*
X182746505Y-107705975D01*
X182746374Y-107704142D01*
X182742123Y-107697527D01*
X181890623Y-106846027D01*
X181878243Y-106839267D01*
X181870593Y-106844994D01*
X181765708Y-107016149D01*
X181761226Y-107024944D01*
X181674179Y-107235095D01*
X181671130Y-107244480D01*
X181618028Y-107465661D01*
X181616485Y-107475408D01*
X181598638Y-107702177D01*
X181598638Y-107712037D01*
X177487681Y-107712037D01*
X176909093Y-107178117D01*
X176905959Y-107175124D01*
X176197758Y-106474997D01*
X182243006Y-106474997D01*
X182246789Y-106483773D01*
X183098101Y-107335085D01*
X183112045Y-107342699D01*
X183113878Y-107342568D01*
X183120493Y-107338317D01*
X183971993Y-106486817D01*
X183978753Y-106474437D01*
X183973026Y-106466787D01*
X183801871Y-106361902D01*
X183793076Y-106357420D01*
X183582925Y-106270373D01*
X183573540Y-106267324D01*
X183352359Y-106214222D01*
X183342612Y-106212679D01*
X183115843Y-106194832D01*
X183105983Y-106194832D01*
X182879214Y-106212679D01*
X182869467Y-106214222D01*
X182648286Y-106267324D01*
X182638901Y-106270373D01*
X182428750Y-106357420D01*
X182419955Y-106361902D01*
X182252468Y-106464539D01*
X182243006Y-106474997D01*
X176197758Y-106474997D01*
X176091244Y-106369697D01*
X176088215Y-106366597D01*
X175420434Y-105659393D01*
X175301710Y-105533660D01*
X175298799Y-105530470D01*
X175283744Y-105513385D01*
X174541350Y-104670914D01*
X174538586Y-104667666D01*
X173811170Y-103782602D01*
X173808479Y-103779211D01*
X173750487Y-103703484D01*
X173111943Y-102869670D01*
X173109368Y-102866185D01*
X172796394Y-102426997D01*
X172444513Y-101933212D01*
X172442072Y-101929659D01*
X172441674Y-101929057D01*
X171947520Y-101182576D01*
X171809706Y-100974390D01*
X171807376Y-100970735D01*
X171208246Y-99994300D01*
X171206043Y-99990568D01*
X171100720Y-99804879D01*
X170640830Y-98994078D01*
X170638758Y-98990274D01*
X170464460Y-98656749D01*
X170108138Y-97974912D01*
X170106239Y-97971121D01*
X170028972Y-97810000D01*
X171686502Y-97810000D01*
X171706457Y-98038087D01*
X171707881Y-98043400D01*
X171707881Y-98043402D01*
X171757016Y-98226773D01*
X171765716Y-98259243D01*
X171768039Y-98264224D01*
X171768039Y-98264225D01*
X171860151Y-98461762D01*
X171860154Y-98461767D01*
X171862477Y-98466749D01*
X171993802Y-98654300D01*
X172155700Y-98816198D01*
X172160208Y-98819355D01*
X172160211Y-98819357D01*
X172201399Y-98848197D01*
X172343251Y-98947523D01*
X172348233Y-98949846D01*
X172348238Y-98949849D01*
X172475855Y-99009357D01*
X172550757Y-99044284D01*
X172556065Y-99045706D01*
X172556067Y-99045707D01*
X172766598Y-99102119D01*
X172766600Y-99102119D01*
X172771913Y-99103543D01*
X173000000Y-99123498D01*
X173228087Y-99103543D01*
X173233400Y-99102119D01*
X173233402Y-99102119D01*
X173443933Y-99045707D01*
X173443935Y-99045706D01*
X173449243Y-99044284D01*
X173524145Y-99009357D01*
X173651762Y-98949849D01*
X173651767Y-98949846D01*
X173656749Y-98947523D01*
X173798601Y-98848197D01*
X173839789Y-98819357D01*
X173839792Y-98819355D01*
X173844300Y-98816198D01*
X174006198Y-98654300D01*
X174137523Y-98466749D01*
X174139846Y-98461767D01*
X174139849Y-98461762D01*
X174231961Y-98264225D01*
X174231961Y-98264224D01*
X174234284Y-98259243D01*
X174242985Y-98226773D01*
X174292119Y-98043402D01*
X174292119Y-98043400D01*
X174293543Y-98038087D01*
X174313498Y-97810000D01*
X174293543Y-97581913D01*
X174234284Y-97360757D01*
X174220591Y-97331392D01*
X174139849Y-97158238D01*
X174139846Y-97158233D01*
X174137523Y-97153251D01*
X174028604Y-96997699D01*
X174009357Y-96970211D01*
X174009355Y-96970208D01*
X174006198Y-96965700D01*
X173844300Y-96803802D01*
X173839792Y-96800645D01*
X173839789Y-96800643D01*
X173756449Y-96742288D01*
X173656749Y-96672477D01*
X173651767Y-96670154D01*
X173651762Y-96670151D01*
X173454225Y-96578039D01*
X173454224Y-96578039D01*
X173449243Y-96575716D01*
X173443935Y-96574294D01*
X173443933Y-96574293D01*
X173233402Y-96517881D01*
X173233400Y-96517881D01*
X173228087Y-96516457D01*
X173000000Y-96496502D01*
X172771913Y-96516457D01*
X172766600Y-96517881D01*
X172766598Y-96517881D01*
X172556067Y-96574293D01*
X172556065Y-96574294D01*
X172550757Y-96575716D01*
X172545776Y-96578039D01*
X172545775Y-96578039D01*
X172348238Y-96670151D01*
X172348233Y-96670154D01*
X172343251Y-96672477D01*
X172243551Y-96742288D01*
X172160211Y-96800643D01*
X172160208Y-96800645D01*
X172155700Y-96803802D01*
X171993802Y-96965700D01*
X171990645Y-96970208D01*
X171990643Y-96970211D01*
X171971396Y-96997699D01*
X171862477Y-97153251D01*
X171860154Y-97158233D01*
X171860151Y-97158238D01*
X171779409Y-97331392D01*
X171765716Y-97360757D01*
X171706457Y-97581913D01*
X171686502Y-97810000D01*
X170028972Y-97810000D01*
X169610840Y-96938089D01*
X169609050Y-96934185D01*
X169149492Y-95884777D01*
X169147822Y-95880778D01*
X168724625Y-94816188D01*
X168723094Y-94812134D01*
X168641095Y-94583220D01*
X168336760Y-93733621D01*
X168335373Y-93729528D01*
X168201664Y-93311500D01*
X167986362Y-92638379D01*
X167985130Y-92634286D01*
X167828757Y-92080440D01*
X167673831Y-91531713D01*
X167672726Y-91527523D01*
X167499163Y-90820673D01*
X167399543Y-90414960D01*
X167398587Y-90410754D01*
X167389935Y-90369425D01*
X167276520Y-89827712D01*
X167163829Y-89289453D01*
X167163014Y-89285196D01*
X167010945Y-88409734D01*
X166966955Y-88156479D01*
X166966288Y-88152207D01*
X166809161Y-87017409D01*
X166808644Y-87013142D01*
X166803393Y-86962429D01*
X166741853Y-86368182D01*
X166690636Y-85873605D01*
X166690264Y-85869287D01*
X166611514Y-84726381D01*
X166611291Y-84722053D01*
X166571894Y-83577151D01*
X166571819Y-83572818D01*
X166571819Y-82427182D01*
X166571894Y-82422849D01*
X166611291Y-81277947D01*
X166611514Y-81273619D01*
X166690264Y-80130713D01*
X166690636Y-80126395D01*
X166774327Y-79318240D01*
X166808647Y-78986830D01*
X166809161Y-78982591D01*
X166966291Y-77847776D01*
X166966956Y-77843512D01*
X167163014Y-76714804D01*
X167163829Y-76710547D01*
X167298670Y-76066492D01*
X167398592Y-75589226D01*
X167399548Y-75585020D01*
X167400880Y-75579598D01*
X167572411Y-74881020D01*
X167672726Y-74472477D01*
X167673831Y-74468287D01*
X167881960Y-73731124D01*
X167985130Y-73365714D01*
X167986362Y-73361621D01*
X168335378Y-72270458D01*
X168336764Y-72266367D01*
X168381510Y-72141453D01*
X168723095Y-71187865D01*
X168724625Y-71183812D01*
X169147822Y-70119222D01*
X169149492Y-70115223D01*
X169609050Y-69065815D01*
X169610840Y-69061911D01*
X170106239Y-68028879D01*
X170108147Y-68025069D01*
X170140689Y-67962800D01*
X170638759Y-67009724D01*
X170640831Y-67005920D01*
X170703046Y-66896233D01*
X171206045Y-66009429D01*
X171208246Y-66005700D01*
X171807376Y-65029265D01*
X171809706Y-65025610D01*
X172027515Y-64696582D01*
X172442085Y-64070322D01*
X172444526Y-64066769D01*
X172461773Y-64042568D01*
X173109368Y-63133815D01*
X173111943Y-63130330D01*
X173220608Y-62988434D01*
X176686661Y-62988434D01*
X176704792Y-63346340D01*
X176705329Y-63349695D01*
X176705330Y-63349701D01*
X176710316Y-63380828D01*
X176761470Y-63700195D01*
X176856033Y-64045859D01*
X176947673Y-64278502D01*
X176962594Y-64316379D01*
X176987374Y-64379288D01*
X177153957Y-64696582D01*
X177155858Y-64699411D01*
X177155864Y-64699421D01*
X177339569Y-64972800D01*
X177353834Y-64994029D01*
X177584665Y-65268150D01*
X177843751Y-65515738D01*
X178128061Y-65733897D01*
X178160056Y-65753350D01*
X178431355Y-65918303D01*
X178431360Y-65918306D01*
X178434270Y-65920075D01*
X178437358Y-65921521D01*
X178437357Y-65921521D01*
X178755710Y-66070649D01*
X178755720Y-66070653D01*
X178758794Y-66072093D01*
X178762012Y-66073195D01*
X178762015Y-66073196D01*
X179094615Y-66187071D01*
X179094623Y-66187073D01*
X179097838Y-66188174D01*
X179447435Y-66266959D01*
X179499728Y-66272917D01*
X179800114Y-66307142D01*
X179800122Y-66307142D01*
X179803497Y-66307527D01*
X179806901Y-66307545D01*
X179806904Y-66307545D01*
X180001227Y-66308562D01*
X180161857Y-66309403D01*
X180165243Y-66309053D01*
X180165245Y-66309053D01*
X180514932Y-66272917D01*
X180514941Y-66272916D01*
X180518324Y-66272566D01*
X180521657Y-66271852D01*
X180521660Y-66271851D01*
X180694186Y-66234864D01*
X180868727Y-66197446D01*
X181208968Y-66084922D01*
X181535066Y-65936311D01*
X181629052Y-65880506D01*
X181840262Y-65755099D01*
X181840267Y-65755096D01*
X181843207Y-65753350D01*
X182129786Y-65538180D01*
X182391451Y-65293319D01*
X182625140Y-65021630D01*
X182731750Y-64866512D01*
X182826190Y-64729101D01*
X182826195Y-64729094D01*
X182828120Y-64726292D01*
X182829732Y-64723298D01*
X182829737Y-64723290D01*
X182996395Y-64413772D01*
X182998017Y-64410760D01*
X183132842Y-64078724D01*
X183135745Y-64068535D01*
X183192950Y-63867715D01*
X183231020Y-63734070D01*
X183251840Y-63612269D01*
X183290829Y-63384175D01*
X183290829Y-63384173D01*
X183291401Y-63380828D01*
X183293511Y-63346340D01*
X183313168Y-63024928D01*
X183313278Y-63023131D01*
X183313359Y-63000000D01*
X183293979Y-62642159D01*
X183236066Y-62288505D01*
X183140297Y-61943173D01*
X183137243Y-61935497D01*
X183009052Y-61613369D01*
X183007793Y-61610205D01*
X182859791Y-61330678D01*
X182841702Y-61296513D01*
X182841698Y-61296506D01*
X182840103Y-61293494D01*
X182639190Y-60996746D01*
X182407403Y-60723432D01*
X182147454Y-60476750D01*
X181956448Y-60331242D01*
X181865091Y-60261647D01*
X181865089Y-60261646D01*
X181862384Y-60259585D01*
X181859472Y-60257828D01*
X181859467Y-60257825D01*
X181558443Y-60076236D01*
X181558437Y-60076233D01*
X181555528Y-60074478D01*
X181230475Y-59923593D01*
X181060752Y-59866145D01*
X180894255Y-59809789D01*
X180894250Y-59809788D01*
X180891028Y-59808697D01*
X180630907Y-59751029D01*
X180544493Y-59731871D01*
X180544487Y-59731870D01*
X180541158Y-59731132D01*
X180537769Y-59730758D01*
X180537764Y-59730757D01*
X180188338Y-59692180D01*
X180188333Y-59692180D01*
X180184957Y-59691807D01*
X180181558Y-59691801D01*
X180181557Y-59691801D01*
X180012080Y-59691505D01*
X179826592Y-59691182D01*
X179713413Y-59703277D01*
X179473639Y-59728901D01*
X179473631Y-59728902D01*
X179470256Y-59729263D01*
X179120117Y-59805606D01*
X178780271Y-59919317D01*
X178777178Y-59920739D01*
X178777177Y-59920740D01*
X178672140Y-59969052D01*
X178454694Y-60069066D01*
X178451760Y-60070822D01*
X178451758Y-60070823D01*
X178171842Y-60238349D01*
X178147193Y-60253101D01*
X178144467Y-60255163D01*
X178144465Y-60255164D01*
X177865256Y-60466329D01*
X177861367Y-60469270D01*
X177600559Y-60715043D01*
X177367819Y-60987546D01*
X177365900Y-60990358D01*
X177365897Y-60990363D01*
X177351876Y-61010917D01*
X177165871Y-61283591D01*
X176997077Y-61599714D01*
X176863411Y-61932218D01*
X176862491Y-61935492D01*
X176862489Y-61935497D01*
X176782780Y-62219072D01*
X176766437Y-62277213D01*
X176707290Y-62630663D01*
X176686661Y-62988434D01*
X173220608Y-62988434D01*
X173808479Y-62220789D01*
X173811173Y-62217394D01*
X174033843Y-61946466D01*
X174538586Y-61332334D01*
X174541350Y-61329086D01*
X175298810Y-60469518D01*
X175301720Y-60466329D01*
X175496191Y-60260378D01*
X175722603Y-60020599D01*
X176088215Y-59633403D01*
X176091244Y-59630303D01*
X176905959Y-58824876D01*
X176909093Y-58821883D01*
X177750998Y-58044975D01*
X177754233Y-58042091D01*
X178622364Y-57294591D01*
X178625696Y-57291820D01*
X179225885Y-56809961D01*
X197742001Y-56809961D01*
X197742209Y-56815071D01*
X197753082Y-56948767D01*
X197754852Y-56959320D01*
X197807967Y-57166185D01*
X197811701Y-57176731D01*
X197900510Y-57370705D01*
X197906046Y-57380412D01*
X198027803Y-57555597D01*
X198034976Y-57564176D01*
X198185824Y-57715024D01*
X198194403Y-57722197D01*
X198369588Y-57843954D01*
X198379295Y-57849490D01*
X198573269Y-57938299D01*
X198583815Y-57942033D01*
X198790679Y-57995147D01*
X198801234Y-57996918D01*
X198934930Y-58007793D01*
X198940036Y-58008000D01*
X199727885Y-58008000D01*
X199743124Y-58003525D01*
X199744329Y-58002135D01*
X199746000Y-57994452D01*
X199746000Y-57989884D01*
X200254000Y-57989884D01*
X200258475Y-58005123D01*
X200259865Y-58006328D01*
X200267548Y-58007999D01*
X201059961Y-58007999D01*
X201065071Y-58007791D01*
X201198767Y-57996918D01*
X201209320Y-57995148D01*
X201416185Y-57942033D01*
X201426731Y-57938299D01*
X201620705Y-57849490D01*
X201630412Y-57843954D01*
X201805597Y-57722197D01*
X201814176Y-57715024D01*
X201965024Y-57564176D01*
X201972197Y-57555597D01*
X202093954Y-57380412D01*
X202099490Y-57370705D01*
X202188299Y-57176731D01*
X202192033Y-57166185D01*
X202245147Y-56959321D01*
X202246918Y-56948766D01*
X202257793Y-56815070D01*
X202258000Y-56809964D01*
X202258000Y-56272115D01*
X202253525Y-56256876D01*
X202252135Y-56255671D01*
X202244452Y-56254000D01*
X200272115Y-56254000D01*
X200256876Y-56258475D01*
X200255671Y-56259865D01*
X200254000Y-56267548D01*
X200254000Y-57989884D01*
X199746000Y-57989884D01*
X199746000Y-56272115D01*
X199741525Y-56256876D01*
X199740135Y-56255671D01*
X199732452Y-56254000D01*
X197760116Y-56254000D01*
X197744877Y-56258475D01*
X197743672Y-56259865D01*
X197742001Y-56267548D01*
X197742001Y-56809961D01*
X179225885Y-56809961D01*
X179519029Y-56574612D01*
X179522455Y-56571957D01*
X180439913Y-55885902D01*
X180443427Y-55883367D01*
X180666990Y-55727885D01*
X197742000Y-55727885D01*
X197746475Y-55743124D01*
X197747865Y-55744329D01*
X197755548Y-55746000D01*
X199727885Y-55746000D01*
X199743124Y-55741525D01*
X199744329Y-55740135D01*
X199746000Y-55732452D01*
X199746000Y-55727885D01*
X200254000Y-55727885D01*
X200258475Y-55743124D01*
X200259865Y-55744329D01*
X200267548Y-55746000D01*
X202239884Y-55746000D01*
X202255123Y-55741525D01*
X202256328Y-55740135D01*
X202257999Y-55732452D01*
X202257999Y-55190039D01*
X202257791Y-55184929D01*
X202246918Y-55051233D01*
X202245148Y-55040680D01*
X202192033Y-54833815D01*
X202188299Y-54823269D01*
X202099490Y-54629295D01*
X202093954Y-54619588D01*
X201972197Y-54444403D01*
X201965024Y-54435824D01*
X201814176Y-54284976D01*
X201805597Y-54277803D01*
X201630412Y-54156046D01*
X201620705Y-54150510D01*
X201426731Y-54061701D01*
X201416185Y-54057967D01*
X201209321Y-54004853D01*
X201198766Y-54003082D01*
X201065070Y-53992207D01*
X201059964Y-53992000D01*
X200272115Y-53992000D01*
X200256876Y-53996475D01*
X200255671Y-53997865D01*
X200254000Y-54005548D01*
X200254000Y-55727885D01*
X199746000Y-55727885D01*
X199746000Y-54010116D01*
X199741525Y-53994877D01*
X199740135Y-53993672D01*
X199732452Y-53992001D01*
X198940039Y-53992001D01*
X198934929Y-53992209D01*
X198801233Y-54003082D01*
X198790680Y-54004852D01*
X198583815Y-54057967D01*
X198573269Y-54061701D01*
X198379295Y-54150510D01*
X198369588Y-54156046D01*
X198194403Y-54277803D01*
X198185824Y-54284976D01*
X198034976Y-54435824D01*
X198027803Y-54444403D01*
X197906046Y-54619588D01*
X197900510Y-54629295D01*
X197811701Y-54823269D01*
X197807967Y-54833815D01*
X197754853Y-55040679D01*
X197753082Y-55051234D01*
X197742207Y-55184930D01*
X197742000Y-55190036D01*
X197742000Y-55727885D01*
X180666990Y-55727885D01*
X181383948Y-55229261D01*
X181387548Y-55226848D01*
X181895583Y-54898855D01*
X182350032Y-54605458D01*
X182353687Y-54603187D01*
X183336939Y-54015284D01*
X183340697Y-54013124D01*
X184343586Y-53459383D01*
X184347415Y-53457354D01*
X185368740Y-52938437D01*
X185372637Y-52936540D01*
X185728642Y-52770808D01*
X186411264Y-52453026D01*
X186415174Y-52451287D01*
X187469786Y-52003789D01*
X187473804Y-52002165D01*
X188543157Y-51591210D01*
X188547228Y-51589725D01*
X189439907Y-51281460D01*
X189630109Y-51215779D01*
X189634201Y-51214444D01*
X190379303Y-50985501D01*
X190729310Y-50877957D01*
X190733474Y-50876756D01*
X191839454Y-50578143D01*
X191843657Y-50577085D01*
X192959300Y-50316673D01*
X192963537Y-50315761D01*
X193568617Y-50196304D01*
X194087469Y-50093871D01*
X194091676Y-50093115D01*
X195222587Y-49910006D01*
X195226877Y-49909387D01*
X195631853Y-49858038D01*
X196363399Y-49765282D01*
X196367681Y-49764813D01*
X197508493Y-49659878D01*
X197512777Y-49659557D01*
X198656551Y-49593915D01*
X198660832Y-49593743D01*
X199424497Y-49576228D01*
X199806164Y-49567474D01*
X199810498Y-49567449D01*
X200616967Y-49576696D01*
G37*
%TD.AperFunction*%
%TD*%
M02*
