%TF.GenerationSoftware,KiCad,Pcbnew,(6.0.2)*%
%TF.CreationDate,2022-06-07T16:02:26+02:00*%
%TF.ProjectId,RFID_Reader,52464944-5f52-4656-9164-65722e6b6963,rev?*%
%TF.SameCoordinates,Original*%
%TF.FileFunction,Soldermask,Top*%
%TF.FilePolarity,Negative*%
%FSLAX46Y46*%
G04 Gerber Fmt 4.6, Leading zero omitted, Abs format (unit mm)*
G04 Created by KiCad (PCBNEW (6.0.2)) date 2022-06-07 16:02:26*
%MOMM*%
%LPD*%
G01*
G04 APERTURE LIST*
G04 Aperture macros list*
%AMRoundRect*
0 Rectangle with rounded corners*
0 $1 Rounding radius*
0 $2 $3 $4 $5 $6 $7 $8 $9 X,Y pos of 4 corners*
0 Add a 4 corners polygon primitive as box body*
4,1,4,$2,$3,$4,$5,$6,$7,$8,$9,$2,$3,0*
0 Add four circle primitives for the rounded corners*
1,1,$1+$1,$2,$3*
1,1,$1+$1,$4,$5*
1,1,$1+$1,$6,$7*
1,1,$1+$1,$8,$9*
0 Add four rect primitives between the rounded corners*
20,1,$1+$1,$2,$3,$4,$5,0*
20,1,$1+$1,$4,$5,$6,$7,0*
20,1,$1+$1,$6,$7,$8,$9,0*
20,1,$1+$1,$8,$9,$2,$3,0*%
%AMHorizOval*
0 Thick line with rounded ends*
0 $1 width*
0 $2 $3 position (X,Y) of the first rounded end (center of the circle)*
0 $4 $5 position (X,Y) of the second rounded end (center of the circle)*
0 Add line between two ends*
20,1,$1,$2,$3,$4,$5,0*
0 Add two circle primitives to create the rounded ends*
1,1,$1,$2,$3*
1,1,$1,$4,$5*%
%AMRotRect*
0 Rectangle, with rotation*
0 The origin of the aperture is its center*
0 $1 length*
0 $2 width*
0 $3 Rotation angle, in degrees counterclockwise*
0 Add horizontal line*
21,1,$1,$2,0,0,$3*%
G04 Aperture macros list end*
%ADD10C,5.600000*%
%ADD11C,2.000000*%
%ADD12RotRect,1.700000X1.700000X45.000000*%
%ADD13HorizOval,1.700000X0.000000X0.000000X0.000000X0.000000X0*%
%ADD14C,1.600000*%
%ADD15O,1.600000X1.600000*%
%ADD16R,1.700000X1.700000*%
%ADD17O,1.700000X1.700000*%
%ADD18R,3.500000X3.500000*%
%ADD19RoundRect,0.750000X-1.000000X0.750000X-1.000000X-0.750000X1.000000X-0.750000X1.000000X0.750000X0*%
%ADD20RoundRect,0.875000X-0.875000X0.875000X-0.875000X-0.875000X0.875000X-0.875000X0.875000X0.875000X0*%
%ADD21R,2.000000X2.000000*%
%ADD22O,1.600000X2.000000*%
G04 APERTURE END LIST*
D10*
%TO.C,Hole4*%
X220000000Y-63000000D03*
%TD*%
D11*
%TO.C,SW1*%
X216889088Y-107707107D03*
X212292894Y-103110913D03*
X213707108Y-110889088D03*
X209110913Y-106292894D03*
%TD*%
D12*
%TO.C,J1*%
X184312994Y-85812994D03*
D13*
X186109045Y-87609045D03*
X187905096Y-89405096D03*
X189701148Y-91201148D03*
%TD*%
D11*
%TO.C,SW3*%
X183110913Y-107707107D03*
X187707107Y-103110913D03*
X190889088Y-106292893D03*
X186292894Y-110889088D03*
%TD*%
D10*
%TO.C,Hole1*%
X180000000Y-103000000D03*
%TD*%
D14*
%TO.C,R2*%
X173000000Y-90190000D03*
D15*
X173000000Y-97810000D03*
%TD*%
D14*
%TO.C,R1*%
X208190000Y-98000000D03*
D15*
X215810000Y-98000000D03*
%TD*%
D11*
%TO.C,SW2*%
X203250000Y-107750000D03*
X196750000Y-107750000D03*
X196750000Y-112250000D03*
X203250000Y-112250000D03*
%TD*%
D14*
%TO.C,R3*%
X176000000Y-90190000D03*
D15*
X176000000Y-97810000D03*
%TD*%
D10*
%TO.C,Hole2*%
X220000000Y-103000000D03*
%TD*%
%TO.C,Hole3*%
X180000000Y-63000000D03*
%TD*%
D16*
%TO.C,J3*%
X171625000Y-86875000D03*
D17*
X171625000Y-84335000D03*
X171625000Y-81795000D03*
X171625000Y-79255000D03*
X171625000Y-76715000D03*
X171625000Y-74175000D03*
X171625000Y-71635000D03*
X171625000Y-69095000D03*
%TD*%
D16*
%TO.C,JSW3*%
X192500000Y-112500000D03*
D17*
X189960000Y-112500000D03*
%TD*%
D16*
%TO.C,JSW2*%
X201275000Y-114375000D03*
D17*
X198735000Y-114375000D03*
%TD*%
D18*
%TO.C,J2*%
X200000000Y-62000000D03*
D19*
X200000000Y-56000000D03*
D20*
X204700000Y-59000000D03*
%TD*%
D21*
%TO.C,U1*%
X221890000Y-93945000D03*
D22*
X219350000Y-93945000D03*
X216810000Y-93945000D03*
X214270000Y-93945000D03*
X211730000Y-93945000D03*
X209190000Y-93945000D03*
X206650000Y-93945000D03*
X204110000Y-93945000D03*
X204110000Y-71085000D03*
X206650000Y-71085000D03*
X209190000Y-71085000D03*
X211730000Y-71085000D03*
X214270000Y-71085000D03*
X216810000Y-71085000D03*
X219350000Y-71085000D03*
X221890000Y-71085000D03*
%TD*%
D16*
%TO.C,JSW1*%
X210000000Y-112500000D03*
D17*
X207460000Y-112500000D03*
%TD*%
M02*
