%TF.GenerationSoftware,KiCad,Pcbnew,(6.0.2)*%
%TF.CreationDate,2022-06-07T16:02:25+02:00*%
%TF.ProjectId,RFID_Reader,52464944-5f52-4656-9164-65722e6b6963,rev?*%
%TF.SameCoordinates,Original*%
%TF.FileFunction,Legend,Top*%
%TF.FilePolarity,Positive*%
%FSLAX46Y46*%
G04 Gerber Fmt 4.6, Leading zero omitted, Abs format (unit mm)*
G04 Created by KiCad (PCBNEW (6.0.2)) date 2022-06-07 16:02:25*
%MOMM*%
%LPD*%
G01*
G04 APERTURE LIST*
G04 Aperture macros list*
%AMRoundRect*
0 Rectangle with rounded corners*
0 $1 Rounding radius*
0 $2 $3 $4 $5 $6 $7 $8 $9 X,Y pos of 4 corners*
0 Add a 4 corners polygon primitive as box body*
4,1,4,$2,$3,$4,$5,$6,$7,$8,$9,$2,$3,0*
0 Add four circle primitives for the rounded corners*
1,1,$1+$1,$2,$3*
1,1,$1+$1,$4,$5*
1,1,$1+$1,$6,$7*
1,1,$1+$1,$8,$9*
0 Add four rect primitives between the rounded corners*
20,1,$1+$1,$2,$3,$4,$5,0*
20,1,$1+$1,$4,$5,$6,$7,0*
20,1,$1+$1,$6,$7,$8,$9,0*
20,1,$1+$1,$8,$9,$2,$3,0*%
%AMHorizOval*
0 Thick line with rounded ends*
0 $1 width*
0 $2 $3 position (X,Y) of the first rounded end (center of the circle)*
0 $4 $5 position (X,Y) of the second rounded end (center of the circle)*
0 Add line between two ends*
20,1,$1,$2,$3,$4,$5,0*
0 Add two circle primitives to create the rounded ends*
1,1,$1,$2,$3*
1,1,$1,$4,$5*%
%AMRotRect*
0 Rectangle, with rotation*
0 The origin of the aperture is its center*
0 $1 length*
0 $2 width*
0 $3 Rotation angle, in degrees counterclockwise*
0 Add horizontal line*
21,1,$1,$2,0,0,$3*%
G04 Aperture macros list end*
%ADD10C,0.150000*%
%ADD11C,0.120000*%
%ADD12C,5.600000*%
%ADD13C,2.000000*%
%ADD14RotRect,1.700000X1.700000X45.000000*%
%ADD15HorizOval,1.700000X0.000000X0.000000X0.000000X0.000000X0*%
%ADD16C,1.600000*%
%ADD17O,1.600000X1.600000*%
%ADD18R,1.700000X1.700000*%
%ADD19O,1.700000X1.700000*%
%ADD20R,3.500000X3.500000*%
%ADD21RoundRect,0.750000X-1.000000X0.750000X-1.000000X-0.750000X1.000000X-0.750000X1.000000X0.750000X0*%
%ADD22RoundRect,0.875000X-0.875000X0.875000X-0.875000X-0.875000X0.875000X-0.875000X0.875000X0.875000X0*%
%ADD23R,2.000000X2.000000*%
%ADD24O,1.600000X2.000000*%
G04 APERTURE END LIST*
D10*
%TO.C,J1*%
X182042507Y-84013912D02*
X182547583Y-84518988D01*
X182614927Y-84653675D01*
X182614927Y-84788362D01*
X182547583Y-84923049D01*
X182480240Y-84990392D01*
X183456721Y-84013912D02*
X183052660Y-84417973D01*
X183254690Y-84215942D02*
X182547583Y-83508835D01*
X182581255Y-83677194D01*
X182581255Y-83811881D01*
X182547583Y-83912896D01*
%TO.C,R2*%
X173452380Y-94166666D02*
X172976190Y-94500000D01*
X173452380Y-94738095D02*
X172452380Y-94738095D01*
X172452380Y-94357142D01*
X172500000Y-94261904D01*
X172547619Y-94214285D01*
X172642857Y-94166666D01*
X172785714Y-94166666D01*
X172880952Y-94214285D01*
X172928571Y-94261904D01*
X172976190Y-94357142D01*
X172976190Y-94738095D01*
X172547619Y-93785714D02*
X172500000Y-93738095D01*
X172452380Y-93642857D01*
X172452380Y-93404761D01*
X172500000Y-93309523D01*
X172547619Y-93261904D01*
X172642857Y-93214285D01*
X172738095Y-93214285D01*
X172880952Y-93261904D01*
X173452380Y-93833333D01*
X173452380Y-93214285D01*
%TO.C,R1*%
X211833333Y-98452380D02*
X211500000Y-97976190D01*
X211261904Y-98452380D02*
X211261904Y-97452380D01*
X211642857Y-97452380D01*
X211738095Y-97500000D01*
X211785714Y-97547619D01*
X211833333Y-97642857D01*
X211833333Y-97785714D01*
X211785714Y-97880952D01*
X211738095Y-97928571D01*
X211642857Y-97976190D01*
X211261904Y-97976190D01*
X212785714Y-98452380D02*
X212214285Y-98452380D01*
X212500000Y-98452380D02*
X212500000Y-97452380D01*
X212404761Y-97595238D01*
X212309523Y-97690476D01*
X212214285Y-97738095D01*
%TO.C,R3*%
X176452380Y-94166666D02*
X175976190Y-94500000D01*
X176452380Y-94738095D02*
X175452380Y-94738095D01*
X175452380Y-94357142D01*
X175500000Y-94261904D01*
X175547619Y-94214285D01*
X175642857Y-94166666D01*
X175785714Y-94166666D01*
X175880952Y-94214285D01*
X175928571Y-94261904D01*
X175976190Y-94357142D01*
X175976190Y-94738095D01*
X175452380Y-93833333D02*
X175452380Y-93214285D01*
X175833333Y-93547619D01*
X175833333Y-93404761D01*
X175880952Y-93309523D01*
X175928571Y-93261904D01*
X176023809Y-93214285D01*
X176261904Y-93214285D01*
X176357142Y-93261904D01*
X176404761Y-93309523D01*
X176452380Y-93404761D01*
X176452380Y-93690476D01*
X176404761Y-93785714D01*
X176357142Y-93833333D01*
D11*
%TO.C,SW1*%
X211055457Y-103994796D02*
X209994797Y-105055457D01*
X209110913Y-107707107D02*
X212292894Y-110889088D01*
X214944544Y-110005204D02*
X216005205Y-108944544D01*
X216889088Y-106292894D02*
X213707108Y-103110913D01*
%TO.C,J1*%
X183372542Y-86753446D02*
X182432090Y-85812994D01*
X186151472Y-85770568D02*
X191582052Y-91201148D01*
X189701148Y-93082052D02*
X191582052Y-91201148D01*
X182432090Y-85812994D02*
X183372542Y-84872542D01*
X184270568Y-87651472D02*
X186151472Y-85770568D01*
X184270568Y-87651472D02*
X189701148Y-93082052D01*
%TO.C,SW3*%
X186292894Y-103110913D02*
X183110913Y-106292893D01*
X187707107Y-110889088D02*
X190889088Y-107707107D01*
X183994796Y-108944544D02*
X185055457Y-110005204D01*
X190005204Y-105055457D02*
X188944544Y-103994796D01*
%TO.C,R2*%
X171630000Y-97270000D02*
X171960000Y-97270000D01*
X174370000Y-97270000D02*
X174040000Y-97270000D01*
X174370000Y-90730000D02*
X174370000Y-97270000D01*
X171630000Y-90730000D02*
X171630000Y-97270000D01*
X174040000Y-90730000D02*
X174370000Y-90730000D01*
X171960000Y-90730000D02*
X171630000Y-90730000D01*
%TO.C,R1*%
X208730000Y-96630000D02*
X215270000Y-96630000D01*
X215270000Y-99370000D02*
X215270000Y-99040000D01*
X215270000Y-96630000D02*
X215270000Y-96960000D01*
X208730000Y-96960000D02*
X208730000Y-96630000D01*
X208730000Y-99040000D02*
X208730000Y-99370000D01*
X208730000Y-99370000D02*
X215270000Y-99370000D01*
%TO.C,SW2*%
X196500000Y-109250000D02*
X196500000Y-110750000D01*
X202250000Y-106750000D02*
X197750000Y-106750000D01*
X197750000Y-113250000D02*
X202250000Y-113250000D01*
X203500000Y-110750000D02*
X203500000Y-109250000D01*
%TO.C,R3*%
X177370000Y-90730000D02*
X177370000Y-97270000D01*
X177370000Y-97270000D02*
X177040000Y-97270000D01*
X174630000Y-90730000D02*
X174630000Y-97270000D01*
X177040000Y-90730000D02*
X177370000Y-90730000D01*
X174630000Y-97270000D02*
X174960000Y-97270000D01*
X174960000Y-90730000D02*
X174630000Y-90730000D01*
%TD*%
%LPC*%
D12*
%TO.C,Hole4*%
X220000000Y-63000000D03*
%TD*%
D13*
%TO.C,SW1*%
X216889088Y-107707107D03*
X212292894Y-103110913D03*
X213707108Y-110889088D03*
X209110913Y-106292894D03*
%TD*%
D14*
%TO.C,J1*%
X184312994Y-85812994D03*
D15*
X186109045Y-87609045D03*
X187905096Y-89405096D03*
X189701148Y-91201148D03*
%TD*%
D13*
%TO.C,SW3*%
X183110913Y-107707107D03*
X187707107Y-103110913D03*
X190889088Y-106292893D03*
X186292894Y-110889088D03*
%TD*%
D12*
%TO.C,Hole1*%
X180000000Y-103000000D03*
%TD*%
D16*
%TO.C,R2*%
X173000000Y-90190000D03*
D17*
X173000000Y-97810000D03*
%TD*%
D16*
%TO.C,R1*%
X208190000Y-98000000D03*
D17*
X215810000Y-98000000D03*
%TD*%
D13*
%TO.C,SW2*%
X203250000Y-107750000D03*
X196750000Y-107750000D03*
X196750000Y-112250000D03*
X203250000Y-112250000D03*
%TD*%
D16*
%TO.C,R3*%
X176000000Y-90190000D03*
D17*
X176000000Y-97810000D03*
%TD*%
D12*
%TO.C,Hole2*%
X220000000Y-103000000D03*
%TD*%
%TO.C,Hole3*%
X180000000Y-63000000D03*
%TD*%
D18*
%TO.C,J3*%
X171625000Y-86875000D03*
D19*
X171625000Y-84335000D03*
X171625000Y-81795000D03*
X171625000Y-79255000D03*
X171625000Y-76715000D03*
X171625000Y-74175000D03*
X171625000Y-71635000D03*
X171625000Y-69095000D03*
%TD*%
D18*
%TO.C,JSW3*%
X192500000Y-112500000D03*
D19*
X189960000Y-112500000D03*
%TD*%
D18*
%TO.C,JSW2*%
X201275000Y-114375000D03*
D19*
X198735000Y-114375000D03*
%TD*%
D20*
%TO.C,J2*%
X200000000Y-62000000D03*
D21*
X200000000Y-56000000D03*
D22*
X204700000Y-59000000D03*
%TD*%
D23*
%TO.C,U1*%
X221890000Y-93945000D03*
D24*
X219350000Y-93945000D03*
X216810000Y-93945000D03*
X214270000Y-93945000D03*
X211730000Y-93945000D03*
X209190000Y-93945000D03*
X206650000Y-93945000D03*
X204110000Y-93945000D03*
X204110000Y-71085000D03*
X206650000Y-71085000D03*
X209190000Y-71085000D03*
X211730000Y-71085000D03*
X214270000Y-71085000D03*
X216810000Y-71085000D03*
X219350000Y-71085000D03*
X221890000Y-71085000D03*
%TD*%
D18*
%TO.C,JSW1*%
X210000000Y-112500000D03*
D19*
X207460000Y-112500000D03*
%TD*%
M02*
