M48
; DRILL file {KiCad (6.0.2)} date Tue Jun  7 16:02:26 2022
; FORMAT={-:-/ absolute / inch / decimal}
; #@! TF.CreationDate,2022-06-07T16:02:26+02:00
; #@! TF.GenerationSoftware,Kicad,Pcbnew,(6.0.2)
; #@! TF.FileFunction,Plated,1,2,PTH
FMAT,2
INCH
; #@! TA.AperFunction,Plated,PTH,ComponentDrill
T1C0.0315
; #@! TA.AperFunction,Plated,PTH,ComponentDrill
T2C0.0394
; #@! TA.AperFunction,Plated,PTH,ComponentDrill
T3C0.0433
; #@! TA.AperFunction,Plated,PTH,ComponentDrill
T4C0.1260
%
G90
G05
T1
X6.811Y-3.5508
X6.811Y-3.8508
X6.9291Y-3.5508
X6.9291Y-3.8508
X8.1965Y-3.8583
X8.4965Y-3.8583
T2
X6.7569Y-2.7203
X6.7569Y-2.8203
X6.7569Y-2.9203
X6.7569Y-3.0203
X6.7569Y-3.1203
X6.7569Y-3.2203
X6.7569Y-3.3203
X6.7569Y-3.4203
X7.2564Y-3.3785
X7.3271Y-3.4492
X7.3978Y-3.5199
X7.4685Y-3.5906
X7.4787Y-4.4291
X7.5787Y-4.4291
X7.8242Y-4.503
X7.9242Y-4.503
X8.0358Y-2.7986
X8.0358Y-3.6986
X8.1358Y-2.7986
X8.1358Y-3.6986
X8.1677Y-4.4291
X8.2358Y-2.7986
X8.2358Y-3.6986
X8.2677Y-4.4291
X8.3358Y-2.7986
X8.3358Y-3.6986
X8.4358Y-2.7986
X8.4358Y-3.6986
X8.5358Y-2.7986
X8.5358Y-3.6986
X8.6358Y-2.7986
X8.6358Y-3.6986
X8.7358Y-2.7986
X8.7358Y-3.6986
T3
X7.2091Y-4.2404
X7.3344Y-4.3657
X7.39Y-4.0595
X7.5153Y-4.1848
X7.7461Y-4.2421
X7.7461Y-4.4193
X8.002Y-4.2421
X8.002Y-4.4193
X8.2327Y-4.1848
X8.358Y-4.0595
X8.4137Y-4.3657
X8.5389Y-4.2404
T4
X7.0866Y-2.4803
X7.0866Y-4.0551
X8.6614Y-2.4803
X8.6614Y-4.0551
T2
G00X7.9134Y-2.2047
M15
G01X7.8346Y-2.2047
M16
G05
G00X7.9134Y-2.4409
M15
G01X7.8346Y-2.4409
M16
G05
G00X8.0591Y-2.2835
M15
G01X8.0591Y-2.3622
M16
G05
T0
M30
